<svg id="Lager_1" data-name="Lager 1" xmlns="http://www.w3.org/2000/svg" viewBox="0 0 595.28 841.89"><defs><style>.cls-1{opacity:0.48;}.cls-2{fill:#fff;}</style></defs><g class="cls-1"><path class="cls-2" d="M468.37,428.14c-1.31,3.24-6,3.86-6.73,7.47-.36,1.73.82,2.83,1.88,4a10.69,10.69,0,0,1,2.15,3.63c1.93,5.54-.36,12.57-5.78,15.19l.44.25a17,17,0,0,1,10.19-4.17c2.27-.15,4.24-.75,5.15-3a11.28,11.28,0,0,0,0-6.85,44.91,44.91,0,0,0-3.57-9.49c-1.22-2.39-2.7-5.57-5.36-6.66-2.49-1-5.69,0-8.19.58-4.82,1.13-10.47,4-10.31,9.8.18,6.49,8.57,5.54,11.24,10.12.11.17.45.05.57,0a10.86,10.86,0,0,0,5.12-6.81c0-.12-.14-.19-.24-.19-3.29-.11-2.67,5-5.46,6-4,1.44-8.59-2.42-11.37-4.76a46.2,46.2,0,0,1-8.81-9.86c-1.46-2.22-2.15-4.5-.07-6.58a11.77,11.77,0,0,1,6.36-2.91,17.23,17.23,0,0,1,14,3.81l.62-.34-5-2.45a27.3,27.3,0,0,1-4.46-2.31c-1.77-1.36-.77-3.05,1.1-3.48a17.54,17.54,0,0,1,4.8,0c3.27.21,6.8.83,9.3,3.13,2.16,2,3.45,5.14,2.27,8-.14.34.43.24.58.15,4.55-2.72,10.79-.71,15.37,1.05,4.09,1.57,8.39,4.22,9.37,8.82.62,2.89-.16,5.91-.75,8.74s-1.27,5.93-2,8.88a6.15,6.15,0,0,1-.64,1.91,2,2,0,0,1-2.85.43,4.66,4.66,0,0,1-1.95-3.37c-.49-2.57-.66-5.18-1.2-7.75a61.9,61.9,0,0,0-6.53-17.28c-.11-.2-.7,0-.7.19.15,5.35,4.22,9.26,6.29,13.91a11.46,11.46,0,0,1,.65,8.16,14.09,14.09,0,0,1-5.6,7.33,21.1,21.1,0,0,1-9.49,3.19c-3,.34-7.33,1-9.21-1.91-1.28-2-1.47-4.51-2.55-6.62-1.18-2.29-3.42-3.28-5.39-4.75a5.37,5.37,0,0,1-2.39-3.63c-.28-2,.89-3.63,3.16-2.84a9.47,9.47,0,0,1,5.9,8l.3-.31c-4.57,1.55-7-4.52-9.87-6.83-2.52-2.06-5.82-2.68-8.65-4.19a11,11,0,0,1-3.69-3.29c-.76-1-1.64-2.23-3-2.43a2.7,2.7,0,0,0-2.58,1.08,3.88,3.88,0,0,0,0,4.17,27.76,27.76,0,0,0,3.4,4.62c1.37,1.68,2.78,3.32,4.25,4.93a118.09,118.09,0,0,0,8.94,8.82c2.93,2.59,6,5.43,9.56,7.15s7.48,1.54,11.32.71,8.08-2,11.21-4.69c2.85-2.42,4.66-6.23,3.71-10-.07-.29-.8-.1-.72.19.88,3.48-.7,7-3.29,9.37-2.78,2.5-6.52,3.62-10.09,4.46-4.33,1-8.5,1.31-12.5-.93a51.74,51.74,0,0,1-8.86-6.89,113.88,113.88,0,0,1-14.95-16.09c-1-1.36-2.27-3.05-1.72-4.86a1.9,1.9,0,0,1,2.95-1.23,8.2,8.2,0,0,1,1.73,1.89,13.82,13.82,0,0,0,6.4,4.54,31.12,31.12,0,0,1,4.72,2.1,15.37,15.37,0,0,1,4.06,4c1.87,2.37,4.53,4.92,7.81,3.81.15-.05.33-.13.31-.31a9.88,9.88,0,0,0-4.75-7.57c-1.8-1.07-4.76-1.65-5.62.87s1,4.81,3,6.16a15.52,15.52,0,0,1,4,3.15,12.79,12.79,0,0,1,1.79,4.11c.76,2.45,1.66,5.11,4.48,5.7a19.12,19.12,0,0,0,5.07.11,28.85,28.85,0,0,0,5.3-.78c6.12-1.5,12.16-6,12.75-12.77.67-7.57-7.19-12.37-7.4-19.72l-.7.19a61.18,61.18,0,0,1,6.86,19.17c.27,1.52.45,3,.64,4.57a7.29,7.29,0,0,0,1.37,4c1.09,1.23,3.18,1.76,4.51.58a5.18,5.18,0,0,0,1.24-2.88q.68-2.87,1.29-5.75c.7-3.22,1.7-6.6,1.58-9.92-.2-5.4-4.53-8.69-9.15-10.59-5.06-2.08-11.92-4.21-17-1.17l.58.15c1.33-3.21-.25-6.71-2.84-8.8-3-2.41-7.13-2.77-10.83-2.9-1.76-.05-6.47-.19-6.19,2.72.16,1.7,2.37,2.44,3.65,3.07l6.92,3.41c.17.08.87-.12.62-.34A17.92,17.92,0,0,0,448,423.16c-3.67.12-9.12,1.44-10.66,5.26-.9,2.25.59,4.3,1.83,6.08a45.82,45.82,0,0,0,5.17,6.2c3.09,3.11,7,6.72,11.37,7.73a6.17,6.17,0,0,0,5.05-.65,5.07,5.07,0,0,0,1.6-2.26c.4-.95.9-3.13,2.27-3.09l-.23-.19a10.27,10.27,0,0,1-4.85,6.46h.56c-2.21-3.79-7.55-3.44-10.11-6.83-1.6-2.11-1.23-5,0-7.18,1.51-2.58,4.24-4,7-4.78,1.23-.36,2.48-.62,3.74-.86,1.83-.35,3.9-.89,5.66,0,2.47,1.22,3.91,4.39,5.07,6.72a44.88,44.88,0,0,1,3.15,8.24,12.86,12.86,0,0,1,.43,6.95,4,4,0,0,1-3.72,3.08,29.83,29.83,0,0,0-4.2.56,18,18,0,0,0-7.49,4c-.3.27.28.34.45.26,5-2.43,7.59-8.31,6.71-13.72a11.49,11.49,0,0,0-1.32-3.82c-.82-1.46-2.35-2.48-3-4-1.08-2.44,1.43-4.36,3.17-5.58a8.26,8.26,0,0,0,3.33-3.5c.14-.35-.58-.29-.69,0Z"/></g><g class="cls-1"><path class="cls-2" d="M446.08,361.11c1.17-.55,2.61-1.23,3.86-.49a3,3,0,0,1,1.21,1.58,4.21,4.21,0,0,1-.8,4.14c-1.86,2.22-9.6,5.55-10.85,1.29-.53-1.79,1.26-3.2,2.93-3.06a2.47,2.47,0,0,1,1.2.39c.19.13.38.45.58.54.41.18,1-.06,1.45-.14,2.22-.41,5.38-2.09,4.19-4.86a.26.26,0,0,0-.24-.15,6,6,0,0,0-2.42.57c-1.31.57-2.83,1.7-4,.32-.58-.66-1-1.32-1.91-1.4a3.48,3.48,0,0,0-2.45,1,16.26,16.26,0,0,0-4.07,6.21,7.62,7.62,0,0,0,0,6.24c2.27,4.4,8,2.68,11.65,1.37,2.84-1,5.78-1.92,8.54-3.17a9.09,9.09,0,0,0,4.74-4.1,7.86,7.86,0,0,0-2.77-9.38,7.23,7.23,0,0,0-5.56-.89,13.09,13.09,0,0,0-3.58,1.38c-1,.53-3.74,3-4.6,1.62-.52-.82-.37-2-.73-2.88a5.19,5.19,0,0,0-1.59-2.14,7.1,7.1,0,0,0-5.36-1.52c-4.34.53-7.06,4.85-7.74,8.83-.57,3.39,0,6.9.5,10.25.35,2.22,1.06,4.31,3.24,5.31,3.71,1.7,9.83-.68,12.38,3.2.12.2.51.08.63-.06a3.14,3.14,0,0,1,2.8-1.12,4.73,4.73,0,0,1,2.44,1.45,3.25,3.25,0,0,0,3,.71,25.7,25.7,0,0,0,8.59-3.94c4.53-3,9.74-7.94,8.69-13.94a10.64,10.64,0,0,0-3.74-6.33c-2.1-1.73-4.39-2.12-7-2.28-1.47-.08-3.24-.18-4.22-1.46-.85-1.11-.74-2.69-1.46-3.89a7,7,0,0,0-5.34-3.07c-6.52-.72-10.45,5.31-13,10.38-.17.35.56.32.69.06,2.42-4.77,6.14-10.83,12.37-9.91a6,6,0,0,1,5.24,4.42,4.87,4.87,0,0,0,1.33,2.81,5.26,5.26,0,0,0,2.78,1c2.62.35,5,.15,7.3,1.7a10.41,10.41,0,0,1,4.32,6.4c1.29,6.13-4.26,11.17-8.92,14.12a29.52,29.52,0,0,1-4.78,2.45,14.12,14.12,0,0,1-2.88,1c-1.55.24-2.06-.47-3.1-1.31a4.11,4.11,0,0,0-5.65.57l.63-.07c-2.57-3.91-8.38-1.77-12.13-3.15-3.29-1.21-3.43-5-3.82-8-.48-3.63-.66-7.5,1-10.87,1.41-2.88,4.22-5.34,7.62-4.79a6.27,6.27,0,0,1,3.59,1.87c1,1.06,1.08,2.23,1.38,3.56.21.9.66,1.69,1.69,1.69,1.18,0,2.27-1.14,3.2-1.72,2.89-1.83,6.78-3.16,9.74-.75a7.77,7.77,0,0,1,2.7,6.74c-.39,3.31-3.27,5-6.12,6.13a89.9,89.9,0,0,1-10.15,3.58c-3.2.82-7.06.57-8.17-3.13-1-3.41,1-6.65,2.84-9.34a6.77,6.77,0,0,1,1.91-2c1.59-1,2.07.47,3,1.25a2.46,2.46,0,0,0,2.21.38c1.18-.29,2.21-1.21,3.41-1.39s1,1.06.6,1.85a4.09,4.09,0,0,1-3,2,1.8,1.8,0,0,1-1.85-.24,3.2,3.2,0,0,0-1-.42,4.11,4.11,0,0,0-2.71.38,2.79,2.79,0,0,0-.3,5c2.51,1.6,6.59-.06,8.89-1.43,2.13-1.27,3.73-3.53,2.83-6.08-1-2.85-3.89-2.33-6.1-1.29-.45.21,0,.56.31.39Z"/></g><g class="cls-1"><path class="cls-2" d="M429.6,357.54a5.74,5.74,0,0,0-5.55.69c-2.16,1.45-3.15,4-3.83,6.37-1.49,5.3-3.29,11.86.43,16.67a7.47,7.47,0,0,0,5.5,3c1.81.09,3.48-.15,5.12.78a14,14,0,0,0,3.08,1.67,3.19,3.19,0,0,0,2-.08,4.85,4.85,0,0,0,1.08-.63,5.49,5.49,0,0,1,1.11-.82,4.35,4.35,0,0,1,2.68.23c2.73,1,5.26,2.59,8.2,2.94,2.19.26,4.79-.15,6.34-1.86s1.79-4.34.11-5.93c-.16-.15-.84.12-.68.26a4.11,4.11,0,0,1,.11,5.46c-1.8,2.29-5.24,2-7.71,1.21s-4.56-2.28-7-2.77c-1.65-.33-2.43.4-3.73,1.21-2.47,1.53-4.38-1.42-6.7-1.9a16.57,16.57,0,0,0-3.23-.11,6.54,6.54,0,0,1-3.71-1.16c-4.05-2.8-4.45-8.06-3.65-12.49a41.66,41.66,0,0,1,2.12-8c1.14-2.86,3.95-6,7.34-4.43.18.08.85-.2.59-.32Z"/></g><g class="cls-1"><path class="cls-2" d="M473.69,396c.76-5.94-2-11.8-6.44-15.68-4.79-4.18-11.14-6-17.36-6.59-.1,0-.71.1-.57.3,1.91,2.66,5.91,1.62,8,3.86,1.79,1.91-.38,4.55-1.25,6.36a30,30,0,0,0-2.44,7.49c-.59,3.23-1,8.63,3.27,9.43,2.32.44,4.95-.19,7.27-.41l4.08-.39a34,34,0,0,0,3.64-.37c2.6-.58.13-2.91-.85-3.8l-7.26-6.61c-.11-.11-.79.07-.7.23,1.69,3,3.58,6.32,6.8,7.84a7.71,7.71,0,0,0,7.27-.31c3.24-2.13,2.08-6.31,2.57-9.55a17.27,17.27,0,0,1,5.66-9.8c3.67-3.38,8.33-5.45,12.83-7.47h-.57c-1.94,3.42-1.38,7.39-1.15,11.14a19.1,19.1,0,0,1-.38,6.4,15.09,15.09,0,0,1-3.64,5.8,76.46,76.46,0,0,1-10.42,9.77c-1.95,1.51-5,3.42-7.07,1a2.29,2.29,0,0,1-.6-1.35c.08-.48.76-.83,1.1-1.09.86-.66,1.69-1.34,2.51-2.05a60.58,60.58,0,0,0,10-11.09c.17-.25-.48-.09-.55-.06a36.25,36.25,0,0,0-7.83,4.56A13.84,13.84,0,0,0,475,401a8.57,8.57,0,0,1-2.46,4.33A10.86,10.86,0,0,1,468,407.6c-3.19.81-6.48.59-9.74.83s-6.37.89-8.85,3c-.21.17.08.21.22.18q12.11-2,24.14-4.47l-.29-.1c-2.48,6.61-8.51,11.23-15.19,13.1-8.32,2.32-17.19.44-25.1-2.48l-.17.26c6-2.34,10.81-6.66,16-10.31,5.77-4,13.21-7.49,20.23-4.63.18.07.83-.21.59-.31-6.2-2.52-13.06-.27-18.52,3-6.34,3.8-11.59,9.31-18.58,12-.07,0-.36.18-.16.26,8.24,3,17.48,4.88,26.11,2.34,6.78-2,12.95-6.63,15.48-13.39.06-.13-.25-.1-.29-.09q-12,2.43-24.15,4.47l.22.18c5.13-4.32,12.58-2,18.6-3.73a10.36,10.36,0,0,0,5.93-3.84c1-1.43,1.22-3.12,1.76-4.72a11.35,11.35,0,0,1,2.45-4.1c2.5-2.71,5.92-4.36,9.21-5.9l-.55-.05a59.62,59.62,0,0,1-10.57,11.58,22.58,22.58,0,0,0-2.85,2.25c-.44.52-.2,1.16.21,1.74a4.06,4.06,0,0,0,4.26,1.34c2.11-.47,3.84-2,5.47-3.31q2.91-2.36,5.58-5c3.42-3.36,7.34-7,7.81-12s-1.54-10.61,1.13-15.32c.11-.19-.53,0-.57,0-6.22,2.79-12.84,5.85-16.59,11.84a16.5,16.5,0,0,0-2.36,9.14c0,1.87-.12,3.88-1.49,5.3a5.74,5.74,0,0,1-5.52,1.18c-3.93-1-6.17-4.95-8-8.23l-.7.23,5.62,5.12c.9.82,1.87,1.6,2.72,2.48.26.28,1,1,.91,1.43s-1.28.87-1.65,1-.65.06-1,.09l-7.68.74c-2.23.21-5.09.9-6.78-1-2.62-2.91-1.06-8.43,0-11.66a39.34,39.34,0,0,1,2.76-6.18c.69-1.35,1.15-3,0-4.19-2.12-2.25-6.11-1.22-8-3.87l-.57.29c6.15.56,12.41,2.39,17.14,6.52,4.38,3.84,7.15,9.65,6.4,15.53,0,.22.69.08.72-.11Z"/></g><g class="cls-1"><path class="cls-2" d="M453.21,546.31c-4-1.42-9.15-.25-11.44,3.58-.09.14.07.25.2.25l7,.12c1.35,0,3.25.36,4.49-.37s.64-2.13,0-3.14a9,9,0,0,0-3.74-3.84,4.68,4.68,0,0,0-3.84-.17,5.34,5.34,0,0,0-1.5,1.13,4.25,4.25,0,0,1-1.29,1,3.43,3.43,0,0,1-2.38-.16c-1.66-.61-5.09-2.16-3.86-4.45s4.61-1.52,6.68-1.31c4.12.43,8.57.87,12.38-1.11l-.48,0,3.32,5.64.55-.37A41.29,41.29,0,0,0,448.29,542a39.8,39.8,0,0,0-5.55.64c-1.32.26-3,.45-3.92,1.54a10.11,10.11,0,0,0-1.8,4.2,5.74,5.74,0,0,0,.58,4.08,4.87,4.87,0,0,0,3.47,2.31c1.81.34,3.58.68,5.37,1.11,2.24.54,6.5.63,6.77-2.57,0-.33-.7-.21-.73.08-.17,2.09-2.58,2.54-4.29,2.32s-3.3-.88-5-1.14-3.64-.44-4.77-2.14a5.71,5.71,0,0,1-.48-4.89,14.52,14.52,0,0,1,1-2.45,3.48,3.48,0,0,1,2.66-1.76,35.62,35.62,0,0,1,5.53-.81,40,40,0,0,1,11.79,1c.19,0,.72-.09.55-.37l-3.32-5.64c-.09-.13-.38-.08-.49,0-3.69,1.92-8,1.4-12,1-2.35-.24-7.12-.9-7.7,2.49-.25,1.47,1,2.49,2.16,3.14s2.82,1.55,4.33,1.39,2.15-1.27,3.24-2.08c2.18-1.59,4.84.34,6.17,2.11a8.48,8.48,0,0,1,1.6,2.75c.28,1.13-.87,1.5-1.76,1.52-.59,0-1.19,0-1.78,0l-7.69-.12.21.25c2.1-3.5,6.65-4.47,10.33-3.18.27.09.85-.29.43-.44Z"/></g><g class="cls-1"><path class="cls-2" d="M455.67,549.3a4.36,4.36,0,0,1,.54-4.24,4.92,4.92,0,0,1,1.92-1.61c.69-.32,2.52-.91,2.81.14.38,1.4-.5,3.19-1.3,4.28a15.57,15.57,0,0,1-3.27,3.11c-2.36,1.76-5,3.11-6.89,5.41s-2.83,5-1.21,7.66c.12.21.57,0,.69-.1a27,27,0,0,1,9.05-6.46,30,30,0,0,1,5.31-1.73c1.48-.33,3.2-.35,4.54-1.13,2.19-1.29,1.38-4-.18-5.5-2.32-2.17-6-1.76-8.84-1.41l.08.29a11.41,11.41,0,0,0,5.14-3.73,10.2,10.2,0,0,0,1.45-2.7c.28-.77.68-3.77,2-3.18l.58-.32a54.51,54.51,0,0,1-21.07-10.37c-.47-.38-2.11-1.43-2-2,.18-1,2.23-1.2,3.05-1.22a14.21,14.21,0,0,1,5.54,1.29c3.88,1.61,7.48,4,11.12,6.07a18.59,18.59,0,0,1,4.82,3.23c.51.56,1.22,1.51,1,2.35s-1.44,1.23-2.16,1.23a12,12,0,0,1-1.69-.12,26.34,26.34,0,0,1-9.69-3.88c-5.34-3.16-10.93-7.59-17.43-7.69-3,0-6.18,1-7.16,4.17a51.39,51.39,0,0,0-1.24,7l-1.27,7.72c0,.11.14.12.21.12,5,.19,6.65-5,8.85-8.54a11.43,11.43,0,0,1,2.44-2.92c1.24-1,4-1.91,4.87,0,.7,1.57-1.21,4.06-2.11,5.24a17.63,17.63,0,0,1-3.71,3.61,20,20,0,0,1-12.69,3.67c-.19,0-.5,0-.59.23-1.51,3.18,1.77,6.27,3.77,8.35a56.94,56.94,0,0,1,4,4.73,20.4,20.4,0,0,0,4.17,4.38c2.23,1.59,5.65,2.8,8.18,1.14,2.06-1.36,2.61-4.45.52-6-.15-.11-.84,0-.68.27a7.71,7.71,0,0,1-1.64,10.57c-4.48,3.52-10,0-13.45-3.27-4.22-4.08-7.91-8.8-11.78-13.22-1.75-2-4-4.23-4.42-7s1.62-4.21,3.92-5c1.9-.64,4-1,5.66-2.18,1.17-.8,1.95-2,3.08-2.86s3.66-.93,4.21.85l.65-.26c-2.59-.76-5,.23-7.15,1.71-2.92,2-6.87,6-10.6,3.26-2.59-1.92-2-5.54-1.55-8.28.61-3.47,1.42-7.35,4.18-9.79a8.15,8.15,0,0,1,5.21-2.11c2.17,0,3.84,1.11,5.65,2.15s4,1.78,6,.45a1.9,1.9,0,0,0,1-1.9c-.27-1.39-2-2.06-2.82-3a6.31,6.31,0,0,1-.8-6.78c3.82-8.7,15.26-3.62,20.79.18l.3-.28a62.77,62.77,0,0,0-17.73,6.92c-.35.2.05.29.26.23,8.07-2,16.78-4.17,25-1.48a22.22,22.22,0,0,1,8.41,4.9,15.31,15.31,0,0,1,2.92,3.77,7.2,7.2,0,0,1,.86,2c.17,1-1.14,1.65-1.88,2.26,0,0-.1.08-.08.13a6.74,6.74,0,0,1-5.11,9.22c-.32,0-.63.39-.12.34a9.69,9.69,0,0,0,5.59-2.93c1.8-1.69,3.52-4,6-4.71,3.57-1,6.67,2,8.26,4.83,1.74,3.13,2.8,7.31,1.45,10.76a7,7,0,0,1-4.61,4.12,5.57,5.57,0,0,1-3.54-.07c-1.06-.51-2-2.11-2.74-3-.11-.14-.75,0-.7.23a66.65,66.65,0,0,0,3.92,10.68l.65-.26a8.36,8.36,0,0,0-6.89,0,6.3,6.3,0,0,0-2.64,2.15c-1.06,1.55-1.46,3.12-3.37,3.91a19,19,0,0,1-5.17,1.18,7,7,0,0,1-5.56-1.43c-2.19-2-2.32-5.27-2.26-8l-.66.25c6.8,2.34,14-1.35,17.33-7.4a34.17,34.17,0,0,0,3.49-11.57c.54-3.58.45-7.47-2.23-10.23s-6.71-3.63-9-6.68c-1-1.3-1.92-3.31-1.23-4.94,1-2.4,4.67-1.8,6.78-1.72,4.39.17,9.21.85,12.31,4.3a7.5,7.5,0,0,1,2.12,4.9c0,2-1.38,3.43-2.22,5.09s-.74,3.37.91,4.52,3.48,1.79,4.79,3.45c2.44,3.08,2.82,7.3,3,11.08,0,.21.63,0,.69-.11a18.93,18.93,0,0,1,15.39-8.29c.1,0,.59-.09.52-.27a15.47,15.47,0,0,0-6.24-7.47c-.39-.24-1.68-.7-1.8-1.09s.46-1.28.48-1.76a8.12,8.12,0,0,0-1.72-4.56c-3.23-4.93-7.89-10.78-14.46-10.18-2.45.23-5,1.37-5.81,3.87l.7-.19c-6.06-5-7.08-13.3-11.74-19.29a13.54,13.54,0,0,0-4-3.5c-1.25-.7-2.22-1.16-3.57-.48-2.64,1.33-2.49,5.25-3.51,7.64-.94,2.21-2.77,2.76-4.85,3.55-1.33.51-2.9,1.21-2.74,2.87l.73-.19c-.55-5.49-8.7-6.88-12.52-4.09-2.76,2-3.82,5.43-3.88,8.72,0,2.62.31,7.55,3.85,7.64.24,0,.78-.34.29-.35-3.16-.09-3.43-5-3.42-7.3,0-3,.86-6.17,3.18-8.2,3.51-3.07,11.25-1.42,11.77,3.77,0,.19.75.05.73-.19-.19-1.94,2.22-2.41,3.63-2.93a6.5,6.5,0,0,0,3.22-2.08c1.69-2.3,1.24-5.57,3-7.83a1.89,1.89,0,0,1,2.33-.83,10.82,10.82,0,0,1,2.32,1.31,15,15,0,0,1,3.28,3.42c2,2.87,3.32,6.19,4.8,9.36,1.61,3.43,3.47,6.8,6.43,9.25a.57.57,0,0,0,.7-.19c.79-2.46,3.32-3.45,5.74-3.44a11.21,11.21,0,0,1,7.12,2.93,31.29,31.29,0,0,1,5,5.73c1.42,2,3.94,5.26,2,7.66-.05.07,0,.12,0,.15a15.58,15.58,0,0,1,8.2,8.46l.51-.27c-6.43.2-12.79,3.17-16.35,8.66l.69-.11c-.13-3.35-.46-6.92-2.17-9.89a9.61,9.61,0,0,0-3.39-3.46c-1.58-.94-4-1.72-3.67-4,.23-1.84,1.76-3.28,2.42-5a5.68,5.68,0,0,0-.29-4.51c-1.6-3.37-5-5.24-8.54-6a34.49,34.49,0,0,0-6.33-.64,13.55,13.55,0,0,0-5,.34c-3,1.08-2.63,4.31-1.13,6.54,2.17,3.24,6.3,4.22,9,6.83,3.24,3.1,2.95,7.62,2.22,11.68-.83,4.67-2.13,9.5-5.3,13.16a13.1,13.1,0,0,1-14,4c-.17-.06-.65,0-.66.26-.06,2.64.07,5.68,2,7.74,2.07,2.25,5.31,2.14,8.08,1.6,2.47-.47,5.26-1,6.66-3.29,1-1.68,1.69-3.18,3.65-4a7.26,7.26,0,0,1,5.69.25c.11.05.75,0,.65-.26a66.15,66.15,0,0,1-3.91-10.67l-.7.23L477,552.4a8.15,8.15,0,0,0,1.22,1.44,4.94,4.94,0,0,0,2.24.48,8.16,8.16,0,0,0,4.16-1c3.55-1.93,4.53-5.89,3.81-9.65s-2.66-7.73-6.09-9.48a7,7,0,0,0-7.47.93c-2.81,2.11-4.9,5.81-8.69,6.2l-.12.34a7.59,7.59,0,0,0,5.56-3.66,7,7,0,0,0,.95-3.61,16.57,16.57,0,0,0-.31-1.87c-.15-1,1.06-1.6,1.83-2.23a.14.14,0,0,0,.08-.13c-1.78-6.33-8.05-10.37-14.12-11.92-8-2-16.27,0-24,2l.26.23a61.84,61.84,0,0,1,17.37-6.78s.45-.18.3-.29c-5-3.41-12.51-7.15-18.46-3.89a8.56,8.56,0,0,0-4.21,5.57,6.38,6.38,0,0,0,2.58,6.58c.66.52,1.5,1.13,1.52,2.06,0,1.25-1.35,1.83-2.43,1.85-2,0-3.63-1.5-5.29-2.37a8.58,8.58,0,0,0-8.07.16c-3,1.59-4.59,4.55-5.44,7.74-.77,2.86-1.78,6.67-.81,9.61,1.09,3.27,4.61,3.82,7.5,2.77,4-1.47,7.28-6.74,12-5.35.12,0,.73,0,.65-.26-.55-1.78-3-2-4.45-1.35a9.06,9.06,0,0,0-2.78,2.3,9.63,9.63,0,0,1-4.2,2.43c-1.95.61-4.24,1-5.74,2.53-2,2-1.08,4.85.29,7,2,3.09,4.8,5.78,7.23,8.55s4.63,5.49,7.16,8c3.43,3.44,8.52,6.8,13.49,4.5,4.45-2.07,6.41-7.87,3.38-11.92l-.68.27c2.4,1.81,1.18,5.73-1.75,6.13-3.43.46-6.52-2.2-8.56-4.64-1-1.22-1.93-2.51-2.94-3.74s-2.07-2.24-3.11-3.36c-1.77-1.9-4.23-4.57-2.92-7.34l-.59.23a21.72,21.72,0,0,0,12.83-3.34,18.46,18.46,0,0,0,4.91-4.58c.93-1.28,2.93-4,1.74-5.52-.94-1.23-3-1.09-4.28-.58a8.61,8.61,0,0,0-3.54,3c-1.94,2.69-3,6.77-5.93,8.56a4.09,4.09,0,0,1-1.43.55,2.11,2.11,0,0,1-.66.06h-.26a4.11,4.11,0,0,1,.1-.85c.23-1.61.53-3.21.79-4.82l.79-4.83a23.2,23.2,0,0,1,.9-4.46c2.25-6,11-2.66,14.9-.6,4.36,2.28,8.29,5.35,12.83,7.31a18.63,18.63,0,0,0,6.64,1.64c1.34,0,3.55-.2,3.66-2,.17-2.49-3.53-4.14-5.25-5.12-3-1.69-5.91-3.43-8.91-5.06-3.72-2-9.51-4.5-13.15-1a.08.08,0,0,0,0,.12,54.71,54.71,0,0,0,23.54,12.46c.15,0,.87-.19.58-.32-1.94-.84-2.73,1.53-3.11,2.93a10.22,10.22,0,0,1-6.36,6.76c-.32.12-.24.33.08.29,3.21-.39,7.53-.7,9.3,2.68a2.94,2.94,0,0,1-.08,3.31c-1.11,1.25-3.75,1.17-5.31,1.55A28.68,28.68,0,0,0,448.3,564l.69-.1c-3.07-5,2.67-9.23,6.3-11.65,3.15-2.11,7-5,6.29-9.33,0,0-.09-.07-.13-.07-3.76-.75-8.08,2.67-6.5,6.68.08.22.8,0,.72-.19Z"/></g><g class="cls-1"><path class="cls-2" d="M419.66,555.51c-1.52,0-4,.73-4.48,2.46-.21.79.77,1.87,1.23,2.52a25.53,25.53,0,0,0,2.63,3.15,26.58,26.58,0,0,0,6.4,4.79c2.14,1.16,4.55,2.05,6.35,3.76,2,1.92,1.71,4.11,1.57,6.66-.11,1.95.42,3.69,2.52,4.2a13.63,13.63,0,0,0,3.88.12q2.14-.1,4.26-.39a40.5,40.5,0,0,0,8.56-2c2.11-.78,3.82-2.33,2.22-4.57a43.65,43.65,0,0,0-3.41-3.8l-3.95-4.34-.57.32c3.66.9,5.84,5,9.75,5.23,2,.11,4.68-1.72,3.31-3.91-.11-.17-.76,0-.7.23a9,9,0,0,1-7.15,11.11c-.15,0-.42.1-.42.29,0,1.69,2.16,1.92,3.44,1.78,2.17-.23,5.06-3,6.91-.89.13.14.59,0,.67-.14A60.4,60.4,0,0,0,469,564.57c.05-.26-.65-.11-.72.1L464,577.31l-2.12,6.32c-.41,1.23-1.27,3,.31,3.81,2.24,1.08,5.61-1.09,7.41-2.24,2.74-1.74,5.14-4,7.76-5.9A23.2,23.2,0,0,1,487.86,575c3.46-.55,7-.7,10.4-1.43,2.85-.6,6-1.64,8-3.85a5,5,0,0,0,.18-6.91c-2-2.16-5.18-3.09-8-3.25-4.85-.26-9.57,1.73-14.37.22l-.44.36,16.1.43c.12,0,.64-.13.48-.33l-8-10.07-.63.3a47.72,47.72,0,0,1,14.35,10.26c.15.16.73,0,.7-.23a28.59,28.59,0,0,0-8.7-17.36c-.17-.17-.85.1-.68.27a28.44,28.44,0,0,1,8.66,17.28l.7-.23a48,48,0,0,0-14.45-10.32c-.14-.07-.81.07-.63.3l8,10.07.48-.33-16.1-.42c-.1,0-.74.26-.43.36,6.43,2,13.16-1.88,19.45,1,2.42,1.11,4.76,3.37,4,6.28-.9,3.4-4.94,5-8,5.68-5.94,1.43-12.34.86-17.95,3.57s-9.36,7.78-15,10.08c-.93.38-2.18.88-3.17.41-1.37-.67-.59-2.3-.24-3.34l2.19-6.56L469,564.57l-.72.1A60.08,60.08,0,0,1,462,582.09l.67-.14c-1.2-1.38-3.14-.89-4.62-.28a8.3,8.3,0,0,1-3.33,1.1c-1.07,0-2.35-.38-2.34-1.63l-.42.29c5.43-.92,9.5-6.15,8-11.68l-.7.23c1,1.53-.42,3.16-2,3.21a7.16,7.16,0,0,1-4.35-1.82c-1.77-1.32-3.35-2.81-5.55-3.35-.11,0-.75.12-.56.32l5.44,6a11.44,11.44,0,0,1,2.38,3c.65,1.57-.63,2.56-1.95,3.12a32.94,32.94,0,0,1-7.59,1.88,31,31,0,0,1-8,.52c-2.83-.32-3.12-2.51-2.92-4.86.14-1.65.29-3.29-.62-4.76-2-3.22-6.51-4.29-9.52-6.28a26.53,26.53,0,0,1-5.35-4.68,23.48,23.48,0,0,1-2.21-3c-.49-.77-.67-1.42,0-2.15a3.86,3.86,0,0,1,2.95-1.21c.26,0,.77-.38.29-.38Z"/></g><g class="cls-1"><path class="cls-2" d="M478.64,671.1c.53-2.63,4.18-1.72,4.64.5a4,4,0,0,1-.72,3,3,3,0,0,1-2.21,1.38c-1,.22-1.23.38-1.88-.38a3.4,3.4,0,0,1-.59-1.11c-.3-.9-.54-2.36.21-3.12,1-1,3.18-.71,4.52-.86a9.71,9.71,0,0,0,5.41-1.9,5.06,5.06,0,0,0,1.88-4.32,3.72,3.72,0,0,0-3.57-3,8.69,8.69,0,0,0-4.94,1.23c-2.69,1.42-5.1,2.87-8.23,3.14-2.77.24-5.7-.94-8.42-.18-1.71.47-3.3,1.79-3.21,3.69,0,0,0,.05.07.05,5.83,2.28,13.11,4.63,18.53.07.25-.2-.2-.2-.32-.16a22.2,22.2,0,0,0-8.29,4.33c-.16.13,0,.19.14.19a6.53,6.53,0,0,1,6.08,8.22c-.55,2-1.49,3.94-1.89,6a21.73,21.73,0,0,0-.22,6.49l.7-.23c-4.77-2.82-9.78-5.79-12.82-10.58a14.65,14.65,0,0,1-2.38-7.21c-.11-2.86.53-5.59-.08-8.43-.43-2,2.28-1.52,3.47-1.62a27.82,27.82,0,0,0,3.4-.48A29.42,29.42,0,0,0,480.44,660c1.63-1.32,3.72-3,4.64-4.92,1.1-2.28-1.93-3.34-3.68-3.42a7,7,0,0,0-5.29,2l.69-.07.79-3c.05-.17-.34-.1-.39-.08a25.88,25.88,0,0,0-15.07,10.93,24.24,24.24,0,0,0-2.24,4.32,12.57,12.57,0,0,0-1.22,5,9.54,9.54,0,0,0,.78,2.82c.4,1.13.79,2.25,1.16,3.39.68,2.11,1.3,4.25,1.86,6.4s1.16,4.59,1.54,6.91c.33,2.07.4,4.37-1.14,6l.63-.17a11.53,11.53,0,0,1-7.54-9.33,16.23,16.23,0,0,1,.7-7.54c.71-2.19,1.92-4.17,2.72-6.33.66-1.78,1.11-3.87.1-5.61-.49-.85-1.39-1.43-1.74-2.35a3.61,3.61,0,0,1,.83-3.48c1.27-1.66,3.28-2.42,4.84-3.74a5.08,5.08,0,0,0,1.86-4.68,4.89,4.89,0,0,1,.81-3.55,4.37,4.37,0,0,1,3.79-1.8c1.11.11.46,1.21.24,1.94l-.54,1.84-1.36,4.61c-.06.18.66.09.72-.12l2.44-8.29s0-.08-.06-.1c-2.74-.84-6.19.88-6.75,3.81a30.67,30.67,0,0,0,0,3.18,4.5,4.5,0,0,1-1.76,3.12c-1.59,1.35-3.59,2.13-4.91,3.81-1.14,1.46-1.48,3.13-.24,4.64a5.88,5.88,0,0,1,1.63,2.86,7.56,7.56,0,0,1-.5,3.64c-.76,2.24-2,4.26-2.78,6.5a17,17,0,0,0-.89,7,11.84,11.84,0,0,0,7.79,10.31.7.7,0,0,0,.63-.17c2.21-2.33,1.3-5.86.69-8.66a113,113,0,0,0-3.42-12.39c-.68-2-1.67-3.85-1.3-6a20.12,20.12,0,0,1,1.59-4.75,25.34,25.34,0,0,1,5.74-7.91,24.19,24.19,0,0,1,10.43-5.79l-.4-.09-.79,3c-.06.25.62,0,.69-.08,1.76-1.74,5.65-2.55,7.47-.34,1.56,1.89-2.63,5.19-3.91,6.26a27.84,27.84,0,0,1-13.25,6.17,26.38,26.38,0,0,1-3.44.35,9,9,0,0,0-2.37.16c-1.86.58-.65,2.9-.61,4.3.08,2.5-.5,5-.12,7.48a15.52,15.52,0,0,0,2.58,6.29c3.08,4.55,7.9,7.41,12.53,10.14.14.08.73,0,.7-.23a21.7,21.7,0,0,1,1.22-9.94c.95-2.56,1.79-5,.31-7.5a7,7,0,0,0-5-3.4c-.88-.11-.45-.16.16-.63a20.36,20.36,0,0,1,6.82-3.33l-.32-.16c-3.21,2.7-7.52,2.72-11.4,1.73a44,44,0,0,1-4.71-1.56c-.85-.33-1.41-.76-1-1.72.74-1.69,2.64-2.16,4.33-2.08s3.15.44,4.75.44a16.61,16.61,0,0,0,4.54-.65,18.08,18.08,0,0,0,3.75-1.62c1.69-.94,3.42-2.16,5.42-2.19,4-.06,5,4.08,2.52,6.68-1.48,1.55-3.77,1.86-5.8,2a11,11,0,0,0-3.62.46c-2,.9-1.87,4.14-.33,5.44s4-.06,5-1.32c1.4-1.73,1.56-4.81-1-5.54-1.56-.45-3.76.15-4.12,1.92,0,.21.68.09.72-.11Z"/></g><g class="cls-1"><path class="cls-2" d="M462.57,683.71a67.79,67.79,0,0,1-14.94-4.92,70.11,70.11,0,0,1-6.68-3.57c-1.71-1-3.61-2.78-5.76-2.55a3.54,3.54,0,0,0-2.95,2.25c-.81,2,.14,4.09,1.17,5.84,1.35,2.29,2.78,4.54,4.18,6.81.83,1.35,1.5,2.49,3.26,2,1.46-.42,2.76-1.19,4.28-1.5a14.76,14.76,0,0,1,4.4-.2A15.42,15.42,0,0,1,457,690.7l.58-.26a11.79,11.79,0,0,0-11.08,8.45l.65-.2a10.42,10.42,0,0,1-8.12-11.35c0-.12-.53,0-.57.06-2.77,1.35-2.33,5.08-.59,7.14,1.28,1.53,3.24,2.38,5,3.26a14.39,14.39,0,0,1,5.2,4c2.47,3.23,3.47,7.45,4.33,11.35a13.36,13.36,0,0,1,.27,6.28,6.15,6.15,0,0,1-4.28,4.18c-2.79,1-6.72,1.24-8.07,4.34l.7-.19c-5-4.34-9.28-10.26-9.93-17.06-.58-6.16,2.06-12.81,7.58-16l-.63.1c.37,3.47,2.65,6.14,3.75,9.36.89,2.61.95,6.2-1.65,7.85l.63-.09a31,31,0,0,1-4.79-19.8s-.12,0-.13,0c-3.57-.28-6.95,3.37-5.59,6.92l.43-.22a23,23,0,0,1-18.58-5,20.85,20.85,0,0,1-1.63-1.49c-.26-.26-.51-.53-.76-.81a3.32,3.32,0,0,1-.58-.67l-.23-.29,1.17-.77c1.25-.36,2.91.23,4.22.2a5.17,5.17,0,0,0,2.35-.52c1.16-.62,1.48-1.83,2.12-2.9,2.15-3.61,7.08-1.87,10.06-.52a23.86,23.86,0,0,0,4.83,1.82c.66.14,1.5,0,2.12.2.35.11.31-.13,0,.17a5.19,5.19,0,0,1-1.3.79,27.93,27.93,0,0,1-5.93,2.53,20.94,20.94,0,0,0-2.58.65c.82-.45,1.86-.78,2.73-1.17l5.53-2.47c1-.47,2.43-.93,2.89-2.09.67-1.7-.89-3.44-1.87-4.64a26.61,26.61,0,0,1-3.36-4.81c-1.65-3.22-2-7.53.89-10.17,0,0,.06-.07,0-.09-4.5-2-8.26-5.16-11.87-8.45-1.72-1.57-3.9-3.24-4.54-5.59s.84-4.18,2.33-5.75c1.17-1.23,2.49-2.39,2.92-4.1a4.51,4.51,0,0,0-.58-3.93,2.54,2.54,0,0,0-2.86-.54,10.12,10.12,0,0,0-2.16,1.25,23.46,23.46,0,0,1-3.53,1.89,23.19,23.19,0,0,1-9,1.9c-2.27,0-4.56-.32-6.81.21-3.28.77-6.12,4.12-3.48,7.22,4.83,5.66,15.35,6.71,21.35,2.43,1.66-1.19,3.26-3,3.28-5.19,0-2.52-2.45-3.8-2.91-6.11a2.17,2.17,0,0,1,.28-1.53c.26-.45,1.11-1.43,1.68-.89s-1.08,2.83-1.47,3.35a15.36,15.36,0,0,1-6.65,5l.49,0c.64-4.54,6.6-5.08,9.19-8.12,1.13-1.32,2.18-3.37,1.17-5a4.27,4.27,0,0,0-2.22-1.6,10.13,10.13,0,0,1-3-1.64c-3.25-2.81-3.94-7.79-2.78-11.73,1.46-4.95,5.1-8.86,8.41-12.67l13.56-15.64-.69.19c3,1.1,3.92,4.54,4,7.44.08,3.6-1,7.6,1.17,10.81,1,1.46,2.45,2.55,3.3,4.11a7.32,7.32,0,0,1,.49,5.34c-1,3.82-3.79,6.88-6.42,9.67A104.27,104.27,0,0,1,425,638.86l.69-.1A26.76,26.76,0,0,0,427,621.55a24.7,24.7,0,0,0-.84-2.65c-.15-.42-.59-1.07-.31-1.51s1.52-.76,2-.91a5.81,5.81,0,0,1,2.48-.36c.7.14.58.45.43,1.17l-.73,3.37-1.44,6.73c-.23,1-.46,2.08-.67,3.13a3.32,3.32,0,0,0,.11,2.46,2.87,2.87,0,0,0,2.64,1.11,14.12,14.12,0,0,0,3.9-.81,41.15,41.15,0,0,1,7-1.42,42.52,42.52,0,0,1,13.64.68c1.85.4,4.06.94,5.08,2.7a3.31,3.31,0,0,1,.41,2.4c-.2.88-.45.91-1.36,1.35a5.68,5.68,0,0,1-2.76.53c-4.53.08-9.07.14-13.59-.14-3.82-.23-7.71-1.14-11.55-.76-2.54.26-5.16,1.17-6.22,3.69l.71-.13.39-2.07a0,0,0,0,0,0-.05c-6.11-3.07-12.17-6.27-18.37-9.14-5.57-2.57-11.47-4.63-17.68-4.43-.13,0-.55,0-.6.21-1.22,4.4,5.51,6,8.43,6.88L415.63,639c.12,0,.67-.06.66-.24a19.93,19.93,0,0,0-9.51-16.53,20.53,20.53,0,0,0-18.15-1.17s-.21.09-.13.16a17.25,17.25,0,0,1,4.45,6.26c.05.12.42,0,.49,0,1-.38,1.12-1.2,1-2.21a7.38,7.38,0,0,1,0-2.61,5.35,5.35,0,0,1,1.68-2.5c1.9-1.63,4.47-1.89,6.81-2.47a25.73,25.73,0,0,0,5.11-1.83c2.19-1,7.53-3.79,5.73-7a6.72,6.72,0,0,0-1.31-1.46,7.5,7.5,0,0,1-1.7-2.4,11.29,11.29,0,0,1-.73-4.92,47.5,47.5,0,0,1,2-10.36,31.93,31.93,0,0,1,3.72-8.85,16.14,16.14,0,0,1,3.26-3.73,12.84,12.84,0,0,1,1.95-1.32,6.48,6.48,0,0,1,1.51-.7,4.92,4.92,0,0,1,2,.14,2.72,2.72,0,0,1,.78.9c1.26,1.86,2.35,3.85,3.52,5.77a28.23,28.23,0,0,1,2.94,5.5c2.72,7.93-7.16,10.82-10.2,16.59l.72-.16v-14.2c0-.16-.66.08-.72.16-8.24,10.9-6.65,26.39-15.79,36.75l.66-.15c-3.56-1.69-7.33-3.43-11.37-3.2-2.57.16-5,1-7.58.61a42.73,42.73,0,0,1-6.44-2,102,102,0,0,0-13.64-3.55,28.53,28.53,0,0,0-9.61-.59c-2.87.44-5.69,1.7-6.88,4.52-.06.13.35,0,.38,0,10.62-3.14,22.5.13,30.7,7.41a31.19,31.19,0,0,1,5.49,6.37,11.58,11.58,0,0,1,1.83,3.26c.11.56,0,.69-.54,1a6.76,6.76,0,0,1-.67.29,17,17,0,0,1-3.19.95,19.39,19.39,0,0,1-16.64-4.63c-4.41-4.11-6.87-10.64-12.88-12.81-.18-.07-.75.21-.68.24l19.08,8.31.65-.26a72.86,72.86,0,0,1-22.73-5.9c-.09,0-.76.06-.7.22,2.24,6.43,9.58,8.61,14.42,12.6a14.81,14.81,0,0,1,5.67,10,9.93,9.93,0,0,1-5.27,9.72l.54-.08-10.29-9.78c-3.05-2.91-6.35-5.72-8.87-9.12-2.06-2.79-3.56-6.11-3.16-9.64.39-3.38,2.46-7.09,6.09-7.68l-.29,0c-3,7.7,4.61,13.52,10.17,17.2l.64-.26c-4.39-.79-6.34-5.25-7.33-9.14s-2-9-.41-13c1.76-4.47,6.6-4.57,10.33-6.48a6,6,0,0,0,3.25-3.56c.69-2.38-.46-4.84-1.55-6.9a46,46,0,0,1-3.76-8.38,33.4,33.4,0,0,1-1.37-9.37c0-.11-.46,0-.48,0-8.19,3.06-17.62,7.09-19.65,16.58-1.07,5-.27,10.76,1.32,15.61.67,2,1.86,4,4.05,4.59a4.28,4.28,0,0,0,3.84-.76,4.6,4.6,0,0,0,1.3-2.9c.22-1.57.28-3.19.4-4.77l.81-10.41c0-.08-.71,0-.72.2a44.7,44.7,0,0,1-7,20.4l.7-.19q-6.57-2.43-13.09-5c-2.9-1.12-6.19-2.9-9.28-1.43,0,0-.19.08-.16.14l2.25,3.75a27.2,27.2,0,0,1,2.37,4c.32.86-.23,1.24-.81,1.82s-.93.93-1.4,1.38q-1.49,1.46-3.06,2.82a82.66,82.66,0,0,1-13.49,9.55l.64-.09c.11-7.31,1.71-15.72,8.66-19.61a10.64,10.64,0,0,1,6.5-1.39c.38.05,1,0,1,.49,0,.21-.42.75-.52.9a10.85,10.85,0,0,1-1.6,2,11.74,11.74,0,0,1-10.34,3.28c-.16,0-.78.23-.6.27a13.16,13.16,0,0,0,13.93-6.87c0-.05,0-.06-.06-.07-4.69-1.17-9.63,1-12.76,4.51-4,4.51-4.9,10.89-5,16.7,0,.15.58-.06.64-.09a83.36,83.36,0,0,0,19.27-15.09.06.06,0,0,0,0-.06l-4-6.68c-.56-.93-1.57-1.73.67-1.92a5.05,5.05,0,0,1,1.54.24,28.06,28.06,0,0,1,3.67,1.3q7.1,2.76,14.23,5.39a.75.75,0,0,0,.7-.19,44.67,44.67,0,0,0,7-20.46l-.72.2c-.39,4.92-.59,9.89-1.17,14.79-.13,1.15-.44,2.82-1.61,3.41a3.81,3.81,0,0,1-4-.74c-1.68-1.4-2.27-3.71-2.75-5.75-1-4.42-1.72-9.12-.71-13.6a17.22,17.22,0,0,1,6.54-9.86c3.74-2.87,8.22-4.61,12.59-6.25l-.48,0a33.66,33.66,0,0,0,4.3,16.22c1.25,2.27,2.89,4.91,2.54,7.62-.34,2.56-2.42,3.93-4.66,4.76-3.41,1.28-7.31,2-8.94,5.71-1.72,3.88-.79,8.9.15,12.88s2.94,8.86,7.57,9.7c.1,0,.77-.17.64-.25-5.52-3.66-13.07-9.44-10.13-17.1,0-.11-.26-.06-.29,0-4.93.79-7.51,6-6.95,10.65.84,6.84,7.43,11.86,12.07,16.27l10.29,9.78c.1.1.46,0,.55-.08a10,10,0,0,0,5.53-7.85c.51-4-1.33-7.9-4-10.73-4.84-5.09-13.51-6.89-16-14l-.7.22a73.3,73.3,0,0,0,22.81,5.92c.11,0,.75-.21.64-.25l-19.09-8.31-.68.24c3.65,1.32,6.05,4.38,8.31,7.38s4.34,5.71,7.47,7.61a20.31,20.31,0,0,0,19.74.52s.1-.06.09-.1c-5.11-11.24-17-18.56-29.27-18.94a31.28,31.28,0,0,0-9.81,1.27l.38,0c2.82-6.66,12.88-4.07,18.18-2.91a102.6,102.6,0,0,1,11.93,3.38,28.83,28.83,0,0,0,5.38,1.57,14,14,0,0,0,4.56-.18,16.52,16.52,0,0,1,7.5.06,39,39,0,0,1,6.58,2.64.78.78,0,0,0,.67-.15c9.18-10.4,7.59-25.9,15.85-36.82l-.71.16V604c0,.14.67-.06.72-.16,2.68-5.09,10.9-7.66,10.7-14.17a12.85,12.85,0,0,0-2.21-6c-1.23-2.08-2.52-4.13-3.78-6.2-.77-1.26-1.48-3-3.22-2.91A8.57,8.57,0,0,0,420,576c-5.69,3.42-7.95,10.42-9.36,16.52-.77,3.35-1.69,7-1.16,10.43a7.86,7.86,0,0,0,2.09,4.39,5.74,5.74,0,0,1,1.73,2.16,3.37,3.37,0,0,1-1,3.18c-1.79,2-4.65,3.28-7.13,4.14s-4.91,1-7.24,2a6.94,6.94,0,0,0-3.87,3.31,4.48,4.48,0,0,0-.36,2.4c.07.75.5,2.45-.47,2.8l.49,0a17.39,17.39,0,0,0-2.77-4.56c-.27-.32-.55-.62-.83-.91-.57-.57-.76-.64,0-1.08a9.17,9.17,0,0,1,2.89-.73,19.4,19.4,0,0,1,22.61,19l.66-.23-16.06-5c-2.94-.91-11-2.47-9.72-7.18l-.6.2c6.76-.21,13.11,2.29,19.11,5.17,3,1.43,5.92,2.94,8.87,4.42l4.81,2.41a18.47,18.47,0,0,1,2.18,1.09c.61.4.72.49.71,1.21a8.73,8.73,0,0,1-.23,1.24c0,.15.65,0,.71-.13,2.3-5.46,10.95-2.92,15.37-2.6,3.56.27,7.12.31,10.68.28,1.68,0,3.36,0,5-.07a7.49,7.49,0,0,0,2.78-.47c2.07-.91,2.14-3.42.7-5-1.93-2.07-5.71-2.36-8.33-2.69a44.11,44.11,0,0,0-18.2,1.57c-1.41.43-3.56,1.14-4.87,0s-.33-3.76,0-5.28l2.58-12c0-.07-.07-.07-.12-.07A10.59,10.59,0,0,0,425,617.6s-.11.07-.09.11a26.77,26.77,0,0,1,.05,21.19c-.06.16.62,0,.69-.1a106.36,106.36,0,0,0,9.74-8.89c2.65-2.75,5.45-5.66,6.85-9.29a8.73,8.73,0,0,0,.58-4.94,9.53,9.53,0,0,0-2.72-4.36,9,9,0,0,1-2.51-5.25,42,42,0,0,1,.11-6c.12-3.19-.63-7.27-4-8.51a.78.78,0,0,0-.7.19l-12.11,14c-3.42,3.94-7.35,7.87-9.32,12.79-1.55,3.84-1.57,8.51,1,12,1.24,1.7,2.82,2.38,4.68,3.21,2.49,1.1,2.68,3.42,1.29,5.55-1.52,2.32-4,3.15-6.3,4.54-1.71,1-3.24,2.39-3.54,4.47,0,.11.47,0,.49,0a16.5,16.5,0,0,0,5.75-3.75c.71-.72,3.92-4.24,2.81-5-.95-.69-2.39.26-2.94,1-1.41,2,.83,3.9,1.79,5.55,1.56,2.69,0,5.48-2.21,7.21a14.1,14.1,0,0,1-9.39,2.41,17.42,17.42,0,0,1-8-2.52c-2.16-1.33-5-3.62-3.66-6.47,1.81-3.71,6.47-2.79,9.83-2.83a25.37,25.37,0,0,0,7.34-1.17,24.23,24.23,0,0,0,3.48-1.38c1.29-.62,2.43-1.47,3.67-2.17,2.77-1.56,3.82,1.39,3.43,3.61s-2.36,3.69-3.8,5.38c-1.59,1.87-2.25,4-.94,6.29s3.66,4,5.6,5.72a47.19,47.19,0,0,0,7,5.33,23,23,0,0,0,2.07,1.13c.28.14.93.26.93.69a6.39,6.39,0,0,0-.5.54,7,7,0,0,0-1.39,3.36c-.45,3,.79,5.87,2.49,8.3,1.31,1.9,6.05,6,3.11,8.23-1.4,1.08-3.46,1.66-5.08,2.38l-5.31,2.38c-.28.13-.06.2.14.16a30.15,30.15,0,0,0,11.54-4.62c.18-.12,0-.15-.11-.14-5.76.54-10.65-5.56-16.53-3a4.81,4.81,0,0,0-2.23,1.93c-.36.61-.58,1.31-1,1.89-.78,1.08-2,1.16-3.22,1.08-2-.13-4.08-.54-5.83.71a.08.08,0,0,0,0,.07,23.44,23.44,0,0,0,22.59,8.57s.48-.11.44-.22a4.92,4.92,0,0,1,1.44-5.39,4.85,4.85,0,0,1,.82-.61c.27-.15,1.54-.73,1.82-.47s.07,1.45.05,1.88a30.25,30.25,0,0,0,.09,3.81,30.88,30.88,0,0,0,4.84,14.09c.09.15.53,0,.64-.09,2.4-1.53,2.71-4.54,2.09-7.12-.87-3.63-3.61-6.5-4-10.3,0-.15-.57.06-.64.1-5.4,3.06-8.14,9.36-7.8,15.43.39,7.1,4.78,13.33,10,17.82.12.11.64,0,.7-.18,1.36-3.13,5.45-3.19,8.23-4.31,3.21-1.29,4.58-3.93,4.35-7.35a32.26,32.26,0,0,0-1.15-5.92,34.15,34.15,0,0,0-1.84-5.5,15.06,15.06,0,0,0-3-4.51,21.1,21.1,0,0,0-5.3-3.32c-1.95-1-3.91-2.19-4.71-4.35-.64-1.74-.6-4.17,1.31-5.09l-.57,0A10.5,10.5,0,0,0,446.57,699c.13,0,.61,0,.66-.2a10.86,10.86,0,0,1,9.89-8c.07,0,.72-.16.58-.26a15.93,15.93,0,0,0-10.42-2.92,16.19,16.19,0,0,0-4.8,1.1,11.06,11.06,0,0,1-1.18.51,2.77,2.77,0,0,1-1.93-.19,3.33,3.33,0,0,1-.47-.63c-.69-1-1.31-2.13-2-3.19a58.64,58.64,0,0,1-3.6-6,6.52,6.52,0,0,1-.69-2.87,4.52,4.52,0,0,1,.3-1.45,2.29,2.29,0,0,1,1.74-1.56,2.67,2.67,0,0,1,2.4.28,14.88,14.88,0,0,1,1.48.89c1,.64,2,1.27,3,1.86a66.6,66.6,0,0,0,5.94,3.06A69,69,0,0,0,462,684c.17,0,.78-.23.6-.27Z"/></g><g class="cls-1"><path class="cls-2" d="M285.81,659.71a16.09,16.09,0,0,0-12.33-2.21,27.58,27.58,0,0,0-6.38,2.71c-2.51,1.29-5.63,2.8-8.3,1-1.93-1.27-2.77-3.59-4.43-5.14a8.27,8.27,0,0,0-5.07-2.1c-4.26-.35-8.16,1.57-11.75,3.63-2.79,1.59-5.63,3.34-8.84,3.89-3.62.63-7.21-.51-10.63-1.59l-.43.35A22.55,22.55,0,0,1,235.84,671l.65-.27a217,217,0,0,0-25.55-9.5c-.17,0-.89.19-.59.33q5.53,2.56,10.84,5.56c3.47,2,7.3,3.93,10.29,6.6,5.92,5.3,2,13.53,2.12,20.24l.72-.2c-3.78-6.1-9.4-10-16.1-12.34a5.87,5.87,0,0,1-4.05-3.53,34.89,34.89,0,0,1-1-4.85c-.56-2.46-2.43-5.29-5.29-4.71-.1,0-.61.2-.34.34,3.46,1.83,7.19,3.78,9.49,7.08s2.81,7.5.35,10.92a35.17,35.17,0,0,1-4.08,4.38l-4.87,4.83c-1.7,1.67-3.35,3.41-5.1,5-1.15,1.07-2.87,2.21-4.4,1.13a7.11,7.11,0,0,1-1.71-2c-2.47-3.68-4.89-7.4-7-11.27-1-1.87-2-3.78-2.86-5.74s-2-4.18-1.78-6.3c.44-4.14,6.2-5.89,9.54-6.78a29.34,29.34,0,0,1,6.85-1,32.07,32.07,0,0,1,3.25.1,5.72,5.72,0,0,1,1.55.18c.62.26.37.68.16,1.26-1.35,3.78-4.75,6.26-6.62,9.73-1.54,2.87-2.3,6.82.31,9.31.16.16.54,0,.67-.14,1.94-2.06,1.89-4.85,1.66-7.5-.27-3.22-.76-6.51,1-9.43a8.87,8.87,0,0,1,9-4.37,9.61,9.61,0,0,1,7.16,5.94l.7-.23a15.93,15.93,0,0,0-8.54-6c-3.6-1-6.95-.43-10.51.4-3.83.89-9.06,1.33-11-3-.56-1.31-.95-2.67-2.29-3.4a5.33,5.33,0,0,0-3-.45c-3.17.31-6.78,2.39-9.85.69l-.51.35a195.24,195.24,0,0,0,24.28,1.7c.08,0,.61-.11.51-.28a11.31,11.31,0,0,0-7.94-5.52c-.2,0-.85.26-.45.36l6.07,1.41c.11,0,.68-.08.59-.28a23.39,23.39,0,0,0-10.74-11.17c-.14-.08-.81.11-.63.29a92.51,92.51,0,0,0,13.37,10.72c.14.09.67,0,.7-.19.51-5.46-5.18-8.8-9.06-11.44l-17.14-11.66c-.15-.1-.67,0-.7.19-1.31,11.27,7,22.48,18.13,24.58.1,0,.77-.15.56-.32a24,24,0,0,0-17.22-5.48c-3.83.32-7.55,1.83-11.28.14-3-1.36-5.29-4-7.41-6.43-.12-.14-.68,0-.7.19-1.35,14.36,9.74,28.57,24,30.91,5.51.91,13.72-.24,15.86-6.36,1.33-3.8-1-8.07.75-11.75,1.88-4,7.27-3.27,10.85-4.4,3.25-1,6.26-4,4.1-7.51-2.35-3.87-7.32-3.38-11.06-2.28-.15,0-.51.26-.18.34l7.21,1.79v-.27c-3.21,1.82-7.49-.43-8.31-3.88l-.22.22a17.3,17.3,0,0,1,10-.37c.09,0,.7-.1.59-.28-3.22-5.17-7.86-12-14.91-10.52a8.31,8.31,0,0,0-5.93,4.15c-1.46,3.09.7,6.61,3,8.7s5.6,3.5,8.11,1.23c0,0,.13-.13.06-.18-2.43-1.67-4.37-5.5-2.2-8.15a3.89,3.89,0,0,1,4.83-.94c1.36.82,1.38,2.5,2.3,3.66,1.74,2.22,5.15.79,7.46.79A11.68,11.68,0,0,1,223.11,658l.51-.24-8.61-.07-.11.34c3.11-1,6.41-2,8.85-4.27,2.1-1.94,3.53-4.83,2.79-7.71-1.29-5-8.09-7.24-12.61-8-2.28-.36-5.1-.24-6.33,2-.12.22.58,0,.65,0,2.75-2.19,2.62-6.21.86-9-2.16-3.43-6.54-4.46-10.32-4.67-6.54-.37-17.44.92-18.31,9.24-.35,3.33,1.17,7,4.72,7.76.1,0,.77-.15.57-.31a10.54,10.54,0,0,1-4.39-9c.28-3.44,3-6.67,6.48-7,.15,0,.65-.26.28-.35-6.67-1.72-14.73-.88-19.28,4.85-4.05,5.1-3.9,12.86,2.32,16.13a8.83,8.83,0,0,0,8.52,0c.43-.24-.22-.3-.43-.18-3.22,1.84-7.24.64-9.78-1.81a9.54,9.54,0,0,1-2.32-9.59,13.31,13.31,0,0,1,7.68-8.58,20.3,20.3,0,0,1,12.84-.48l.28-.36a8.26,8.26,0,0,0-7.07,6.07c-1.07,4,1.07,8.1,4.19,10.5l.57-.32c-2.88-.58-4.35-3.38-4.5-6.12a8.56,8.56,0,0,1,4.58-7.94c3.32-1.92,7.41-2.28,11.17-2.26s8.11.63,10.74,3.58c2.33,2.6,3,7.3,0,9.69h.65c1.64-3,6.42-1.4,8.94-.59s5.26,2,7.07,4a6.87,6.87,0,0,1,.24,8.61c-2.25,3.24-6.16,4.5-9.75,5.64-.21.06-.52.34-.11.34l8.61.07c.14,0,.47-.07.51-.23,1.33-5.59-2.38-11.46-7.65-13.4a10.42,10.42,0,0,0-3.75-.64c-1.56,0-3.09.52-4.65.4-2.48-.19-2.47-2.11-3.57-3.79a3.39,3.39,0,0,0-2.38-1.48,5.18,5.18,0,0,0-5.18,2.33c-1.37,2.46-.1,5.6,1.9,7.3.37.32.58.35.27.72a2.51,2.51,0,0,1-1.87.49,6.12,6.12,0,0,1-2.67-.91,11.21,11.21,0,0,1-3.49-3.26c-2-2.87-2.55-6.3.4-8.71s7.12-2.18,10.26-.11,5.43,5.6,7.45,8.84l.59-.27a18.61,18.61,0,0,0-10.78.48c-.07,0-.25.11-.22.22.95,4.06,6,5.86,9.47,3.87.15-.09.2-.22,0-.27l-7.21-1.8-.19.34c3.82-1.12,9.65-1.32,10.87,3.58,1,4.26-3.94,5.77-7.13,6.21-2.65.37-5.76.75-7.62,2.92-2.28,2.66-1.16,6.48-1.11,9.62.14,8-8.38,10.37-15,9.33a29.42,29.42,0,0,1-23.86-30.68l-.7.18c2,2.27,4,4.6,6.66,6.07,3,1.63,6,1.4,9.22.81,7.2-1.32,14.35.14,20,4.89l.56-.32c-11-2.06-19.15-13.23-17.86-24.31l-.7.18,16.33,11.11c4,2.7,10.36,6.16,9.82,11.82l.7-.19a91.82,91.82,0,0,1-13.36-10.71l-.63.3a23.25,23.25,0,0,1,10.6,11l.59-.28-6.08-1.41-.45.36a11,11,0,0,1,7.66,5.35l.51-.28a194.59,194.59,0,0,1-24.12-1.69c-.13,0-.82.18-.52.34,2.22,1.23,4.84.54,7.15,0a11.9,11.9,0,0,1,4.54-.6c1.84.28,2.56,1.71,3.19,3.29,1.19,2.95,4,4.2,7,4.23,4.22,0,8.12-2.07,12.39-1.56a15.68,15.68,0,0,1,10.78,6.36c.11.16.78,0,.7-.23a9.82,9.82,0,0,0-15.49-3.83,10.28,10.28,0,0,0-3.41,8.74c.17,3.51,1.38,7.78-1.33,10.65l.67-.14c-2.95-2.83-1.5-7.5.54-10.42,2.22-3.17,5.31-5.82,6.18-9.74,0-.09-.06-.12-.13-.13a31,31,0,0,0-10.79.17,25.26,25.26,0,0,0-9.33,3.54,7,7,0,0,0-2.51,2.71,6.33,6.33,0,0,0,.2,4.85,62.24,62.24,0,0,0,5.06,10.5c1.93,3.31,4,6.53,6.17,9.71.76,1.12,1.68,2.28,3.12,2.42a4.76,4.76,0,0,0,3.18-1.1A38.84,38.84,0,0,0,207,698l4.53-4.49c2.53-2.5,5.74-5,7.39-8.2s.76-7.07-1.33-9.93c-2.35-3.23-6-5.15-9.47-7l-.35.34c3.79-.76,4.66,4.55,5.13,7.1a8.9,8.9,0,0,0,1.43,3.88,7.19,7.19,0,0,0,3.71,2.21A28.65,28.65,0,0,1,233.6,694c.13.2.73,0,.72-.2-.14-6.74,3.81-15-2.17-20.31-2.84-2.54-6.46-4.42-9.76-6.31-3.73-2.13-7.56-4.1-11.45-5.91l-.59.33a217.19,217.19,0,0,1,25.56,9.5c.11,0,.77-.06.65-.26a22.93,22.93,0,0,0-18.62-10.94c-.11,0-.74.26-.44.35,4.86,1.55,9.54,2.6,14.45.67,4.66-1.83,8.58-5.34,13.57-6.32a9.6,9.6,0,0,1,7.37,1.11c1.8,1.26,2.68,3.33,4.17,4.89,3.08,3.24,7.31,1.43,10.67-.31,2.81-1.45,5.5-2.75,8.74-2.81a15.3,15.3,0,0,1,8.66,2.5c.2.13.85-.16.68-.27Z"/></g><g class="cls-1"><path class="cls-2" d="M485.49,633.23a22.86,22.86,0,0,1,15.16,18l.51-.25c-5.16.25-11.53.21-15.39-3.81-2.93-3-4.12-8.57-.69-11.7a.07.07,0,0,0,0-.1c-1.45-1.41-4.66.24-3.95,2.29,0,.11.33,0,.39,0a15.5,15.5,0,0,0,7.16-3.92s0,0,0-.07a5.48,5.48,0,0,0-9.07.7c-2.83,5.57,3.25,11.21,2.07,16.9l.72-.16a32.94,32.94,0,0,1-3-6.79,34.4,34.4,0,0,1-.87-3.5,13.58,13.58,0,0,0-.87-3.44c-.86-1.78-2.75-2.61-4.49-3.31a32,32,0,0,0-6.74-1.83c-9.24-1.53-18.83-.21-27.8-3.4a36.12,36.12,0,0,1-13.11-8.26c-.13-.13-.8.13-.68.26,6.45,6.32,14.69,9.61,23.61,10.42,4.61.41,9.24.38,13.85.82a42.19,42.19,0,0,1,7.06,1.21c2.2.59,4.79,1.34,6.52,2.89,2,1.77,1.88,5.08,2.54,7.47a33.36,33.36,0,0,0,3.25,7.66c.09.15.69,0,.72-.16,1.15-5.51-4-10.31-2.48-15.8a4.43,4.43,0,0,1,6.65-2.78c.45.26,1,.61,1.1,1.17s-1.05,1.27-1.6,1.65a14,14,0,0,1-4.63,2l.39,0a1.65,1.65,0,0,1,.62-1.93c.41-.29,1.83-.6,1.72.05-.05.29-.35.49-.53.72a6.48,6.48,0,0,0-1.34,3.19,9.7,9.7,0,0,0,1.91,6.93c3.71,5,11,5.13,16.61,4.87.11,0,.55-.08.52-.25a23,23,0,0,0-15.29-18.11c-.17-.05-.81.22-.59.29Z"/></g><g class="cls-1"><path class="cls-2" d="M432.94,627.13c15.29,2.24,29.07-7.21,40.76-15.81,2.87-2.11,5.85-4.26,8-7.18s2.83-6.76,5.08-9.71c3.51-4.59,9.11-6.92,14.21-9.28,5.41-2.5,11.12-5.25,14.33-10.54l-.72.11c-.75,8.42-2.06,17.43-7.23,24.4a22.39,22.39,0,0,1-9.23,7.28,17.12,17.12,0,0,1-6.14,1.36,14,14,0,0,1-4.24-.53c-.88-.25-.77-.41-.1-1.05l12.29-11.78-.66,0A49.52,49.52,0,0,1,483,610.14c-.06,0-.25.18-.08.23,8.11,2.17,13.24,11.47,10.78,19.49-.06.19.65.1.71-.11a16.08,16.08,0,0,0-4-15.52,15.57,15.57,0,0,0-3.3-2.64,13.35,13.35,0,0,0-1.64-.84c-.3-.13-.6-.25-.91-.36s-.52-.08-.63-.2c-.24-.28-.21.15,0-.22.08-.17.62-.39.76-.47.41-.26.81-.52,1.2-.79.74-.49,1.46-1,2.17-1.55a50.45,50.45,0,0,0,4-3.34,49.55,49.55,0,0,0,7.85-9.42c.17-.26-.55-.08-.66,0l-13.19,12.64c-.06.06,0,.12,0,.14,5.64,2,11.8.4,16.57-3,5.72-4,8.95-10.34,10.65-17a79.67,79.67,0,0,0,2-12.67c0-.27-.64,0-.72.11-5.72,9.44-18.39,10.28-26.19,17.28a18.18,18.18,0,0,0-4.67,6.76,25.76,25.76,0,0,1-2.71,5.4,22.31,22.31,0,0,1-3.83,4c-2.78,2.33-5.79,4.43-8.76,6.51a110.91,110.91,0,0,1-9.9,6.28c-7.68,4.24-16.24,7.14-25.1,5.84-.19,0-.84.28-.46.34Z"/></g><g class="cls-1"><path class="cls-2" d="M493.89,630.53a1.57,1.57,0,0,1-2.17,1.25,8.3,8.3,0,0,1-2.21-1.24,23.49,23.49,0,0,0-4.4-2.27,5.44,5.44,0,0,0-3.29-.46c-.78.17-1.66.6-1.51,1.53,0,.16.76,0,.72-.19-.28-1.78,2.43-1,3.26-.68a23.24,23.24,0,0,1,4.72,2.45c1.05.7,2.19,1.47,3.52,1.25a2.22,2.22,0,0,0,2.08-1.84c0-.11-.71,0-.72.2Z"/></g><g class="cls-1"><path class="cls-2" d="M477.94,628.3a10.45,10.45,0,0,1-10-9.71c-.08-1.54.16-4.21,2.43-3.29,1.62.66,3.17,1.55,4.73,2.32l9.35,4.62c.19.1.79,0,.62-.33-3.08-5.55-11.81-3.23-14.83-8.78-.13-.24-.83,0-.67.29,3,5.59,11.77,3.26,14.83,8.78l.62-.33-8.9-4.4-4.52-2.23a3.43,3.43,0,0,0-2.92-.46c-1.91.86-1.62,4-1.23,5.63a11,11,0,0,0,3.49,5.72,10.26,10.26,0,0,0,6.76,2.63c.3,0,.76-.46.27-.46Z"/></g><g class="cls-1"><path class="cls-2" d="M135.13,629.12c1.07,1.65,2.09,4-.1,5.24a4.13,4.13,0,0,1-4.74-.63,12.38,12.38,0,0,1-3-4.45c-.78-1.73-1.65-4.8.65-5.85,1.7-.78,3.16,1.11,3.31,2.6a2.77,2.77,0,0,1-.11,1.18c-.11.3-.44.56-.51.83a2.7,2.7,0,0,0,.3,1.39c.76,2.24,3,4.81,5.52,3.24a.32.32,0,0,0,.2-.33,6.23,6.23,0,0,0-1.13-2.55c-.56-.87-1.52-2-1.08-3.1s1.61-1.39,1.55-2.64a3.21,3.21,0,0,0-1.29-2.13,16.49,16.49,0,0,0-7.1-3.2,7.84,7.84,0,0,0-6,1.06c-4.51,3.22-1.1,9.2.84,12.85a62.15,62.15,0,0,0,4.2,7.53,7.9,7.9,0,0,0,4.84,3.43,8.17,8.17,0,0,0,8.71-4.78,7.52,7.52,0,0,0-.5-6,15.82,15.82,0,0,0-2.26-3.34c-.83-1-3-2.64-1.08-3.68.83-.45,1.79-.51,2.6-1a5.58,5.58,0,0,0,1.71-1.81,7,7,0,0,0,.72-5.42c-1.21-4.34-6.2-6.23-10.29-6.22a33.32,33.32,0,0,0-9.65,1.94c-2.19.68-4.27,1.68-5,4-.58,1.92-.24,4,0,6,.24,2.28.56,5-1.35,6.71-.11.1-.2.29,0,.4a3.43,3.43,0,0,1,1.29,4.34c-.64,1.3-1.61,2-1.22,3.64a14.78,14.78,0,0,0,1.91,3.86,30.28,30.28,0,0,0,3.11,4.25c3.62,4.13,9.24,8.65,15.11,6.88a10.84,10.84,0,0,0,5.76-4.21,10.36,10.36,0,0,0,1.68-7.2c-.11-1.37-.37-3,.29-4.28.76-1.5,2.62-1.58,3.88-2.48a6.85,6.85,0,0,0,2.58-5.58c0-6.63-6.61-9.7-12-11.53-.33-.12-.85.36-.42.51,4.83,1.64,10.83,4.17,11.59,9.91.3,2.28-.29,4.94-2.26,6.33-1,.72-2.36.87-3.31,1.71a3.77,3.77,0,0,0-1.16,2.34c-.39,2.58.58,5.06-.28,7.63a10.18,10.18,0,0,1-5.3,5.87c-6.12,2.83-12.37-2.41-16.06-6.87a31,31,0,0,1-2.78-4,20.77,20.77,0,0,1-1.34-2.56,3,3,0,0,1,.25-3.16,4.4,4.4,0,0,0,1-3.07,3.86,3.86,0,0,0-1.78-2.8l0,.39c2.37-2.08,1.78-5.38,1.48-8.18a11.14,11.14,0,0,1,.28-5.26c.94-2.33,3.57-2.9,5.75-3.54,4.8-1.4,10.45-2.61,14.82.62,3.15,2.32,4.4,7.67.8,10.28-1.07.78-3.33.76-3.86,2.18a1.75,1.75,0,0,0,.38,1.69c.7.94,1.61,1.72,2.32,2.66a9.52,9.52,0,0,1,2.32,6.48,6.53,6.53,0,0,1-3,4.65,6.84,6.84,0,0,1-5.79,1c-2.11-.65-3.55-2.51-4.64-4.33-1.3-2.16-2.41-4.44-3.59-6.67s-2.41-4.37-2.71-6.83a5.14,5.14,0,0,1,5-5.93c2.8-.23,6.15,1.23,8.42,2.78a4.63,4.63,0,0,1,1.36,1.32c.6,1,.24,1.65-.46,2.42a2.4,2.4,0,0,0-.85,1.81c.08,1.91,2.08,3.18,2.33,5.09l.2-.33c-2.34,1.43-4.28-1.62-4.66-3.57-.13-.64.28-1,.44-1.58a3.37,3.37,0,0,0,0-1.58c-.45-2-2.7-3.59-4.64-2.32-2.91,1.91-1.1,5.82.2,8.13s3.49,4.58,6.41,4.05a4.11,4.11,0,0,0,2.88-1.87c.9-1.6-.07-3.31-1-4.67-.19-.29-.88,0-.66.32Z"/></g><g class="cls-1"><path class="cls-2" d="M136.67,612a5.49,5.49,0,0,0-2.14-5.77c-2.11-1.67-5-2-7.55-2.28-5.17-.59-11.16-1.06-15.2,2.92a7.54,7.54,0,0,0-2.41,6c.14,1.59.65,3.11.16,4.68-.39,1.28-1.24,2.44-1.42,3.78a2.88,2.88,0,0,0,1,2.57,4.7,4.7,0,0,1,1.35,1.68,5.21,5.21,0,0,1-.17,2.87c-.67,2.79-1.82,5.54-1.64,8.47.15,2.42,1.28,5,3.72,5.79a4.54,4.54,0,0,0,5.21-1.47c.21-.3-.52-.27-.68,0-1.56,2.2-4.77,1.4-6.2-.49s-1.53-4.45-1.13-6.7,1.52-4.69,1.73-7.11a3.16,3.16,0,0,0-.62-2.38c-.77-.95-1.87-1.53-1.83-2.93.06-2,1.72-3.64,1.7-5.73,0-1.07-.32-2.11-.4-3.17a6.63,6.63,0,0,1,.8-3.71c2.66-4.88,8.66-5.23,13.56-4.78,2.71.24,5.72.37,8.19,1.61,2.3,1.15,4.08,3.64,3.29,6.28-.08.3.65.2.73-.07Z"/></g><g class="cls-1"><path class="cls-2" d="M140.11,634.37c2.73-1.11,5.65-.25,8.17,1a34.5,34.5,0,0,1,3.59,2.16,5.57,5.57,0,0,1,1.42,1.13,2.73,2.73,0,0,1,.24,2.32c-.48,2.31-1,4.82-2.6,6.66a6,6,0,0,1-6.92,1.56,6.24,6.24,0,0,1-3.39-6.83c.07-.36-.67-.27-.73.05a6.65,6.65,0,0,0,2.94,6.87,7,7,0,0,0,7.43-.27c2.31-1.6,3.19-4.48,3.78-7.1.32-1.38.75-2.84-.43-3.94a20.59,20.59,0,0,0-4.08-2.66c-3-1.64-6.42-2.75-9.74-1.4-.46.19,0,.58.32.42Z"/></g><g class="cls-1"><path class="cls-2" d="M146.58,633.47c6.42-4.84,5.77-13.86,2.17-20.18a34.57,34.57,0,0,0-3.89-5.42c-1-1.13-2.1-2.63-3.76-2.6-2.92,0-4,4.16-6.79,4.06-.28,0-.77.4-.28.42,2.36.08,3.61-2.07,5.27-3.36,2.14-1.68,3.8.48,5.16,2.08a34.82,34.82,0,0,1,3.41,4.75c3.65,6.22,4.55,15.29-1.88,20.12-.32.25.4.27.59.13Z"/></g><g class="cls-1"><path class="cls-2" d="M121.51,679.81c5.77,1.37,11.87-.64,16.28-4.48,4.94-4.32,7.59-10.64,8.84-17,.06-.29-.48-.14-.59-.08-2.82,1.6-2.32,5.41-4.54,7.42-1.18,1.07-2.67.33-3.81-.43s-2.1-1.45-3.23-2.08a30.48,30.48,0,0,0-7-2.81c-3-.79-7.81-1.36-9.23,2.28a10.57,10.57,0,0,0-.43,3.67c0,1.45,0,2.9,0,4.34l0,4.35c0,.86-.36,2.64.16,3.42,1,1.43,3-.44,3.74-1.1l7.71-6.84c.3-.26-.29-.29-.44-.23-3,1.32-6.28,2.75-8.3,5.49-1.62,2.21-2.16,5.63-.5,8,2,2.86,6.11,2.15,9.08,3a17.47,17.47,0,0,1,9.11,6.9c2.84,4,4.37,8.71,5.88,13.31l.65-.27c-3-2.15-6.72-2.19-10.25-2.32a24.87,24.87,0,0,1-6.14-.75,13,13,0,0,1-5.66-3.89,76.05,76.05,0,0,1-8.53-11c-1.21-1.87-3-4.34-2.4-6.71.34-1.3,2-3.16,3-1.44.59,1,1.21,1.94,1.85,2.87a59.37,59.37,0,0,0,10.08,11.27c.15.13.79,0,.7-.24a36,36,0,0,0-3.7-8.25,13.8,13.8,0,0,0-6.87-5.33,8.91,8.91,0,0,1-5.7-7c-.65-3.13-.25-6.28,0-9.43.22-3.54.15-7.21-1.9-10.24-.14-.22-.71,0-.7.24q.75,12.26,1.89,24.48l.65-.28c-6.45-3.23-10.39-9.92-11.52-16.89-1.39-8.55,1.39-17.19,5.14-24.78l-.7.09c1.82,6.71,6.13,12.25,9.29,18.35,3.06,5.91,5.09,13.36,1.75,19.59-.17.32.56.25.68,0,3.24-6,1.54-13.23-1.34-19.08-3.15-6.41-7.76-12.1-9.66-19.09-.07-.25-.62-.08-.7.09-3.79,7.66-6.59,16.36-5.19,25,1.14,7.05,5.17,13.8,11.68,17.06.18.1.67,0,.64-.28q-1.14-12.22-1.88-24.48l-.7.25c4.68,6.93-1,16,3.19,23.1,2.12,3.6,6.6,3.7,9.43,6.52s4.25,6.78,5.53,10.49l.7-.24A60,60,0,0,1,117.27,683q-1-1.5-2-3.06c-.44-.75-.84-.78-1.7-.53a3.84,3.84,0,0,0-2.59,3.82c.06,2.33,1.7,4.49,2.93,6.37A78,78,0,0,0,118.6,696c3,3.7,6.08,7.56,11,8.44S140,704,144.28,707c.14.11.73,0,.64-.28-2.2-6.74-4.67-14-10.75-18.25a15,15,0,0,0-4.16-2.07,36.05,36.05,0,0,0-5.16-.85,5.55,5.55,0,0,1-4.43-2.76,6.53,6.53,0,0,1-.34-4.38c1-4.27,5.47-6.24,9.14-7.83l-.44-.23-5.69,5c-.91.81-1.8,1.68-2.75,2.45a1.7,1.7,0,0,1-1.83.09,4,4,0,0,1-.05-1.09c0-.64,0-1.28,0-1.93l.08-7.72c0-2.21-.27-5.19,2-6.42,2-1,4.44-.53,6.47,0a29.52,29.52,0,0,1,6.64,2.65c2.27,1.25,5.48,4.71,8.19,2.55,2.38-1.89,1.83-5.92,4.61-7.48l-.59-.08c-1.15,5.74-3.41,11.43-7.57,15.66s-10.43,6.7-16.39,5.28c-.25-.06-.86.31-.44.41Z"/></g><g class="cls-1"><path class="cls-2" d="M53.5,686.12c-4.21-.7-9.13,1.24-10.75,5.41,0,.14.26.11.3.1L50,690.54c1.34-.21,3.29-.2,4.4-1.13,1.29-1.09-.2-2.6-1-3.47A7.82,7.82,0,0,0,49,683.23a4.62,4.62,0,0,0-3.64.84,9.69,9.69,0,0,0-1.32,1.6,3.36,3.36,0,0,1-2.65,1.09,8.55,8.55,0,0,1-1.92-.47c-1.72-.53-4-1.69-2.88-3.85,1.21-2.32,4.91-2,7.15-2.15,3.86-.28,8-.75,11.13-3.17l-.62.11,4.24,5,.57-.29a41.27,41.27,0,0,0-10.81.76A37.34,37.34,0,0,0,43.34,684a11.14,11.14,0,0,0-4,1.86c-1.07,1-1.34,3-1.47,4.39A5.92,5.92,0,0,0,39,694.59a4.72,4.72,0,0,0,3.7,1.78c.76,0,1.52,0,2.28,0,1.14,0,2.27.17,3.4.24,2.27.15,6.57-.4,6.3-3.6,0-.16-.74,0-.73.2.22,2.6-2.92,3.19-4.9,3.09-1.53-.08-3-.28-4.57-.23-2,.06-3.88-.21-5.05-2a6.59,6.59,0,0,1-.64-4.91,11.2,11.2,0,0,1,.67-2.41,4.45,4.45,0,0,1,2.67-1.87,36.16,36.16,0,0,1,5.09-1.59,39.52,39.52,0,0,1,11.37-1c.09,0,.73-.1.57-.29l-4.24-5c-.12-.14-.52,0-.62.1-3.33,2.54-7.73,2.72-11.75,3-2.28.15-6.81.31-7,3.52-.09,1.56,1.42,2.36,2.69,2.8a8.08,8.08,0,0,0,4.35.65c1.4-.33,2-1.37,2.82-2.4,1.84-2.21,4.84-.81,6.55.79a7.27,7.27,0,0,1,2.19,2.78c.41,1.69-2.27,1.75-3.37,1.92l-7.6,1.19.3.1c1.47-3.8,5.69-5.62,9.57-5,.18,0,.83-.26.46-.33Z"/></g><g class="cls-1"><path class="cls-2" d="M56.36,688.55c-1.57-2.57.22-6.67,3.42-6.87,1.77-.11.83,3.36.43,4.27A14.49,14.49,0,0,1,57.27,690c-2.16,2.27-4.65,4.16-6.1,7-1.25,2.44-1.47,5.17.43,7.32a.46.46,0,0,0,.68-.12,26.8,26.8,0,0,1,7.35-7.58A29,29,0,0,1,64.4,694a33.35,33.35,0,0,0,4.46-1.82c2.22-1.42,1.54-4-.26-5.51-2.68-2.19-6.5-1.16-9.46-.26l.22.45a11.42,11.42,0,0,0,4.44-4.57,9.94,9.94,0,0,0,1-2.92c.13-.7,0-3.9,1.48-3.54l.34-.5a54,54,0,0,1-23.43-7.16,6.12,6.12,0,0,1-1.13-.67c-.37-.35-.34-.35,0-.72a5.14,5.14,0,0,1,2.32-1.24,12,12,0,0,1,5,0c3.88.67,7.59,2.32,11.27,3.64a43.13,43.13,0,0,1,6,2.29c1.73.95,3.87,3.46.69,4.3-3.46.91-7.51-.27-10.76-1.42-6.21-2.18-12.71-6.05-19.53-5.18-3.1.39-6.17,2-6.64,5.34a50.21,50.21,0,0,0,0,7.36l.07,7.57a.26.26,0,0,0,.33.24c5.17-.71,5.7-6.52,7.43-10.43a9.6,9.6,0,0,1,2.09-3.19c1.49-1.42,5-1.94,4.57,1.1-.49,3.34-2.77,6.56-5.21,8.79a20.29,20.29,0,0,1-11.25,5.11.43.43,0,0,0-.4.29c-.91,3.23,2.45,5.65,4.69,7.32a57.59,57.59,0,0,1,4.64,3.75,25.81,25.81,0,0,0,5,3.93c2.5,1.36,6.41,2.28,8.75.09,1.85-1.73,1.82-4.94-.56-6.16-.18-.1-.89.1-.61.36a7.58,7.58,0,0,1,.47,10.29c-3.61,4.47-9.66,2.44-13.72-.24-2.33-1.54-4.46-3.37-6.63-5.12l-7.42-6c-2.11-1.71-4.84-3.59-5.72-6.3s1-4.3,3-5.43c1.85-1,3.94-1.77,5.42-3.33,1-1.1,1.61-2.69,2.85-3.61s3.07-.9,3.78.48l.45-.42c-2.72-.32-4.93,1.13-6.78,3-2.36,2.35-5.2,6.44-9.12,5.23-3.41-1-3.53-5.15-3.53-8.08,0-3.51.15-7.44,2.45-10.3a8.41,8.41,0,0,1,4.22-2.87c2-.58,3.88,0,5.79.7,2.19.84,5.2,1.73,6.93-.52s-1.93-3.41-3.21-4.55a6.43,6.43,0,0,1-1.41-7.13c3.1-8.29,14.35-5.28,20.32-2.54l0-.45a63,63,0,0,0-16.2,9.8c-.35.3.11.5.4.37,7.32-3.28,15.2-6.74,23.42-5.86A22.31,22.31,0,0,1,65.35,661a15.45,15.45,0,0,1,3.54,3.06A8.39,8.39,0,0,1,70.22,666c.5,1.16-.61,1.88-1.34,2.71a.2.2,0,0,0,0,.26,6.71,6.71,0,0,1-3.57,9.89c-.43.14-.32.61.13.49,4.89-1.37,5.75-7.14,9.91-9.39,3.51-1.91,7.27.76,9.36,3.53,2.23,2.94,4,7.24,2.66,10.92a7.11,7.11,0,0,1-3.94,4,5.49,5.49,0,0,1-3.22.4c-1.08-.33-2.25-1.73-3.11-2.45-.16-.14-.77,0-.64.3a67.31,67.31,0,0,0,5.71,9.92l.55-.4a8.37,8.37,0,0,0-6.8,1.09,6.21,6.21,0,0,0-2.13,2.42c-.86,1.76-.94,3.42-2.76,4.58a19.76,19.76,0,0,1-4.8,2c-2,.59-4.25.75-6-.54-2.27-1.64-2.9-4.66-3.3-7.27l-.49.36c7.42,1.19,13.86-4.11,15.95-11a36,36,0,0,0,1.19-12c-.15-3.38-1-6.84-3.82-9s-7-2.46-9.83-4.85c-1.3-1.1-2.72-3-2.35-4.81.51-2.48,3.94-2.57,5.94-2.85,4.53-.64,9.66-1,13.44,2.09a6.76,6.76,0,0,1,2.82,5.18c-.06,1.77-1.11,3.32-1.5,5a3.21,3.21,0,0,0,1.85,3.9c1.8.84,3.63,1.12,5.19,2.47,3,2.59,4.09,6.72,4.89,10.43.07.31.62.15.71,0a19.11,19.11,0,0,1,13.91-10.86c.18,0,.38-.22.27-.4a15.57,15.57,0,0,0-7-6.12c-.42-.18-.84-.35-1.26-.5-.2-.07-1-.2-1.12-.35s.21-1.18.2-1.54a7.22,7.22,0,0,0-2.13-4.13c-3.86-4.39-9.57-9.47-15.9-8.19-2.57.52-5.17,2.11-5.56,4.91l.64-.24c-6.7-3.82-9.16-11.65-14.6-16.76a14.13,14.13,0,0,0-4-2.73c-1.31-.57-2.79-1.21-4.09-.39-2.58,1.61-1.8,5.59-2.34,8.12s-2.3,3.34-4.31,4.55c-1.22.73-2.55,1.68-2.11,3.28l.72-.2c-1.42-5.13-9.41-5.52-12.81-2.31-2.58,2.42-3.11,6.12-2.61,9.46.39,2.63,1.63,7.6,5.22,7.09.39,0,.56-.59.06-.52-3.26.47-4.31-4.81-4.6-7.13-.38-3,.11-6.21,2.27-8.44,3-3.14,10.45-2.65,11.75,2.05.09.33.81.13.72-.2-.51-1.89,2-2.79,3.26-3.55a6.15,6.15,0,0,0,2.73-2.7,12.58,12.58,0,0,0,.77-4.18c.1-1.44.1-3.23,1.07-4.41,1.25-1.51,3.54-.3,4.93.49a15.88,15.88,0,0,1,3.74,3,73.65,73.65,0,0,1,5.86,7.95c2.15,3.07,4.55,6,7.85,7.91.2.11.6,0,.64-.24.34-2.39,2.44-3.78,4.65-4.3a10.73,10.73,0,0,1,7.71,1.4,30.37,30.37,0,0,1,6.19,5c1.71,1.67,4.62,4.4,3.18,7a.2.2,0,0,0,.13.28,15.47,15.47,0,0,1,9.49,6.9l.26-.4c-6.25,1.29-11.92,5.31-14.47,11.27l.71-.06c-.69-3.21-1.6-6.56-3.66-9.18a9.78,9.78,0,0,0-3.42-2.8c-1.68-.8-4.48-.92-4.94-3.13-.37-1.81,1-3.68,1.41-5.38a5.68,5.68,0,0,0-.8-4.51c-2-3.23-5.9-4.62-9.55-4.82a34.22,34.22,0,0,0-6.63.44c-1.63.23-3.54.35-5,1.27-2.83,1.81-1.28,5.22.69,7,2.8,2.56,6.94,2.79,10,5,3.58,2.6,3.87,7.21,3.82,11.27-.06,4.9-.62,10.15-3.54,14.26a13.18,13.18,0,0,1-12.63,5.56c-.21,0-.53.11-.49.35.37,2.5,1,5.28,2.92,7.05,2.34,2.14,5.58,1.69,8.34.7s5.5-2.08,6.49-5.15a6.44,6.44,0,0,1,3-4,7.38,7.38,0,0,1,5.41-.63c.19.05.74-.1.54-.4a66.15,66.15,0,0,1-5.65-9.79l-.65.3L78,688a8.31,8.31,0,0,0,1.45,1.22,4.61,4.61,0,0,0,2.06.16,7.81,7.81,0,0,0,4.4-1.87c3-2.58,3.16-6.64,1.8-10.14s-4-7.24-7.82-8.3a7,7,0,0,0-7.29,2.5c-2.24,2.55-3.73,6.31-7.28,7.3l.13.49a7.49,7.49,0,0,0,4.88-4.81,7,7,0,0,0,.2-3.58c-.13-.64-.48-1.16-.65-1.77s-.13-.46.25-1,.82-.93,1.22-1.39c0,0,.09-.14.06-.2-2.85-6-9.68-8.91-16-9.44-8.24-.7-16.1,2.72-23.45,6l.4.37a61.81,61.81,0,0,1,16-9.71c.22-.09.29-.34,0-.45-5.48-2.52-13.93-5-19.1-.46a8.5,8.5,0,0,0-2.87,6.48A6.45,6.45,0,0,0,30.19,665c.84.45,2.05,1.11,1.82,2.25s-2,1.85-3.14,1.75c-1.9-.15-3.6-1.27-5.44-1.7a8.62,8.62,0,0,0-7.93,2.45c-2.55,2.52-3.17,6.16-3.28,9.6-.08,2.81-.37,6.48,1.58,8.79,2.23,2.64,5.87,1.79,8.33,0,3.2-2.32,5.38-7.24,10-6.7.23,0,.59-.15.46-.42-.87-1.71-3.44-1.52-4.81-.56-1.15.81-1.74,2.12-2.58,3.21a9.88,9.88,0,0,1-3.53,2.63c-1.88,1-4.24,1.86-5.3,3.84-1.32,2.48.4,5,2.14,6.79a100.8,100.8,0,0,0,8.26,6.86c2.83,2.29,5.61,4.72,8.6,6.8,4.06,2.82,10,5.3,14.38,1.72,3.62-3,4.31-8.71.79-12l-.62.36c2.73,1.4,2,5.39-.79,6.26-3.39,1.07-6.87-1.09-9.33-3.2-1.21-1-2.33-2.16-3.54-3.18s-2.42-1.84-3.62-2.76c-2-1.52-4.73-3.67-3.93-6.52l-.4.29c7.18-.88,14.15-5.42,16.68-12.41.48-1.36,1.27-3.41-.22-4.41a3.94,3.94,0,0,0-3.78.1c-2.47,1.28-3.57,4.25-4.42,6.72-1,3-2,7.07-5.75,7.57l.33.24L31,677.65c0-1.68-.2-3.59.68-5.11a6.22,6.22,0,0,1,4.09-2.64c6.14-1.47,12.57,2,18.13,4.12a34.52,34.52,0,0,0,8.49,2.39c2,.22,5.3.56,6.8-1.07,1.73-1.89-1.13-3.86-2.61-4.57A47.94,47.94,0,0,0,62,669l-5.48-2c-4.39-1.58-12.06-4.57-15.58.19a.2.2,0,0,0,0,.31,55,55,0,0,0,25.42,8.28c.24,0,.77-.39.33-.5-2.07-.52-2.39,1.88-2.53,3.38a10.21,10.21,0,0,1-5.1,7.71c-.35.21-.16.57.23.45,3.16-1,7.67-2.07,9.79,1.35s-3.06,4.46-5.34,5.51a28.41,28.41,0,0,0-12.13,10.42l.68-.12c-3.69-4.17.83-9.23,3.91-12.12,2.86-2.69,6.45-6.36,4.94-10.63a.24.24,0,0,0-.23-.16c-3.9-.11-7.45,4-5.19,7.74.17.27.86,0,.66-.32Z"/></g><g class="cls-1"><path class="cls-2" d="M21.89,700.83a5.27,5.27,0,0,0-2.52,1c-.55.44-1.68,1.6-1.51,2.39s1.61,1.89,2.19,2.43a26.17,26.17,0,0,0,3,2.45,27.29,27.29,0,0,0,7.21,3.53c2.37.76,5.07,1.27,7,2.89s1.84,3.69,2.11,5.91c.21,1.79.93,3.35,2.88,3.66a9.79,9.79,0,0,0,3.4-.32q2.43-.5,4.8-1.23a47,47,0,0,0,7.57-3.1c1.87-1,4.24-2.75,2.34-4.94a29.72,29.72,0,0,0-4.28-3.44l-4.64-3.6-.47.35c3.77.27,6.6,3.92,10.51,3.49,2-.22,4.27-2.46,2.55-4.36-.14-.15-.81,0-.7.24a9.06,9.06,0,0,1-5.29,12.27c-.1,0-.24.13-.22.25.26,1.53,2.1,1.58,3.32,1.34a5.86,5.86,0,0,0,2.15-.88c1.35-.92,3.21-2.67,4.87-1.34a.51.51,0,0,0,.7-.19,60.47,60.47,0,0,0,3.18-18.27c0-.31-.69-.17-.73.08l-2.08,13.67-1,6.59c-.18,1.23-.48,2.8,1,3.25,2.41.72,5.31-1.93,6.91-3.38,2.53-2.29,4.58-5,7-7.47a23.05,23.05,0,0,1,9.11-5.71c3.24-1.12,6.61-1.86,9.82-3.09,2.9-1.11,6.11-2.75,7.73-5.52a5,5,0,0,0-1.48-6.84c-7.07-4.91-14.89,2-22.29,1l-.27.42,15.94-2.33c.09,0,.57-.19.38-.36l-9.63-8.55-.55.34a48,48,0,0,1,15.83,7.63c.15.11.78.05.7-.24A28.67,28.67,0,0,0,96.9,675.27c-.2-.14-.87.16-.57.36a28.35,28.35,0,0,1,11.43,15.5l.7-.24a48.56,48.56,0,0,0-16.06-7.74c-.13,0-.78.15-.56.35l9.63,8.55.38-.35L85.92,694c-.15,0-.67.36-.27.41,6.54.88,12.36-3.9,18.89-2.45,2.61.58,5.51,2.28,5.42,5.33-.11,3.68-4.1,6-7.09,7.3C97.34,707,91,707.53,86,711.09s-7.82,9.08-12.87,12.37a6.06,6.06,0,0,1-2.56,1.18c-1.88.19-1.79-1.45-1.6-2.74.34-2.28.7-4.55,1-6.83l2.09-13.66-.73.08a59.87,59.87,0,0,1-3.18,18.28l.7-.19c-1.41-1.13-3.15-.48-4.54.37a10.8,10.8,0,0,1-2.92,1.69c-1.06.27-2.6.25-2.83-1.09l-.21.26C63.52,719,66.5,713.12,64.1,708l-.69.24a2.08,2.08,0,0,1-.34,3c-1.53,1.32-3.9.38-5.47-.4-2.07-1-3.94-2.32-6.31-2.48-.1,0-.69.19-.47.36l6.57,5.1A11.57,11.57,0,0,1,60,716.14c1,1.48-.09,2.76-1.36,3.56a33.64,33.64,0,0,1-7,3.11,33.88,33.88,0,0,1-7.79,1.92c-5.1.47-2.92-5.92-5-8.59-2.34-3-7.11-3.31-10.38-4.69a26.38,26.38,0,0,1-6.69-4.1,15.81,15.81,0,0,1-2.7-2.66c-1.17-1.62,1.3-3.21,2.72-3.45.35,0,.59-.5.1-.41Z"/></g><g class="cls-1"><path class="cls-2" d="M373,697.19a39.12,39.12,0,0,0,32.11-13.38c.12-.13-.09-.17-.18-.18-7-.16-14.44.12-20.66,3.65-5.12,2.9-9.22,8.08-9.25,14.15,0,.2.52,0,.58,0l11.32-6c.28-.15.07-.3-.16-.26L382,696l0,.33a17.16,17.16,0,0,1,17.23,4.24A17.45,17.45,0,0,1,403.41,717l.42-.22a28.66,28.66,0,0,1-20.64-4.52c-2.56-1.74-6.09-4.4-5.84-7.88s4.14-5.15,7.15-4.61c3.92.71,6.74,4.13,9.14,7l.49-.32c-5.79.17-10-4.3-14.47-7.29-3.79-2.54-8.58-4.52-13-2.44l.36.21c3.89-2.24,7.8-4.46,11.69-6.71a8.31,8.31,0,0,0,3.2-2.73,5.12,5.12,0,0,0-.07-4.62c-1.44-3.28-4.15-6.23-6.53-8.85a66.27,66.27,0,0,0-8.31-7.75,67.54,67.54,0,0,0-10.47-6.72c-.15-.08-.61,0-.65.21-2.69,13.54,5.69,28.12,18.73,32.61.16.05.62,0,.66-.21a16.23,16.23,0,0,0-7.75-16.79c-.15-.08-.69,0-.66.26.48,3.47,2.88,6.17,4.5,9.15s2.11,6.78-1.07,9c-3.35,2.35-7.75,1.58-11.5,1-3.59-.58-7.38-1-10.66.91-.4.23.15.29.35.21a10.37,10.37,0,0,0,6-8.7c.52-4.53-1.44-8.69-4.38-12-3.36-3.81-7.77-6.79-12.12-9.35a46.58,46.58,0,0,0-14.23-5.75,24.49,24.49,0,0,0-15.47,1.63c-.05,0-.21.15-.12.22a37.78,37.78,0,0,1,8.44,8.63c2.46,3.52,3.94,7.57,6.28,11.16,3.83,5.85,10.31,9,17.08,10.11a38.56,38.56,0,0,0,11.6,0c.09,0,.55-.15.4-.31A97.67,97.67,0,0,0,335.32,677c-.18-.13-.85.14-.68.27a27.31,27.31,0,0,1,10.76,18.53c0,.14.34.07.41.06,7.23-1.55,14.69,2.69,18.35,8.86s2.86,14.14-1,20.17a22.65,22.65,0,0,1-9.41,8.34h.48c-7.07-5-14.43-12.32-14.86-21.53a17,17,0,0,1,3.84-11.35,13.21,13.21,0,0,1,5.07-3.9,10,10,0,0,1,2.84-.71c.75-.08,1.42-.21,1.67.64a10.15,10.15,0,0,1,.1,2.21l.94,19.62.72-.19-2.18-9-1.08-4.52a15.68,15.68,0,0,0-1.12-3.7c-1.78-3.36-7-3.4-10.22-2.73-3.4.7-6.87,2.55-8.72,5.59a8.12,8.12,0,0,0-1.19,4.76c.19,2.8,1.6,5.4-.4,7.91-1.63,2.07-4.33,3.17-6.63,4.31-2.81,1.4-5.64,2.77-8.53,4-4.47,1.93-10.75,3.85-14.77,0-3.53-3.42-3-9.18-1.66-13.46A27.36,27.36,0,0,1,305,700a30,30,0,0,1,13.48-7.7,26.27,26.27,0,0,1,7.54-.85c1.94.07,7.46.2,7.13,3.15l.59-.23c-11.55-1.12-19.5,9.78-24.93,18.42-.16.26.56.17.67,0,5.14-8.19,12.78-19.12,23.81-18.06.13,0,.56,0,.58-.23.23-2.08-2.33-2.75-3.92-3a26.26,26.26,0,0,0-6.68-.3,30.23,30.23,0,0,0-12,3.67c-7.76,4.27-14.32,12.32-14.87,21.44-.27,4.59,1.55,9.36,6.4,10.58,4.5,1.13,9.32-.79,13.36-2.62q4.36-2,8.65-4.15c2-1,4.13-2.05,5.55-3.83,1.73-2.16,1.06-4.42.62-6.91a8.12,8.12,0,0,1,1.45-6.47c3.11-4.19,9.44-5.91,14.3-4.18,3.54,1.26,3.75,5.38,4.51,8.55l2.64,11c.05.22.73,0,.72-.19l-1.07-22.57c0-.05-.1-.08-.14-.08-6.15-.42-11.21,4-13.43,9.46-2.79,6.86-.42,14.11,3.95,19.73a45.48,45.48,0,0,0,9.69,8.94.58.58,0,0,0,.48,0,23.09,23.09,0,0,0,13.13-17.61,18.59,18.59,0,0,0-9.89-18.6,16.85,16.85,0,0,0-11.54-1.71l.4,0A27.46,27.46,0,0,0,335.32,677l-.68.27a97.67,97.67,0,0,1,16.65,14.47l.4-.31c-7.58,1.13-16,.22-22.41-4.18a23.91,23.91,0,0,1-7.66-9.25,52.32,52.32,0,0,0-6.74-10.81,36.47,36.47,0,0,0-4.41-4.29c-.18-.15-1.29-.83-1.29-1,0-.41.82-.59,1.12-.7a19.74,19.74,0,0,1,3.59-1A27.6,27.6,0,0,1,327,661.39,52.52,52.52,0,0,1,338.76,667a51,51,0,0,1,9.86,7.61c2.93,3,5.23,6.87,5.24,11.19,0,4-1.78,8.28-5.66,9.9l.35.21c3.56-2.06,7.81-1,11.63-.42a17.84,17.84,0,0,0,7.83-.23,7.38,7.38,0,0,0,4.94-3.84c1.08-2.46.14-5-1.11-7.18-1.61-2.81-3.81-5.42-4.26-8.72l-.66.26a16,16,0,0,1,7.62,16.56l.65-.21c-12.95-4.46-21.27-19-18.6-32.39l-.65.21a67,67,0,0,1,16.84,12.46,63.71,63.71,0,0,1,6.76,8.09,9.88,9.88,0,0,1,2.17,5c.1,2.14-1.45,3.48-3.14,4.48-4,2.36-8,4.6-12,6.9-.39.22.15.3.36.21,5.34-2.52,10.9,1.53,15,4.63,3.5,2.64,7.31,5.35,11.89,5.22.11,0,.64-.13.49-.32-2.42-2.9-5.19-6.2-9.07-7a8,8,0,0,0-7.41,2.27c-2.56,2.89-.56,6.41,1.86,8.6a28.23,28.23,0,0,0,10.76,6,29.6,29.6,0,0,0,13.26.83c.12,0,.38-.08.42-.23A17.6,17.6,0,0,0,399,699.47a17.94,17.94,0,0,0-17.16-3.5c-.29.1-.46.41,0,.33l4.82-.84-.17-.26-11.32,6h.59c0-5.89,4-11,9-13.79,6-3.41,13.21-3.6,19.92-3.45l-.18-.18a37.78,37.78,0,0,1-31,13c-.2,0-.84.33-.46.36Z"/></g><path class="cls-2" d="M284.66,484.9c1.57,3.39,1.3,7.34.78,10.94-.53,3.76-1.49,7.44-2.22,11.16-.8,4.07-1.48,8.08-3.5,11.77-2.32,4.24-6.09,6.76-10.07,9.27a69.18,69.18,0,0,0-10.1,7.58,45.66,45.66,0,0,0-4.45,4.67,21.67,21.67,0,0,0-3.46,5.14,4.71,4.71,0,0,0,.15,4.48,15.47,15.47,0,0,0,2.48,2.88,27.47,27.47,0,0,0,7,5.17,25.18,25.18,0,0,0,5.07,1.46c1.77.44,3.56.84,5.3,1.38a24.27,24.27,0,0,1,9.79,6c.15.14.62,0,.7-.19,1.5-2.86-.18-5.81-2-8.12-1.9-2.47-5.16-3.94-8.07-4.86-5.31-1.69-11.07-1.38-16.5-2.42-.14,0-.63,0-.65.21-.22,1.68,1.76,2.64,3,3.22a37.76,37.76,0,0,0,6.9,2.14c1,.25,2.07.51,3.12.68,1.95.32,3.95.38,5.86.87a11.13,11.13,0,0,1,7.43,7,10.65,10.65,0,0,1,.77,5.76c-.29,1.79-.82,3.51-.94,5.33l.66-.25c-3.23-1-6.49-1.89-9.67-3.05s-6.14-2.17-9.47-2.13c-5.47.07-9.74,3.27-12.15,8.05-2.88,5.71-3.58,12.54-4.15,18.81a114.49,114.49,0,0,0,4.43,43.56,63.85,63.85,0,0,0,3.57,9.81,11.61,11.61,0,0,0,6,6c3,1.22,6.46,1.37,9.68,1.63,3.77.3,7.55.44,11.33.44a142.66,142.66,0,0,0,22-1.71,169.64,169.64,0,0,0,24.24-6c7.65-2.39,15.66-3.31,23.25-5.93.48-.16,0-.31-.27-.2-6.43,2.22-13.15,3.18-19.71,4.9-3.41.9-6.72,2.1-10.1,3.08q-5.35,1.56-10.82,2.68a141.16,141.16,0,0,1-42.77,2.12c-3.2-.33-6.61-.83-9.13-3-2.37-2-3.56-5.07-4.6-7.94a112.17,112.17,0,0,1-5.29-19.91,109.13,109.13,0,0,1,.41-40.8c1.28-6,4-13.07,10.51-14.85,4.05-1.1,8.15.12,11.94,1.53,3.31,1.23,6.72,2.16,10.09,3.2.16,0,.64,0,.66-.25.22-3.34,1.63-6.3.65-9.65a12.66,12.66,0,0,0-5.21-7.37c-3-1.85-6.68-1.55-10-2.29-2.13-.48-4.26-1-6.33-1.67-1.59-.52-5.57-1.65-5.28-3.94l-.65.21c5.22,1,10.64.86,15.8,2.22a17.44,17.44,0,0,1,8.08,4.3c2.08,2.22,4.09,5.69,2.52,8.7l.7-.19a24.37,24.37,0,0,0-8.13-5.48,89.83,89.83,0,0,0-9.55-2.61,19.05,19.05,0,0,1-7.49-4.22c-1.87-1.55-4.9-3.86-5-6.52-.12-2.45,1.72-4.71,3.13-6.52a45.57,45.57,0,0,1,4.32-4.79,65.81,65.81,0,0,1,10.54-8.11c3.65-2.32,7.32-4.56,9.74-8.25a29.64,29.64,0,0,0,4.05-11.51c.7-4.12,1.82-8.15,2.45-12.29.58-3.78,1-8-.69-11.57-.09-.2-.8,0-.73.19Z"/><path class="cls-2" d="M259.05,653.83c-6.16-2.5-12.28-4.91-17.93-8.47a38.22,38.22,0,0,1-4.8-3.26c-1.71-1.47-1.86-3.57-2.17-5.66q-1-6.68-1.64-13.39c-1.84-18.17-2.17-36.45-2.37-54.7-.2-18.44-.5-36.92.59-55.35.28-4.75.65-9.51,1.15-14.25a14.39,14.39,0,0,1,1.34-5.48,10,10,0,0,1,4.25-3.78c4.38-2.32,9-1.23,13.45.41,3.89,1.44,7.66,3.19,11.59,4.53a34,34,0,0,0,4.94,1.32,14.19,14.19,0,0,0,5.23.3c2.88-.61,4.9-2.15,7.15-3.95,1.64-1.3,3.42-2.71,3.11-5-.29-2.11-1.95-3.92-3.47-5.28a14.18,14.18,0,0,0-1.13-.92c-.18-.13-.82.16-.68.26,3,2.19,6.63,6.58,2.92,9.84-2.31,2-5.19,4.63-8.4,4.86-4,.29-8.2-1.31-11.87-2.72-6.76-2.6-14.83-7.49-22.16-4.28-2.83,1.24-5.41,3.17-6.33,6.23a32.37,32.37,0,0,0-.88,6c-.2,2.15-.39,4.3-.55,6.45-1.4,18.42-1.22,36.91-1,55.37s.36,36.85,1.94,55.21q.58,6.85,1.46,13.66c.29,2.24.57,4.49,1,6.72a6.15,6.15,0,0,0,2.57,4.37A77.92,77.92,0,0,0,253.2,652l5.26,2.14c.17.07.83-.21.59-.31Z"/><path class="cls-2" d="M245.59,462a12.24,12.24,0,0,1-4.2-7,18.11,18.11,0,0,1,.56-7.32,59,59,0,0,1,6.74-17.12c3.42-5.53,7.81-10.38,12.21-15.12q6.25-6.74,12.82-13.15c5.57-5.4,11.34-10.57,17.24-15.6.37-.32-.21-.55-.48-.32a358.86,358.86,0,0,0-29.6,28.24c-4.45,4.78-8.89,9.64-12.43,15.16A59.76,59.76,0,0,0,241.39,447a19.25,19.25,0,0,0-.72,8.15,12.55,12.55,0,0,0,4.36,7.21c.24.21.87-.13.56-.41Z"/><path class="cls-2" d="M291.39,386.65a96.75,96.75,0,0,1,21.32-6.31,107.22,107.22,0,0,1,21.63-1.12c16.15.62,31.92,4.75,47.24,9.64,7.56,2.41,14.64,5.35,21.11,10,5.53,4,10.88,8.3,16.15,12.61a74.3,74.3,0,0,1,13.22,13.24,41.39,41.39,0,0,1,4.79,8.38,92.56,92.56,0,0,1,3.21,9.79A46.66,46.66,0,0,1,442.14,453a34.8,34.8,0,0,1-1.23,10.93c-1.79,6.84-5,13.18-8,19.58-1.08,2.38-2,4.63-3.76,6.57a13.8,13.8,0,0,1-5.93,4.13c-2.45.67-3.58-1.52-3.24-3.71.4-2.6,2.24-4.77,3.86-6.74s3.35-3.87,4.29-6.22a9.71,9.71,0,0,0,.55-3.47c0-2.08.08-4.16.09-6.24.05-7.92-.3-15.93-2.34-23.63-3.5-13.19-11.66-24.88-21.65-34-9.37-8.58-22.07-15.38-35-11.15s-20.74,16.71-24.24,29.35c-2,7.15-3,14.77.15,21.74a49.44,49.44,0,0,0,5.63,8.94q3.42,4.59,7.2,8.88c4.9,5.55,10.38,10.41,15.78,15.45,5,4.7,10.59,10.43,10.68,17.76a31.94,31.94,0,0,1-2.42,11.13,12.41,12.41,0,0,1-1.73,3.7,7.26,7.26,0,0,1-3.63,2.19,25.62,25.62,0,0,1-9.36.41c-3.59-.32-7.16-.91-10.73-1.39-8.06-1.07-16.14-2.05-24.15-3.49a49.7,49.7,0,0,1-10.37-2.6,16.17,16.17,0,0,1-4.26-2.55c-.8-.69-.85-1.14-.2-2a5.51,5.51,0,0,1,2-1.53c1.24-.63,2.58-1,3.85-1.57,1.84-.79,3.64-1.68,5.5-2.43a65.65,65.65,0,0,1,11.55-3.48,44.27,44.27,0,0,1,20.57.37,33.36,33.36,0,0,1,8.28,3.56,70.23,70.23,0,0,1,9.14,6.34c2.37,2,4.08,5.24,3.5,8.41-.62,3.43-3.7,5.17-6.91,5.62s-6.74-.11-10.06-.58c-3.86-.55-7.72-1.18-11.55-1.94-7.86-1.54-15.55-4.08-23.49-5.23-6.23-.9-12.64-.68-18.45,2-5,2.28-9.31,6.29-10.73,11.76a25.38,25.38,0,0,0,0,10.87c.73,3.92,1.8,7.79,2.76,11.66l3,12c.83,3.38,2.54,7.67,1,11.07-.79,1.74-2.37,2.79-3.87,3.86s-2.8,2-4.23,2.94c-2,1.33-4.92,3.48-7.5,3s-3-3.7-3.44-5.8a23.09,23.09,0,0,0-2-6.25c-.54-1-1.33-1.76-2.5-1.38-1.87.62-2.81,3.28-3.5,4.89-.08.19.63.12.72-.11.4-.91,1.85-4.92,3.41-4.44,1,.31,1.53,1.94,1.85,2.8a37.37,37.37,0,0,1,1.25,4.4,14.94,14.94,0,0,0,1.4,4.55c1.38,2.24,4,2,6.11,1.11,3.39-1.34,6.37-3.74,9.33-5.83,1.71-1.21,3.36-2.5,4-4.59a12.5,12.5,0,0,0-.3-6.42c-1.26-5.35-2.63-10.68-3.95-16-2.22-9-6.42-20.3.26-28.44,6.12-7.46,16.49-8.55,25.42-7.19,5.21.79,10.28,2.26,15.39,3.5,5.3,1.27,10.66,2.3,16.05,3.13,4.15.65,8.47,1.51,12.69,1.14,3.05-.28,6.32-1.37,7.88-4.22,1.85-3.36.31-7.59-2.31-10.07a42.21,42.21,0,0,0-5.73-4.3c-1.77-1.18-3.57-2.36-5.44-3.37-7.23-3.9-15.66-4.81-23.73-3.84a61.87,61.87,0,0,0-13.47,3.26c-2.59.92-5.08,2-7.57,3.17-1.55.71-3.22,1.18-4.74,2a5.2,5.2,0,0,0-2.75,3,.08.08,0,0,0,0,.08c3.16,3.15,7.5,4.41,11.75,5.29,5.38,1.12,10.82,1.92,16.25,2.67,5.65.78,11.3,1.48,16.94,2.28a54.73,54.73,0,0,0,12.32.8c2.89-.25,6.26-1.08,7.9-3.72a27.46,27.46,0,0,0,2.35-6.18,28.68,28.68,0,0,0,1.38-7.33c.34-9.91-8.71-16.91-15.35-22.92a132.08,132.08,0,0,1-20.8-23.55c-3-4.41-5.09-9.14-5.2-14.55s1.24-10.74,2.91-15.78c3.09-9.3,8.54-18.12,17.16-23.18a26.36,26.36,0,0,1,14.4-3.76,33,33,0,0,1,14.19,4.27c8.44,4.6,15.63,11.76,21.38,19.39a64.91,64.91,0,0,1,12.23,26.72,92.29,92.29,0,0,1,1.41,16.43c0,2.8,0,5.6-.07,8.41a11,11,0,0,1-1.33,5.87c-1.85,3.12-4.72,5.52-6.43,8.73-1,1.84-2,5.82.82,6.7,2.13.68,4.65-1,6.25-2.21a17.69,17.69,0,0,0,5.56-7.22c3.92-8.86,8.89-17.63,9.87-27.45A37.34,37.34,0,0,0,441,443.55a72.47,72.47,0,0,0-4.74-13.39c-4-7.68-10.31-13.68-16.92-19.07-3.49-2.85-7.08-5.56-10.6-8.36A82.77,82.77,0,0,0,396,394a89.84,89.84,0,0,0-14.91-5.78c-5.09-1.61-10.22-3.12-15.4-4.45-19.65-5-40.74-7.26-60.61-2.09a106.86,106.86,0,0,0-13.93,4.76c-.46.19,0,.39.28.26Z"/><path class="cls-2" d="M349.35,645.5a191.81,191.81,0,0,0,22.81-8.19c5.57-2.41,11.53-4.54,16.49-8.08a18.41,18.41,0,0,0,5.54-5.88,37.36,37.36,0,0,0,3.3-9.78c.82-3.61,1.45-7.27,2.44-10.84a105.81,105.81,0,0,1,4.35-11.94c5.83-14,13.48-27.17,20.62-40.54,6.9-12.92,13.43-26.2,17.17-40.42,2-7.65,3-15.54,4.21-23.34.59-3.68,1.12-7.38,1.44-11.09a25.3,25.3,0,0,0-.49-9.22,11,11,0,0,0-1.92-3.77c-.15-.19-.65,0-.7.19-2.5,12.79-6.39,25.24-10.25,37.67-1,3.1-1.72,6.35-3,9.34-.94,2.26-1.75,4.56-2.49,6.89-1.6,5-2.93,10.15-4.67,15.14a53.71,53.71,0,0,1-8.93,16.65c-.05.06-.11.15,0,.22.22.23.75.59.87.88.23.53-.48,1-.75,1.41a1.94,1.94,0,0,1-1.05,1c-.55.27-1.12.5-1.69.73-1.7.7-3.75,1.5-4.36,3.42-.89,2.8,1.58,5.76,3.26,7.73a62.7,62.7,0,0,0,7.91,7.28c.22.18.89-.11.67-.3-3.29-2.72-16.77-13-8.83-17.06,1.2-.61,2.49-1,3.69-1.63a2.78,2.78,0,0,0,1-.66c.07-.1.12-.43.19-.55s.27-.32.4-.51a2.18,2.18,0,0,0,.33-.52c.18-.54,0-.59-.37-1-.1-.1-.49-.37-.5-.5a6.89,6.89,0,0,1,.73-.91,43.61,43.61,0,0,0,3.47-5.17c4-6.93,6.07-14.68,8.34-22.29.57-1.91,1.16-3.81,1.8-5.7s1.45-3.64,2.1-5.48c1.63-4.54,2.87-9.27,4.29-13.89a314.31,314.31,0,0,0,8.6-32.34l-.7.19c4.06,5.16,2.45,13.11,1.63,19.09-.54,4-1.25,7.94-1.89,11.91-.6,3.75-1.07,7.52-1.86,11.24-3,14.27-9.1,27.65-15.81,40.54S412.57,571,406.47,584.2c-3.21,7-6.31,14.19-8,21.69-.8,3.48-1.41,7-2.34,10.45-.88,3.29-2,6.69-4.22,9.32-3.93,4.6-9.92,6.94-15.34,9.26-7.14,3.05-14.23,6.05-21.63,8.44q-2.81.9-5.66,1.73c-.43.12-.33.54.11.41Z"/><path class="cls-2" d="M243.89,492.55a5.52,5.52,0,0,1,4.51.47c.6.43,1,1.09,1.63,1.55a14.14,14.14,0,0,0,4.83,2.21,36.59,36.59,0,0,0,11.84,1.09A28.47,28.47,0,0,0,278,494.79a16.46,16.46,0,0,0,5.56-4.21c1.37-1.71,2.69-4.43,1.57-6.56a10.89,10.89,0,0,0-2.41-2.66c-1.22-1.12-2.45-2.24-3.7-3.33-2.38-2.1-4.81-4.13-7.28-6.12q-7.33-5.87-15.18-11.06-3.7-2.46-7.51-4.75c-1.26-.75-3.68-2.89-5-1.12s-.33,5,.56,6.66a14.61,14.61,0,0,0,5.16,5.43,55.44,55.44,0,0,0,8.86,4.07c2.63,1.09,5.16,2.41,7.75,3.58a78.2,78.2,0,0,1,11.3,6.41c.2.13.85-.16.67-.28a70.13,70.13,0,0,0-9.14-5.44c-3.91-1.82-7.8-3.73-11.81-5.33-4.89-2-10.3-4.27-12.47-9.49a8.63,8.63,0,0,1-.69-3.75,4.51,4.51,0,0,1,.23-1.36c.52-1.42,2.05-.19,2.82.26q3.87,2.29,7.64,4.76A205.84,205.84,0,0,1,282,481.64a9.15,9.15,0,0,1,2.53,2.91c.59,1.42,0,3.08-.62,4.39a12.72,12.72,0,0,1-5.38,5.12,26.83,26.83,0,0,1-11.83,3.45,32.21,32.21,0,0,1-13.15-1.68,12.24,12.24,0,0,1-2.57-1.32,16.26,16.26,0,0,1-1.65-1.56c-1.42-1.31-3.82-1.19-5.54-.73-.43.12-.34.45.09.33Z"/><path class="cls-2" d="M285.78,493.37c-.1,2.25-2.48,3.55-4.29,4.34a38.65,38.65,0,0,1-9.93,2.53,72.31,72.31,0,0,1-22.27.13c-1.86-.31-5.48-.76-6.41-2.77-.1-.24-.81,0-.72.19.81,1.77,3.57,2.31,5.25,2.68a52.44,52.44,0,0,0,10.76,1,87.88,87.88,0,0,0,12.56-.76,43.45,43.45,0,0,0,10.62-2.56c2.06-.84,5-2.3,5.15-4.88,0-.27-.71-.12-.72.1Z"/><path class="cls-2" d="M337.71,497.65c-6.69-.64-13.53,2.55-18.5,6.88-1.45,1.28-2.71,2.8-4.08,4.16a72.64,72.64,0,0,1-6.5,5.91,8,8,0,0,1-2.71,1.7c-3,.57-2.26-3.1-1.61-4.71,1.62-4,5.61-6.59,9.26-8.58a62.1,62.1,0,0,1,25.06-7.31,64,64,0,0,1,26.15,3.46c3.65,1.31,7.37,2.8,10.34,5.34,1.44,1.24,2.8,2.57,4.19,3.87a12,12,0,0,0,3.14,2.48c4.8,2.07,10.25-2.88,12-6.94,1-2.3,1.56-6-.73-7.76s-5.74-1.26-8.43-.85c-6,.9-11.85,2.26-17.84,3.07a93.87,93.87,0,0,1-22.16.28c-2.52-.25-5-.59-7.53-1-.23,0-.85.34-.44.4a105.85,105.85,0,0,0,24.24,1.33,166.3,166.3,0,0,0,18.17-2.75c3.05-.56,6.32-1.4,9.43-1.3,1.66.06,3.66.44,4.67,1.89s.86,3.35.52,4.86a12.23,12.23,0,0,1-5.72,7.6,7.13,7.13,0,0,1-4.49,1.12c-1.54-.22-2.61-1.27-3.71-2.28-2.42-2.23-4.74-4.9-7.67-6.48A56.92,56.92,0,0,0,361,497.43a65.29,65.29,0,0,0-24.73-1.91,63.39,63.39,0,0,0-23.19,7.26c-3.27,1.79-6.67,4-8.68,7.23-1.25,2-2.94,7,1.14,6.74,1.75-.13,3.49-1.87,4.75-2.93,2.23-1.87,4.33-3.9,6.37-6a41.38,41.38,0,0,1,4.19-4.08,28.6,28.6,0,0,1,10-5.13,18.51,18.51,0,0,1,6.54-.57c.29,0,.77-.37.28-.42Z"/><path class="cls-2" d="M242.86,497.57a4.4,4.4,0,0,1-1.36-1.75,2.06,2.06,0,0,1,.34-1.88,4.76,4.76,0,0,1,1.25-1.16,4.21,4.21,0,0,1,.55-.3c.09-.05.08,0,0,0s-.16,0-.16,0,.7,0,.72-.19-.75,0-.84.06a5.18,5.18,0,0,0-1.17.66c-.89.67-1.81,1.74-1.45,2.94a4.43,4.43,0,0,0,1.43,1.86c.13.12.77-.16.68-.24Z"/></svg>