<svg id="Lager_1" data-name="Lager 1" xmlns="http://www.w3.org/2000/svg" viewBox="0 0 595.28 841.89"><defs><style>.cls-1{opacity:0.49;}.cls-2{fill:#fff;}</style></defs><g class="cls-1"><path class="cls-2" d="M251.54,460.13c7.3,2.73,11,10.57,11.79,17.9,1,9.54-2.28,18.88-2.83,28.34-.44,7.68.94,15.8,6.61,21.41,1.32,1.3,3,2.73,3.32,4.67s-1.34,3.8-1.54,5.83c-.35,3.51,2.47,6.37,5.05,8.32a65.66,65.66,0,0,0,6.32,4l7.43,4.4,15.07,8.92c.18.11.55.05.62-.17a27.72,27.72,0,0,0-1.08-21.08A26.7,26.7,0,0,0,286.9,529a27.79,27.79,0,0,0-10.43-1.56c-.82,0-1.63.11-2.45.22a7.22,7.22,0,0,1-1.22.2,3.39,3.39,0,0,1-1.6-.73,8.92,8.92,0,0,1-3.37-4.53,8.47,8.47,0,0,1,4.14-10c4-2.1,9.08-.31,12.85,1.51,8.08,3.89,14.11,10.91,19.81,17.62l.46-.42a105.54,105.54,0,0,1-37.57-11.17l-.13.41a17.21,17.21,0,0,1,13.54-.27,16.57,16.57,0,0,1,5.72,3.77c1.54,1.57-3.13,1.92-4,2-1.33.1-2.88.18-3.95,1.08a3.15,3.15,0,0,0-.46,4.06c1.61,3,5.31,4.37,8.22,5.62,3.37,1.44,7.54,3,8.18,7.11l.57-.33c-4.86-1.35-7.43-6.08-10.44-9.72a20.06,20.06,0,0,0-5.53-4.81,43.16,43.16,0,0,0-7.18-3,46.07,46.07,0,0,1-7.82-3.25c-2.57-1.48-4.76-3.51-7.27-5.08-4.7-2.95-10.25-3.56-15.65-2.7-6.62,1-12.83,3.89-18.79,6.86-.17.09-.29.26-.12.41a42.82,42.82,0,0,0,43.25,7.36c.17-.07.29-.27.12-.41A26.27,26.27,0,0,0,241,525c-.44.15-.33.57.12.48,6.73-1.41,14.35,3.11,20.47-1.49A6.37,6.37,0,0,0,264.2,518c-.37-2.54-2-4.75-3.36-6.84-1.65-2.5-3.48-5.3-2.68-8.42,0-.1-.07-.18-.15-.21A47.61,47.61,0,0,1,229.43,473l-.48.35c14.6.88,27.34,13.18,28.84,27.71l.69-.26-13.72-13.56-.46.41a19.35,19.35,0,0,1,16.92,13.72c.09.3.71.16.73-.12.41-7,4.52-18.14,13.54-16.3a10.47,10.47,0,0,1,8.06,8.36c.66,4.52-2.43,8.68-6.24,10.77-5.3,2.9-11.69,1.89-17.16.06l0,.4a37.75,37.75,0,0,1,19.37-6.79c.14,0,.57-.22.37-.42L274,491.45c-.23-.22-.91.07-.67.32l6,5.89.36-.42a38.92,38.92,0,0,0-19.92,7c-.16.11-.18.33,0,.4,5.28,1.76,11.31,2.75,16.61.49,4-1.71,7.58-5.37,8-9.9s-2.8-8.67-6.86-10.27a10.19,10.19,0,0,0-10.92,2.57c-3.57,3.55-5.06,8.9-5.34,13.8l.72-.13a19.82,19.82,0,0,0-17.39-14c-.14,0-.69.19-.46.41l13.73,13.57c.2.2.73.07.69-.26-1.52-14.74-14.53-27.13-29.31-28-.17,0-.57.1-.49.35a48.1,48.1,0,0,0,21.74,26.47c1.1.62,2.22,1.2,3.36,1.73.68.32,1.36.61,2,.89.33.14.73.24,1,.41.54.29.45.28.37.87a9.18,9.18,0,0,0,1.54,5.67c2.19,3.82,7.17,9,3.4,13.49-2.24,2.63-6.17,3.16-9.41,2.88-3.94-.34-7.81-1.4-11.76-.57l.12.48a25.5,25.5,0,0,1,24.07,4.09l.13-.41A42,42,0,0,1,223,521.84l-.12.41c10.31-5.14,23.52-10.94,34.27-3.7,2.32,1.57,4.43,3.45,6.9,4.81a45,45,0,0,0,6.88,2.87,46,46,0,0,1,7.78,3.22,20.06,20.06,0,0,1,5.54,4.84c3,3.7,5.66,8.39,10.57,9.75.21.06.62,0,.57-.33-.92-5.89-8.61-7-12.87-9.51a9.35,9.35,0,0,1-3.58-3.34c-1.15-2.14,0-3.82,2.19-4.17s5.32.1,6.83-2.12a.18.18,0,0,0,0-.2,18.13,18.13,0,0,0-20.84-4.24c-.13.06-.34.3-.12.41a106.36,106.36,0,0,0,37.88,11.28c.17,0,.66-.18.46-.42-5.22-6.13-10.65-12.45-17.7-16.54-5.81-3.37-15-6.39-19.51.59a8.89,8.89,0,0,0,3.83,12.77,3.62,3.62,0,0,0,2-.08,23.5,23.5,0,0,1,3-.25,26.61,26.61,0,0,1,25.72,35.76l.63-.17c-8.83-5.23-17.79-10.3-26.51-15.71-3.11-1.92-7.26-5-7.21-9,0-2.06,1.57-3.68,1.61-5.71a6.28,6.28,0,0,0-2.12-4.24,35.87,35.87,0,0,1-3.94-4.42,21.21,21.21,0,0,1-2.59-5.46,34.41,34.41,0,0,1-1.34-12.2c.46-9.43,3.7-18.65,2.9-28.16-.65-7.72-4.49-16-12.15-18.88-.3-.11-.85.32-.43.48Z"/></g><g class="cls-1"><path class="cls-2" d="M365.58,317.79A38.35,38.35,0,0,1,339.33,296l-.66.26c6.26,1.75,12.74,4,17.56,8.52,4.43,4.21,7.18,10.66,5.37,16.72l.7-.18-9.06-9.1-.63.29,4.36,2.21c.15.08.8-.17.64-.28a18.08,18.08,0,0,0-18-1.37,17.7,17.7,0,0,0-9.75,15.15.11.11,0,0,0,.07.06,29.53,29.53,0,0,0,23.2,1.22c2.82-1,6.61-2.81,6.83-6.27.21-3.25-3-5.78-5.95-6.27-4.25-.7-8.32,1.93-11.69,4.15-.08,0-.12.15,0,.18,4.86,1.63,9.82-.37,14.38-2s10.44-3.06,14.44.59c.15.14.83-.1.67-.26l-5.39-5.75c-1.58-1.69-3.31-3.32-4.74-5.13a4.71,4.71,0,0,1,0-6.38,23.61,23.61,0,0,1,5-4.16,66.16,66.16,0,0,1,25.68-10.71l-.3-.11a29.29,29.29,0,0,1-20.63,24.42,27.18,27.18,0,0,1-2.81.64c-.4.07-.81.13-1.21.18s-1.58.34-1.84.14.22-1.94.32-2.31a15.8,15.8,0,0,1,11.43-11.06l-.4-.09c-1.2,2.62-3.57,4.38-5.68,6.23-1.76,1.55-3.66,3.34-4,5.77-1,6.17,6.6,8.4,11.24,9,3.79.51,7.93.93,10.67,3.9l.67-.27c-3.21-2.67-3.84-7.13-2.74-11,1.3-4.57,5-7.76,9.14-9.86a55.46,55.46,0,0,1,13.58-4.58,43.61,43.61,0,0,1,13.9-1,23.36,23.36,0,0,1,13.47,5.79l.21-.25a37.9,37.9,0,0,0-12.3,7.16c-3.74,3.27-6.66,7.47-11.11,9.86a24.64,24.64,0,0,1-14.59,2.31,35,35,0,0,1-7-1.61c-1.06-.35-2.09-.75-3.11-1.19-.29-.12-1.11-.3-1.09-.65s1.77-1,2-1.14a96,96,0,0,1,17.57-7.53l-.17-.25a27.74,27.74,0,0,0-16,14.77l.7-.19c-6.16-3.43-14-2.22-19.53,1.82-6.45,4.69-8.7,12.85-6.84,20.44a23.26,23.26,0,0,0,6.92,11.64c.11.1.36,0,.47,0,7.05-2.33,14.3-6,18.59-12.28a17.17,17.17,0,0,0,.93-18.1,11.84,11.84,0,0,0-7.57-5.83c-.17,0-.57,0-.65.21L377,343.76c-.08.21.63.05.72-.11l5-8.44,2.24-3.79c1-1.63,1.8-3.33,3.72-4,2.62-.89,6.21.5,8.43,1.85a13.65,13.65,0,0,1,4.81,4.83,8.57,8.57,0,0,1,1,6.5c-.64,2.28-2.61,4.12-2.56,6.59s1.9,4.53,3.55,6.17c2.17,2.15,4.43,4.21,6.7,6.25,3.64,3.25,7.92,7.17,13.08,7.41,4.24.2,7.51-2.56,9-6.38,3.25-8.37-.16-18.38-5.65-25a29.66,29.66,0,0,0-12.16-8.78,23,23,0,0,0-7.18-1.61c-1.46-.05-3.6.29-3.92,2,0,.08.07.1.13.11,11,2.23,15.28,15,17.84,24.5.06.2.78,0,.73-.2-2.43-9-6.27-20.9-16.15-24.14-.3-.1-1.46-.22-1.63-.43-.71-.89,1.47-1.46,2-1.5a15.36,15.36,0,0,1,4.61.63,27.42,27.42,0,0,1,7.67,3.23,30.48,30.48,0,0,1,11.23,12.3,26,26,0,0,1,2.63,15.94c-.5,2.71-1.6,5.55-3.79,7.35-3.14,2.58-7.23,1.63-10.49-.17a44.23,44.23,0,0,1-8-6.21,65.49,65.49,0,0,1-7.69-7.48A7.22,7.22,0,0,1,401,347c0-1.81,1.08-3.27,1.87-4.81a8.37,8.37,0,0,0,.31-7.1c-2.07-5.07-8.22-8.8-13.7-8.13-3.28.41-4.51,3.25-6,5.81l-6.47,11,.72-.11,7.62-21.27-.65.21c5.95,1.38,9.22,7.31,9.56,13.08.42,7.15-4,13.14-9.62,17.07a44.76,44.76,0,0,1-11.57,5.52l.47,0a22.77,22.77,0,0,1-7.3-19.92,18.09,18.09,0,0,1,13.62-14.86,16.16,16.16,0,0,1,11.77,1.41.62.62,0,0,0,.7-.18,27,27,0,0,1,15.52-14.44c.4-.14.15-.36-.17-.26A98.67,98.67,0,0,0,387.33,319c-.09,0-.23.15-.08.23,6.34,3,13.67,4.57,20.65,3.23a22.27,22.27,0,0,0,8.67-3.61c3.25-2.31,5.68-5.54,8.62-8.2a36.89,36.89,0,0,1,12.44-7.39c.06,0,.32-.15.21-.25-7.16-6.56-17.47-6.88-26.54-5.16a61.87,61.87,0,0,0-14.19,4.38c-4.14,1.9-8.25,4.75-10.14,9.05s-1.59,9.75,2.17,12.88c.15.12.83-.1.67-.27-4.36-4.72-11.58-3-17-5.54-2.57-1.21-5-3.37-4.95-6.43.05-2.82,2.22-4.87,4.2-6.59s4.41-3.61,5.6-6.21c.08-.17-.36-.09-.39-.08A16.41,16.41,0,0,0,364.75,313c0,.11.13.12.21.12,13.91-.49,26.45-11.93,27.86-25.85,0-.14-.22-.12-.3-.11a68,68,0,0,0-21,7.61,49.8,49.8,0,0,0-9.32,6.42,7.35,7.35,0,0,0-2.44,3.71A4.94,4.94,0,0,0,361,309c1.45,1.81,3.16,3.44,4.75,5.13l5.39,5.75.67-.26c-4.91-4.48-12.12-1.7-17.49.22a26.85,26.85,0,0,1-6.87,1.73,9.49,9.49,0,0,1-3.71-.3c-.55-.2-.55-.18-.12-.55a13.88,13.88,0,0,1,1.8-1.12c3.72-2.18,8.45-3.67,12-.33a5.21,5.21,0,0,1,1.76,4.77,6.63,6.63,0,0,1-3.67,4.12A26.25,26.25,0,0,1,343.34,331a28.33,28.33,0,0,1-11.65-2.46c-.63-.28-1-.43-1-1.2a7.71,7.71,0,0,1,.14-1.27,16.61,16.61,0,0,1,.58-2.51,17.72,17.72,0,0,1,2.43-4.91,16.7,16.7,0,0,1,23.12-3.92l.63-.29-4.36-2.22c-.13-.06-.8.13-.64.29l9.06,9.1c.13.14.65,0,.7-.19,1.79-6-.83-12.36-5.14-16.6-4.84-4.77-11.53-7.05-17.92-8.84-.11,0-.75,0-.66.25A38.57,38.57,0,0,0,365,318.1c.19,0,.83-.26.59-.31Z"/></g><g class="cls-1"><path class="cls-2" d="M235.59,445.76c1.94-3.19,1.74-6.94,1.8-10.54a17.94,17.94,0,0,1,3-10.33c3.95-5.62,10.57-8.83,16.65-11.61l-.53-.18a104.13,104.13,0,0,1-2,12.14,42.58,42.58,0,0,1-3.2,10.06c-1.47,2.87-3.7,5.29-7,5.73-2.44.33-5.32,0-7.05,2.1l.67.08a16.47,16.47,0,0,1,6.87-12.27l-.59-.21c-1.69,4.66-1.8,10.11-5.08,14.06a7.6,7.6,0,0,1-6.94,2.93,34.75,34.75,0,0,0-6.76-.34,23.61,23.61,0,0,0-21.24,28.51c0,.13.21.19.33.17a6.6,6.6,0,0,0,3.49-1.91,48,48,0,0,1,4.28-4c3.21-2.41,6.94-4.06,10.07-6.59,2.64-2.13,5-5.11,5.54-8.53.44-2.63-.51-7.27-4.05-5.22A39.08,39.08,0,0,0,213.6,459c-.28.34.33.44.55.27a187,187,0,0,1,16.52-11.54l-.59-.21c-2.34,5.75-2,12.09-.1,17.91,2.13,6.46,6.2,11.7,10.22,17.08.16.2.5.1.64,0A22.31,22.31,0,0,0,234,446.57c-.19-.09-.55,0-.58.27a22.13,22.13,0,0,0,7.47,18.62l.56-.42a4.39,4.39,0,0,1-1.84-2.47c-.1-.34-.82-.14-.72.19a4.85,4.85,0,0,0,2,2.7c.26.17.88-.14.56-.42a21.7,21.7,0,0,1-7.29-18.26l-.58.28a21.9,21.9,0,0,1,6.7,35.13l.64-.05c-3.91-5.23-7.89-10.31-10-16.57-2-5.83-2.42-12.22-.06-18,.15-.37-.41-.32-.59-.21a187,187,0,0,0-16.52,11.54l.54.27a46,46,0,0,1,4.76-5c.87-.78,1.76-1.52,2.69-2.23a12.89,12.89,0,0,1,2.8-1.92c3-1.15,2.87,4,2.5,5.61a13,13,0,0,1-3,5.45c-2.71,3.12-6.5,4.94-9.94,7.12a27.35,27.35,0,0,0-4.58,3.5c-1.49,1.45-2.81,3.48-5,3.85l.33.16a22.92,22.92,0,0,1,23.46-27.84c2.22.11,4.45.8,6.65.28a8.79,8.79,0,0,0,4.36-2.72c3.66-4,3.75-9.72,5.52-14.59.13-.36-.4-.34-.59-.21a17,17,0,0,0-7.11,12.66c0,.34.52.25.67.08,2-2.46,6.11-1.26,8.82-2.41a11.39,11.39,0,0,0,5.37-5.56,41.93,41.93,0,0,0,3.07-9.49A103.17,103.17,0,0,0,257.19,413c0-.27-.36-.26-.52-.18-6.09,2.77-12.69,6-16.74,11.54a17,17,0,0,0-3.21,9.23c-.24,4.07.39,8.4-1.83,12.05-.21.34.53.35.7.08Z"/></g><g class="cls-1"><path class="cls-2" d="M237.7,452.08c-1.84-2.29,6.47-5.31,8-5.89a51,51,0,0,1,9.86-2.76,52.51,52.51,0,0,1,20.18.4c3,.65,6.41,1.35,8.87,3.26a4.26,4.26,0,0,1,1.9,3.34c-.06,1.88-1.69,3.05-3.24,3.76a49.11,49.11,0,0,1-10.5,3.1,49.74,49.74,0,0,1-11.54,1.09c-7.66-.23-15.31-2.64-21.18-7.66l-.19.31a32.64,32.64,0,0,1,28.1,1.41c.22.12.88-.19.58-.36a33.72,33.72,0,0,0-29-1.37c-.08,0-.32.19-.19.3a34.23,34.23,0,0,0,20.21,7.73,49.19,49.19,0,0,0,12.35-.88,47.65,47.65,0,0,0,11.94-3.51c2.26-1.11,4.38-3.42,2.81-6s-5.44-3.62-8.28-4.38a53.65,53.65,0,0,0-34.55,2.54c-1.43.61-8.86,3.32-6.8,5.87.16.2.86-.06.67-.29Z"/></g><g class="cls-1"><path class="cls-2" d="M278.18,306.87a4.64,4.64,0,0,1-1.15-5.32c1.09-2.59,4.22-2.78,6.18-1,.59.53,1.46,1.58,1.3,2.45s-2.17.12-2.93.24a1.46,1.46,0,0,0-1.17.67c-.26.49-.12,1,.44,1.14.14,0,.72-.22.65-.25l-3.33-1.4a.77.77,0,0,0-.7.18c-.81,1.7-3.29,1.67-3.74,3.69a4.1,4.1,0,0,0,2.22,4.25c1.79.9,4,.52,5.83,0a19.07,19.07,0,0,0,5.4-2.44,6.13,6.13,0,0,0,2.92-5.13,8.31,8.31,0,0,0-3.1-5.84,20.27,20.27,0,0,0-3.05-2.16,14.65,14.65,0,0,0-3.43-1.76c-1.79-.48-3.46.43-5,1.3-2,1.15-4.15,2.52-5.08,4.7-1.2,2.81.28,5.77,1.61,8.24l.66-.23a25.28,25.28,0,0,1-8.95-3.64c-2.25-1.48-6.07-4.32-4.78-7.5.6-1.47,2.17-2.27,3.46-3a13.68,13.68,0,0,1,6.18-2.35c2.85-.15,6,2.13,5.67,5.19l.53-.23a4.2,4.2,0,0,1-4-3.12,4.88,4.88,0,0,1,.72-4.49c3.26-4.47,9.36-2.67,13.62-1.06l6.67,2.56c2.09.8,4.26,1.49,6.28,2.44a3.86,3.86,0,0,1,2.38,4.69c-.7,2.56-3.26,3.74-5.66,4.26-.06,0-.45.09-.44.21.49,3.84,1,8-.74,11.64a8.66,8.66,0,0,1-3.47,3.86c-2.33,1.29-5,.57-7.18-.65-3.16-1.78-5.42-4.75-8.52-6.61s-7-2.23-10.61-2.48c-.16,0-.75.25-.6.26a35.65,35.65,0,0,1,7,1,15.87,15.87,0,0,1,5.92,3.23c3.08,2.54,6.1,6,10.38,6.24a8.1,8.1,0,0,0,7.29-4c2.37-3.78,1.81-8.44,1.28-12.65l-.44.21c3.06-.65,6.87-2.35,6.69-6.08-.1-2-1.71-3-3.41-3.69-2.34-.94-4.71-1.81-7.07-2.71-4.14-1.59-8.62-3.92-13.16-3.76-2.85.11-6.11,1.42-7.42,4.12-1.46,3,.69,7.1,4.2,6.88.12,0,.51-.08.53-.23.36-3.44-3.32-5.49-6.34-5.25s-6.32,2-8.78,3.88a3.8,3.8,0,0,0-1.75,4.09,8.26,8.26,0,0,0,3.08,4.06,25.22,25.22,0,0,0,10.88,5c.08,0,.73-.1.66-.23a13.56,13.56,0,0,1-2.05-5.81,6.24,6.24,0,0,1,2.48-5c1.67-1.42,4.82-3.66,7-2.87a21,21,0,0,1,5.09,3c2.94,2.2,5.52,6.33,3,9.83a10.18,10.18,0,0,1-4.59,3.19c-2.29,1-5.42,2-7.66.41a3.8,3.8,0,0,1-1.49-4.38c.7-1.54,2.82-1.59,3.55-3.13l-.69.18,3.32,1.41.64-.25a.63.63,0,0,1-.38-.91c.25-.58.94-.3,1.42-.22a3.91,3.91,0,0,0,1.48.11c.51-.1,1.24-.34,1.34-.94.15-.9-.89-2.08-1.53-2.61a5.08,5.08,0,0,0-2.9-1.16,4.59,4.59,0,0,0-4.3,2.14,4.75,4.75,0,0,0,.91,5.94c.14.11.77-.17.69-.24Z"/></g><g class="cls-1"><path class="cls-2" d="M262.21,307.87a8.44,8.44,0,0,0-3,6.7c0,.15.11.22.25.25,4.52,1,9.75,2.19,12.73,6.07,1.34,1.74,1.88,3.89,4.08,4.78a16,16,0,0,0,5.91.94c3.34,0,7.32-1,8.81-4.35.44-1,.53-2.1.92-3.11.71-1.82,2.38-1.85,4.06-1.89a9.17,9.17,0,0,0,5.69-2,8.52,8.52,0,0,0,.66-12.55l-.54.41c3.07.88,5.52-2.48,5-5.33-.7-3.9-5.76-4.8-9-4.35l.34.25a7.87,7.87,0,0,0-3.43-6.74,13.89,13.89,0,0,0-8.28-2.29c-3.45,0-7.12.95-10.51,0-2.65-.73-5.19-3.6-4-6.52.7-1.73,3-1.67,4.62-1.91,1.91-.3,3.83-.5,5.76-.63a66.4,66.4,0,0,1,12,.31,26.63,26.63,0,0,0,4.8.37c1.75-.12,3.3-1.1,5-1.18,3.18-.14,5,3.35,6,5.86.7,1.74,1.25,3.54,1.86,5.31s1.39,3.81,1.92,5.76.88,4.35-.4,6.08c-1.09,1.49-3.28,2.35-4.81,1l-.21.47c2.82-.88,5.6,2.85,4.42,5.42-.73,1.61-2.8,2.06-4.19,2.93a8.74,8.74,0,0,0-2.61,2.6c-3,4.51-2.78,11.67-8,14.52a9,9,0,0,1-10.29-1.32c-.11-.11-.31-.06-.44,0-3.25,1.21-1.2,6-2.46,8.41s-5.14,2.07-7.45,1.81a18.46,18.46,0,0,1-7.46-2.3c-2.52-1.51-4.32-3.87-6.18-6.09l-5.64-6.7c-1.83-2.16-3.77-4.27-5.45-6.54-1.5-2-2.42-4.37-1.55-6.86,1.48-4.23,5.93-6.65,7.31-11a.23.23,0,0,0-.22-.32c-8-1.24-18,3.61-19.48,12.17a7.29,7.29,0,0,0,1,5.47c1.14,1.59,3.89,2.23,4.49,4.13.41,1.26-.56,2.4-.71,3.62a4.28,4.28,0,0,0,.57,2.66c1.05,1.86,3.05,3.1,4.87,4.11,2.26,1.24,4.78,2.56,7.45,2.24a5.46,5.46,0,0,0,4.62-3.24c.15-.37-.4-.35-.59-.22-2.48,1.65-6.77,5.62-3.77,8.72,1.2,1.24,3.07,1.5,4.69,1.7,2.88.35,5.76.67,8.63,1,5.54.65,11.11,1.56,16.67,1.89,3.95.23,7.79-.58,10.37-3.79a10.69,10.69,0,0,0,1.61-10.89l-.64.31c6.1,3.27,12.93-.94,15.94-6.4a31.48,31.48,0,0,0,3.31-11.06c.4-3.26-.5-6.32-3.54-7.89s-6.55-1.47-9.77-1.23c-.41,0-.55.59-.05.55,3.27-.24,7.17-.35,10,1.56,3.74,2.49,2.72,7.27,1.85,11-.93,4-2.51,8.22-5.67,11s-7.74,4.05-11.54,2c-.18-.09-.79,0-.64.32a10.07,10.07,0,0,1-.58,9.09c-2.11,3.72-5.86,5-10,4.87-4.47-.2-9-1-13.41-1.48s-9.09-.84-13.56-1.62c-2.23-.4-4.55-1.8-3.81-4.42.59-2.14,2.59-3.75,4.36-4.93l-.59-.22c-2.07,5.26-8.93,1.91-12.12-.09-1.6-1-3.49-2.43-3.92-4.4s1.36-3.49.55-5.27c-.61-1.33-2.15-1.95-3.25-2.8a5.92,5.92,0,0,1-2.24-5c.1-3.88,2.56-7.29,5.55-9.57A17.33,17.33,0,0,1,258,294.74l-.22-.32c-1.22,3.8-4.67,6.15-6.62,9.51a7.16,7.16,0,0,0-1,4.84c.42,2.35,2.09,4.23,3.57,6,3.74,4.44,7.45,8.91,11.23,13.32a17.88,17.88,0,0,0,5.23,4.45,19.57,19.57,0,0,0,6.6,1.95c3.14.4,8.14.76,9.14-3.18.44-1.72,0-3.51.35-5.24a3,3,0,0,1,.35-1,1.61,1.61,0,0,1,.47-.54c1.11-.59.07-.14.38-.05s1,.77,1.35,1a9.28,9.28,0,0,0,1.27.61,9.87,9.87,0,0,0,10.14-1.8c2.73-2.57,3.53-6.47,4.77-9.86a12.06,12.06,0,0,1,3.55-5.6c1.66-1.28,4.35-1.67,5.14-3.87,1.11-3.1-2.18-6.78-5.36-5.79-.2.07-.42.29-.2.48,1.81,1.58,4.51.62,5.88-1.09,2.31-2.89.49-7.11-.54-10.13-1.19-3.45-2.08-7.28-4-10.4-1.44-2.29-3.64-3.88-6.43-3.2-.89.22-1.72.6-2.61.81a11.8,11.8,0,0,1-4,.06c-2.23-.26-4.45-.53-6.7-.62a66.57,66.57,0,0,0-12.85.66c-.91.13-1.82.29-2.72.46a3.55,3.55,0,0,0-2.07.75,3.72,3.72,0,0,0-1.11,2.88,6,6,0,0,0,4.77,5.48c4.14,1.07,8.53-.36,12.74.1,4.38.49,9.28,3.41,9,8.41a.27.27,0,0,0,.34.25c2.75-.38,6.21.11,7.81,2.68,1.38,2.22-.18,6.85-3.35,5.95-.18-.05-.81.14-.54.41a8.07,8.07,0,0,1-.92,12.21,7.7,7.7,0,0,1-3.27,1.34c-1.13.18-2.28,0-3.4.21-1.83.3-2.69,1.49-3.14,3.2-.58,2.16-1.27,3.85-3.36,4.94a11.88,11.88,0,0,1-5.67,1.11c-2,0-4.86-.24-6.46-1.63a10,10,0,0,1-1.8-2.68,11.11,11.11,0,0,0-1.76-2.28c-3.21-3.18-7.91-4.27-12.18-5.2l.25.25a7.88,7.88,0,0,1,2.77-6.3c.37-.31-.2-.59-.48-.35Z"/></g><g class="cls-1"><path class="cls-2" d="M207.34,392.87l-12.58,4.56.43.15c-.32-4.05.23-9.39,4.74-10.92a4,4,0,0,1,4.87,1.61,3.55,3.55,0,0,1-.29,4.48c-.23.22-.08.44.21.44a4.74,4.74,0,0,0,4.52-3.69.18.18,0,0,0-.09-.18c-.52-.46-2.14-1.46-2.17-2.15s1-1.36,1.52-1.69a6.79,6.79,0,0,1,4.39-.88,6.91,6.91,0,0,1,6.08,6,9.72,9.72,0,0,1-3.72,9.07,13.41,13.41,0,0,1-10.73,2.06c-1.88-.39-4.17-1.28-4-3.59a4.53,4.53,0,0,1,3.38-3.91,8.44,8.44,0,0,1,3.84.08,28.55,28.55,0,0,0,3.14.91,2.37,2.37,0,0,0,1.86-1.15c1.19-1.85.14-4.66-1.32-6-2.2-2.1-6-3-6.86-6.27a5.71,5.71,0,0,1,1.69-5.24,8.4,8.4,0,0,1,6.79-2.25,23,23,0,0,1,7,1.65c1.7.69,4.22,2.26,3.39,4.44l.47-.22a25.56,25.56,0,0,0-15.06,2.52c-.44.22-.05.61.32.43,5.7-2.79,12.19-2.2,18,0a38.68,38.68,0,0,1,8.18,4.35c2.63,1.8,4.82,3.85,4.11,7.32-1.19,5.79-7.52,9.8-12.87,11.15a20.45,20.45,0,0,1-8.35.38c-1.32-.21-3.68-.49-4.21-2-.37-1-.12-2.08-.91-2.95-1.17-1.26-3.23-1.19-4.75-.76-2.28.64-3.74,2.43-5.48,3.91-2,1.68-4.39,2.6-6.69,1a17,17,0,0,1-3.73-4.29,15.56,15.56,0,0,0-3.67-4.08,6.05,6.05,0,0,0-2-.91c-1.59-.35-3.25.28-4.81-.17-2.44-.71-3.26-3.63-3.36-5.88a17.85,17.85,0,0,1,1.71-7.76c2.52-5.66,7.89-10.51,14.38-10.32,5.55.17,11.09,3.75,12.37,9.33l.65-.3a48.47,48.47,0,0,1-12.51-11.25l-.36.43,16.43-.77-.13-.48a21.32,21.32,0,0,1-14.1,2.17,21.68,21.68,0,0,1-3.48-1c-1.19-.46-2.83-1-3.16-2.43-.47-2.06,2.56-3.18,4.09-3.49a56,56,0,0,1,8.09-.61q4-.19,8-.21c4.7,0,10-.13,14,2.73,3.39,2.42,5.25,8,2,11.29a.2.2,0,0,0,0,.26c1.43,2.44,4.71,1.3,6.92.9a6.3,6.3,0,0,1,4.92.64,8.45,8.45,0,0,1,2.78,3.85,28.65,28.65,0,0,1,1.78,10.89c0,4.09-1.9,9.26-6.67,9.6-.15,0-.38.11-.4.29-.78,7.15-7.46,13.25-14.76,12.83-7.1-.41-13.14-6.75-13.48-13.78,0-.18-.16-.26-.33-.24a5.37,5.37,0,0,0-4.77,5.34c.07,1.71,1,3.4.2,5.07a4.58,4.58,0,0,1-3.27,2.24c-6.52,1.49-12.71-4.43-15.58-9.66a21.05,21.05,0,0,1-2.6-11.36.17.17,0,0,0-.09-.18c-4.28-2.24-9.57,1.26-10.45,5.73-1.14,5.84,4.39,10.57,9.48,11.91,1.69.44,3.43.7,5.09,1.24a15.47,15.47,0,0,1,4.56,2.41c2.49,1.85,4.56,4.19,6.86,6.26,4.74,4.28,10.8,6.42,17.14,4.85a17.69,17.69,0,0,0,12.84-13.42l-.74.05-.41,4.33c0,.13.12.22.24.23,4.81.37,8.46-6.12,5.13-9.85l-.45.42a22.42,22.42,0,0,0,23.19-27.11,11.91,11.91,0,0,0-3.19-6.15,18.66,18.66,0,0,0-5.89-3.25,39.92,39.92,0,0,1-14.77-10.37.45.45,0,0,0-.68.12,11.74,11.74,0,0,0-1.73,7.22c0,.26.49.17.61.07a6.75,6.75,0,0,0,2-7.11,8.44,8.44,0,0,0-6.19-5.88,14.86,14.86,0,0,0-9.74,1c-2.53,1.17-5.3,3.64-4.43,6.71,0,.2.38.2.52.11a5.82,5.82,0,0,0,2-7.55c-1.58-3.29-5.48-4.69-8.86-5.14-7.9-1-15.39,2.68-21.34,7.59a65.12,65.12,0,0,0-9.8,10.25.21.21,0,0,0,0,.26,17.7,17.7,0,0,0,16.19,8.42c.14,0,.57-.22.36-.42-4.08-4.07-10.62-2.57-14.65.8-4.52,3.78-6,10.26-4.48,15.84a13.65,13.65,0,0,0,5.59,7.9c.26.17.9-.2.55-.42-5.85-3.84-7.39-12-4.69-18.24,2.58-5.94,11.54-11,17-5.57l.36-.42a17,17,0,0,1-15-7.27c-.36-.53-.48-.74-.13-1.29a13.23,13.23,0,0,1,1.26-1.54,65.52,65.52,0,0,1,4.81-5.19c6.74-6.51,16.31-12.42,26.05-9.71,2.51.7,5.17,2.16,6.21,4.7.93,2.24.5,5.26-1.71,6.57l.52.12c-.89-3.16,2.35-5.53,4.95-6.46a13.55,13.55,0,0,1,8.8-.33,7.81,7.81,0,0,1,5.12,5.21,6.3,6.3,0,0,1-1.67,6.74l.6.07a11.34,11.34,0,0,1,1.69-6.95l-.67.12a39.61,39.61,0,0,0,10.65,8.49c3.87,2.11,9.09,3,11.55,7s2.51,9.26,1.52,13.63a21.59,21.59,0,0,1-7.2,11.87,22.09,22.09,0,0,1-14.95,5c-.17,0-.68.17-.46.42,2.81,3.16.18,9.34-4.21,9l.24.23.41-4.32c0-.38-.67-.25-.74.05a17.11,17.11,0,0,1-8.3,11.33,16.85,16.85,0,0,1-15,.51c-4.2-1.92-7.13-5.63-10.54-8.61a19.35,19.35,0,0,0-5.23-3.44c-2.35-1-4.91-1.2-7.32-2-4.21-1.35-8.22-5.17-8.22-9.86a7.34,7.34,0,0,1,2.85-5.64,7,7,0,0,1,2.76-1.38c.86-.2,3.12-.43,3.56.64a5.89,5.89,0,0,1,0,1.45c0,.38,0,.77.06,1.15a20.38,20.38,0,0,0,.56,3.38,22.08,22.08,0,0,0,2.26,5.59,21.49,21.49,0,0,0,8.84,8.53c2.94,1.49,7.28,2,10-.22a4.23,4.23,0,0,0,1.47-4.1c-.23-1.5-.76-2.87-.17-4.37a4.62,4.62,0,0,1,3.67-2.93l-.33-.24a15.42,15.42,0,0,0,9.79,13.33,15.19,15.19,0,0,0,19.92-12.48l-.4.29c3.75-.27,6.35-3.49,7.13-7a21.93,21.93,0,0,0,.08-7.23,29.23,29.23,0,0,0-1-5.63c-.89-2.88-2.67-6-6-6.4a17.36,17.36,0,0,0-4.9.59,6.43,6.43,0,0,1-2.86.1c-.35-.1-1.08-.4-1.21-.81s.3-.68.54-1c1.86-2.72,1.06-6.5-.8-9-2.39-3.24-6.64-4.33-10.45-4.66a109.57,109.57,0,0,0-15.05.11,53.57,53.57,0,0,0-7.16.57,7.46,7.46,0,0,0-4.13,2c-3.33,3.67,4.55,5.62,6.81,6a22.3,22.3,0,0,0,14.27-2.34c.3-.16.22-.49-.13-.48l-16.43.77c-.17,0-.53.21-.36.42a48.9,48.9,0,0,0,12.61,11.34c.2.13.71,0,.64-.3-1.16-5-5.67-8.46-10.59-9.41a15.29,15.29,0,0,0-14.23,5.26c-3.41,3.85-6,9.91-4.85,15.12.49,2.19,1.85,4.23,4.24,4.5,1.57.18,3.15-.35,4.69.22a7.3,7.3,0,0,1,2.81,2.08c2.42,2.68,4.3,7.54,8.41,7.91,2.53.23,4.51-1.49,6.25-3.09a10.4,10.4,0,0,1,3.71-2.63c1.31-.44,3.18-.61,4.23.49.89.93.44,2.19,1,3.22s2.13,1.4,3.26,1.66a20.92,20.92,0,0,0,8.56.15c5.51-1,11.33-4.31,14-9.43,1.43-2.77,1.59-6-.78-8.27a31.54,31.54,0,0,0-9.38-5.8c-6.4-2.78-13.79-3.72-20.23-.57l.32.43a24.61,24.61,0,0,1,14.49-2.43.44.44,0,0,0,.47-.22c1.45-3.81-4.6-5.44-7.13-6.07-3.82-1-8.25-1.18-11.24,1.82-2.53,2.53-2.8,6.19,0,8.63,2.58,2.28,7.47,3.76,6.7,8.14a2.46,2.46,0,0,1-.49,1.15c-.48.58-.91.48-1.58.32a28.93,28.93,0,0,0-3.48-.84,6.86,6.86,0,0,0-5.12,1.11,4.89,4.89,0,0,0-2,3.94c.1,1.7,1.47,2.71,3,3.22,6.93,2.35,16.24-1,17-9.05.37-3.78-1.6-7.46-5.39-8.49-3.09-.84-6.68.09-8.37,2.95a.2.2,0,0,0,.07.25c.86.76,2.76,1.8,2.06,3.09a3.88,3.88,0,0,1-3.34,2l.2.44a3.88,3.88,0,0,0,.74-4.63,4.51,4.51,0,0,0-4.8-2.55c-5.75.73-6.84,7.17-6.47,11.87,0,.17.32.19.43.15l12.58-4.57c.43-.15.31-.65-.13-.49Z"/></g><g class="cls-1"><path class="cls-2" d="M180.44,413.3a7,7,0,0,0,3.07,8.88,21.42,21.42,0,0,0,3.12,1,5.73,5.73,0,0,1,3.23,2.33c1.26,1.83,2.09,3.79,3.64,5.42a17.11,17.11,0,0,0,21.77,2.5,17.35,17.35,0,0,0,7.37-11l-.73.13c.42,6.44,8,8.71,13.4,7.88,6.57-1,13.51-7.35,12.34-14.47-.62-3.75-3.4-7.15-7.27-7.71l-.17.39c2.52-.85,4.73,1.25,6.59,2.65,1.58,1.2,3.31,2.39,5.37,2.44,4.65.09,7.28-5.09,8.78-8.75,1.6-3.91,3.32-9.44.76-13.33a6.71,6.71,0,0,0-2.07-2c-1.3-.82-2.91-1.22-4-2.41-2-2.33-.63-5.82-.12-8.46,2.26-11.85-12.83-18.3-21.71-21.35a70.47,70.47,0,0,0-9.58-2.56c-3-.58-6.14-.7-9.18-1.28-2.67-.51-5.44-2.05-5.24-5.16s3-5.53,6-5.94c3.77-.5,7.7,1.06,11.16,2.36a83.35,83.35,0,0,1,27.28,16.89l.28-.34a35.74,35.74,0,0,1-33-8.56l-.48.36,8,1c.12,0,.68-.18.47-.36A14.2,14.2,0,0,0,219,350.25c-2.31.2-4.44,1.13-6.67,1.65-2.79.66-5.6.28-8.42.08a41.27,41.27,0,0,0-21.64,4.57A46.41,46.41,0,0,0,165.51,371a41.9,41.9,0,0,0-5.22,10c-1.28,3.55-2.49,7.81-2.07,11.62.89,8.13,11.77,5.66,14.57.21.13-.24-.25-.24-.39-.2-5.35,1.48-6.45,7.61-5.52,12.39,1.25,6.38,6.33,11.88,11.71,15.19a28.08,28.08,0,0,0,10.95,3.91c.24,0,.85-.36.44-.41a28,28,0,0,1-16.62-8.59c-3.91-4.17-6.8-9.68-5.9-15.54.46-2.95,2-5.73,5-6.57l-.39-.2a8.86,8.86,0,0,1-7.73,4.68c-3.94,0-5.67-3.3-5.48-6.9.37-6.87,3.2-13.67,7.07-19.26,8-11.49,21.58-19.35,35.72-19,2.36.06,4.7.43,7.06.41a24,24,0,0,0,6.64-1.31A13.78,13.78,0,0,1,229,354.13l.48-.36-8-1c-.12,0-.67.17-.47.36a36.49,36.49,0,0,0,33.74,8.65c.09,0,.45-.19.29-.33a84.54,84.54,0,0,0-15.27-11.24,74,74,0,0,0-17.5-7.52c-4.62-1.23-10.73-1.07-12.72,4.18a4.8,4.8,0,0,0,1.49,5.68c1.88,1.43,4.42,1.61,6.69,1.84a69.92,69.92,0,0,1,20.3,5.2c5.46,2.33,11.34,5.29,14.86,10.27a11.24,11.24,0,0,1,2.14,8.25c-.39,2.51-1.62,5.3-.83,7.85.86,2.81,4,3,5.92,4.8s2.3,4.28,2.13,6.68a25.46,25.46,0,0,1-2.48,8.77c-1.2,2.63-3,6.09-6,6.91-5.3,1.43-8.22-6.69-13.55-4.89-.14,0-.52.34-.17.39a8.54,8.54,0,0,1,6.68,6.2,10.59,10.59,0,0,1-2,9.45c-3.9,5.19-11,7.44-17,4.7a7.87,7.87,0,0,1-5-6.64c0-.26-.69-.07-.73.14-1.5,7.95-9,14.12-17.17,13.32a17.1,17.1,0,0,1-10.57-5.16A23.7,23.7,0,0,1,191,426a6.58,6.58,0,0,0-4-3.23c-2.2-.68-4.15-1.18-5.44-3.26a6.7,6.7,0,0,1-.52-6.19c.15-.33-.57-.26-.67,0Z"/></g><g class="cls-1"><path class="cls-2" d="M282.68,381.55c-2.39,3.82-4.88,7.78-5.61,12.31-.61,3.78,0,8.61,3.33,11.05,2.77,2.06,6.3.59,8.69-1.34a21.87,21.87,0,0,0,6.85-10c.24-.7.8-1.93.44-2.69s-1.47-.73-2.06-1.28c-2.06-1.9-.55-4.87.58-6.8,0,0,0,0,0-.06a7.65,7.65,0,0,0-4.73.1,9.45,9.45,0,0,1-4.38.36,8.09,8.09,0,0,1-3.07-1.51c-3.86-3-4.6-8-5.2-12.54l-.72.19c2.69,4.25,5.49,8.61,9.4,11.85,3.13,2.59,8,5.29,12.13,3.36,1.68-.79,3.11-2.62,2.76-4.57A8.41,8.41,0,0,0,299,376.6c-.84-1.07-1.73-2.1-2.67-3.08-3.69-3.92-8.34-7.88-13.4-9.86-3.45-1.34-8.64-1.17-10.48,2.69-1.1,2.3-.08,4.78,1,6.86,1.3,2.47,2.63,4.78,2.95,7.61a13,13,0,0,1-1.61,8.09c-1.62,2.71-4.71,5.11-8,3.93a5.91,5.91,0,0,1-4-4.89c-.15-2.52,2.18-4.13,2.79-6.42.74-2.8-3-4-4.85-5-2.28-1.28-6.86-2.88-5.33-6.3,1.27-2.86,4.93-4.78,7.81-5.51a14.68,14.68,0,0,1,9.47.76c.19.08.74-.22.69-.24a15.94,15.94,0,0,0-12.26-.05c-2.91,1.16-9.66,5.62-5.45,9a21.15,21.15,0,0,0,3.14,1.87c1.44.81,2.89,1.59,4.31,2.41,1,.59,1.94,1.38,1.85,2.65a7.59,7.59,0,0,1-1.51,3.24c-1.21,1.91-2,3.82-.71,5.94a6.45,6.45,0,0,0,4.77,3.12c4,.43,7.41-2.79,8.8-6.24a13.7,13.7,0,0,0,.71-7.39c-.5-2.85-2.09-5.13-3.3-7.69-1.15-2.41-1.64-5.27.48-7.31,2.71-2.61,6.65-1.67,9.64-.15a45,45,0,0,1,13.22,10.7c1.92,2.23,4.75,5.09,2.33,8-2.7,3.24-7.7,1-10.56-.87-4.94-3.22-8.24-8.37-11.34-13.26-.08-.13-.75,0-.72.19.67,5.09,1.71,11.28,7,13.64a8.59,8.59,0,0,0,5.83.21,19,19,0,0,1,2.47-.51c.51-.05,1.8-.21,1.91.61a4.07,4.07,0,0,1-.41.75,6.41,6.41,0,0,0-1,3.45,3.4,3.4,0,0,0,1.29,2.55,9,9,0,0,0,1.14.51c1,.5.75,1.3.51,2.2a21.23,21.23,0,0,1-3.54,7.12c-1.88,2.52-5.11,6-8.56,5.7-2.88-.3-4.65-3.18-5.37-5.71-1.9-6.67,1.93-13,5.33-18.49,0-.06-.6,0-.71.14Z"/></g><g class="cls-1"><path class="cls-2" d="M268.09,395.65c-3.1,4-.78,9.12,2.61,12,1.22,1,3.1,2.6,4.56,1,1.68-1.77-.19-3.82-1.57-5-.15-.13-.68,0-.7.23-.21,3.8-3.82,6.92-7.63,5.88a6.79,6.79,0,0,1-3.95-2.89c-1.07-1.69-1.15-3.76-1.22-5.7,0-.17-.73,0-.72.19.08,2.34.26,4.78,1.88,6.61a7.1,7.1,0,0,0,12.37-4.29l-.7.23c1.23,1.07,3,2.84,1.76,4.56-.83,1.14-2.14-.1-2.92-.72a14.76,14.76,0,0,1-2-1.88c-2.45-2.79-3.58-7.13-1.11-10.3.16-.21-.54-.13-.67,0Z"/></g><g class="cls-1"><path class="cls-2" d="M258.87,401.36c-.83,3.73-1.1,7.9.64,11.43a11.68,11.68,0,0,0,7.41,5.86,31.66,31.66,0,0,0,10.58.87c1.29-.06,3,.07,4-.91a3.46,3.46,0,0,0,.8-1.95c.24-1.25.45-2.51.67-3.77l.7-4a16.53,16.53,0,0,1,.4-2c.08-.26.4-.71.22-1-.29-.46-1.38-.14-1.27.41,0,.09.15.1.22.11h.13c.28,0,.77-.38.28-.42s-1.3,6.37-1.41,7c-.19,1.1-.38,2.2-.58,3.3-.26,1.46-.41,2.45-2.18,2.72a31.84,31.84,0,0,1-5.61.17,28,28,0,0,1-5.17-.57c-3.53-.78-6.81-2.67-8.46-6-1.72-3.51-1.46-7.62-.63-11.33.06-.27-.67-.16-.73.09Z"/></g><g class="cls-1"><path class="cls-2" d="M300,390.2a31.33,31.33,0,0,1-18.17,31l.51.06c-1.16-7.66,4.6-14,9.66-18.91,4.63-4.52,9.73-9.37,10.84-16.05l-.58.25a3.7,3.7,0,0,0,4-1.14,4.74,4.74,0,0,0,.81-5.17c-.85-2.1-2.62-3.71-4.29-5.18a55.86,55.86,0,0,0-5.4-4.17,58.72,58.72,0,0,0-25.83-9.67,57,57,0,0,0-15.76.25l.31.17a7.92,7.92,0,0,0-2-8.31,7.31,7.31,0,0,0-3.85-2c-1.85-.32-4.54-.34-4.8-2.77-.22-2.1,1.48-4,2.91-5.31a19.93,19.93,0,0,1,5.2-3.42A20.12,20.12,0,0,1,281.43,353c.5,1.78.48,3.63.94,5.4a2.76,2.76,0,0,0,2.71,2.36c1.62-.05,2.94-1.29,4.17-2.2a18,18,0,0,1,5.78-2.77c4.48-1.24,9.25-1,13.82-.45a30.19,30.19,0,0,1,6.82,1.2c1.49.57,4.72,2.6,2.93,4.46-.12.12-.08.23.07.28l7.57,2.49,3.79,1.25a13.13,13.13,0,0,1,3.15,1.23c4.15,2.68-3.87,7.93-6.09,9-7,3.5-15.44,3.37-23.11,3.09-.2,0-.78.34-.36.42a73.13,73.13,0,0,1,14.77,4.46c2.28,1,4.51,2.06,6.68,3.25,1.09.6,2.16,1.23,3.21,1.88l1.48.94a7.66,7.66,0,0,1,1.81,1.22c.6.83-.1,3-.22,4l-.57,4.33c-.34,2.65-.65,5.31-1,8s-1.11,5-3.65,6.11c-2,.91-4.36,1.19-6.48,1.92a35.45,35.45,0,0,0-13,8.08l.63-.07c-2.84-3.11-.12-7.44,2.32-9.79s5.29-4.43,5.91-7.85a8.41,8.41,0,0,0-10.05-9.74,9,9,0,0,0-6.55,5.85.13.13,0,0,0,.08.14c6.36,3,8.13,12.5,3.2,17.54a.16.16,0,0,0,0,.22l2.75,4.62.38-.36a29.11,29.11,0,0,0-18.12,11.27c-.53.72-1,2.05-1.92,2.32a6.87,6.87,0,0,1-3.56-.28,12.07,12.07,0,0,1-5.38-3.41c-3.09-3.28-4.39-7.8-5.63-12-.08-.28-.59-.05-.7.08A16.67,16.67,0,0,0,268,438.51l.5-.31a24.41,24.41,0,0,1-22.41-13.63c-.13-.26-.84,0-.73.2a24.91,24.91,0,0,0,22.86,13.87c.11,0,.6-.1.5-.32a16.43,16.43,0,0,1,1.88-16.83l-.7.09c1.79,6.1,4.13,13.17,10.75,15.47a9.69,9.69,0,0,0,4.07.52,3.21,3.21,0,0,0,1.43-.32c.45-.32.77-1.21,1.09-1.68a27.94,27.94,0,0,1,17.9-11.64c.15,0,.51-.14.38-.36l-1.25-2.1a9.18,9.18,0,0,1-1.25-2.1c-.15-.75,1.1-1.9,1.48-2.63a11.37,11.37,0,0,0,1.2-5.47,11.57,11.57,0,0,0-5.39-9.75c-.71-.4-.67-.6-.28-1.39a8.44,8.44,0,0,1,.85-1.34,8.34,8.34,0,0,1,3.21-2.43,7.39,7.39,0,0,1,7.31.66,8.7,8.7,0,0,1,3.41,6.13c.27,2.75-1,5-2.85,7s-4.37,3.65-5.68,6.2c-1.12,2.18-1.49,4.9.28,6.84.15.16.5,0,.63-.08a34.22,34.22,0,0,1,10-6.83,35.57,35.57,0,0,1,5.74-1.94,15.1,15.1,0,0,0,4.35-1.52c3-1.83,3.11-5.59,3.52-8.71l1.76-13.47c0-.07,0-.1-.08-.14a73.31,73.31,0,0,0-28.44-12.05l-.36.42c6.73.25,13.74.31,20.22-1.8a22.4,22.4,0,0,0,8-4.43c1.94-1.73,4.93-5,1.53-6.85-2-1.1-4.42-1.58-6.55-2.29l-7.81-2.57.07.28c2.42-2.5-2.26-4.95-4.28-5.35A61.83,61.83,0,0,0,302,354.5,24.33,24.33,0,0,0,290.9,357c-1.71.91-5.41,4.73-7.17,2.6-1.23-1.48-.93-4.12-1.35-5.92A21.16,21.16,0,0,0,267,338.14c-7.18-1.7-15.72.65-20.61,6.33-1.14,1.33-2.38,3.5-1.5,5.27s3.25,1.76,5,2.1a7.63,7.63,0,0,1,5.44,9.91c-.06.16.23.19.31.18a57.79,57.79,0,0,1,46.27,13.32c1.73,1.52,3.63,3.19,4.46,5.4a4.52,4.52,0,0,1,0,3.57c-.66,1.41-2.09,2.53-3.69,1.95-.17-.06-.55,0-.58.25-1.22,7.29-7.16,12.25-12.11,17.2-4.69,4.69-9.46,10.82-8.4,17.87,0,.19.41.11.51.07A31.84,31.84,0,0,0,300.69,390c0-.26-.75-.1-.72.2Z"/></g><g class="cls-1"><path class="cls-2" d="M316.79,357.65c2-8.48,7.81-16.37,16.8-18,5-.93,10.1-.09,15,1,5.08,1.14,10.12,2.46,15.18,3.71,1,.25,2.6.4,3.3,1.25,1,1.17-.24,2.47-.95,3.4-1.3,1.68-1.5,3.61-2.21,5.55-1.77,4.85-7.22,6.36-11.86,6.65-4.9.31-9.9.27-14.81.09a67.15,67.15,0,0,1-14.73-1.93c-1.34-.35-2.68-.76-4-1.24-.32-.12-1.72-.44-1.76-.9,0-.28,1-1.19,1.25-1.41a18.53,18.53,0,0,1,5.7-3.88,18.85,18.85,0,0,1,13.7-.6l.26-.42c-6,.31-11.6,3.43-17.68,3.14a10.87,10.87,0,0,1-7.63-3.3c-1.72-1.79-3.08-3.62-5.37-4.73s-4.72-1.66-6.26-3.62c-1.83-2.33-1.29-5.5-.51-8.12a10,10,0,0,1,1.49-3.62c1.28-1.46,3.91-.7,5.44,0a13,13,0,0,1,5.47,4.85c3.9,6,2.86,13.49,1.91,20.16l.7-.19A26.22,26.22,0,0,1,311,340.88a.13.13,0,0,0-.08-.14l-4.83-2.45c-.22-.11-.88.21-.57.37l2.63,1.33c.95.48,1.94.71,2.12,1.83.24,1.57.18,3.17.5,4.75a26.35,26.35,0,0,0,3.73,9.15c.12.2.67,0,.7-.18.93-6.52,1.93-13.78-1.59-19.75a13.37,13.37,0,0,0-5.94-5.54c-1.76-.78-4.45-1.48-6.15-.21a6.08,6.08,0,0,0-1.72,3.16,18.73,18.73,0,0,0-1.07,4.61,6.64,6.64,0,0,0,3.22,6.51c2.57,1.55,5.44,2.09,7.59,4.35,1.95,2.06,3.51,4.14,6.3,5.1,7.27,2.51,14.47-2.09,21.68-2.46.2,0,.63-.3.26-.42a20,20,0,0,0-22,6.55.14.14,0,0,0,.05.2c8.22,3.49,17.19,4.13,26,4.14,4.36,0,8.93.23,13.24-.55,3.33-.61,6.74-2.15,8.63-5.09,1.09-1.69,1.22-3.7,2-5.52.61-1.41,2.53-2.74,2.36-4.39s-2.63-2-3.95-2.33L357,342.14c-8.31-2.05-17.52-5-26-2.29-8,2.55-13.05,10-14.94,17.88-.07.29.66.18.73-.08Z"/></g><g class="cls-1"><path class="cls-2" d="M222,555.37l-14.56-8.93a50.19,50.19,0,0,1-5.78-3.87c-1.38-1.14-5-4.22-3.53-6.26.85-1.16,3.76-1,5.08-1s2.84,0,4.26.1a59.49,59.49,0,0,1,8.4,1.24A150.83,150.83,0,0,1,232,541.31a16.4,16.4,0,0,1,6.53,3.42,19.68,19.68,0,0,1,3.84,6.32c1,2.3,2.28,5,1.63,7.57a3.32,3.32,0,0,1-.55,1.28c-.82,1-2.27.66-3.31.52a23.65,23.65,0,0,1-3.81-.88,47.25,47.25,0,0,1-13.47-7.4A68.93,68.93,0,0,1,217,547.3c-.9-.83-1.77-1.69-2.63-2.57l-1.18-1.26a4.79,4.79,0,0,1-.59-.64c-.08-.77,1.82-1,2.24-1,2.81-.31,5.76.64,8.39,1.56a44.6,44.6,0,0,1,7.9,3.67,40.62,40.62,0,0,1,6.67,4.83c2,1.78,3.73,4,3.73,6.74,0,.11.72,0,.72-.19,0-3.22-2.35-5.64-4.67-7.57a44.7,44.7,0,0,0-8.78-5.68,40.17,40.17,0,0,0-9.43-3.36,11,11,0,0,0-7.67.81s-.11.07-.07.13c5.91,6.64,13.31,12.7,21.57,16.15a26,26,0,0,0,6.1,1.76c1.34.21,3.08.54,4.28-.33s1.4-3,1.2-4.47a23.19,23.19,0,0,0-2.37-6.45,17.17,17.17,0,0,0-3.09-4.79,13.76,13.76,0,0,0-5.16-3c-4.55-1.68-9.26-3.11-13.95-4.33A63.17,63.17,0,0,0,205.85,535a29.35,29.35,0,0,0-6.28.33c-1.06.21-2.31.69-2.44,1.92-.21,2,2.22,4.14,3.58,5.3a46.11,46.11,0,0,0,5.88,4l14.77,9.06c.17.1.77-.19.68-.25Z"/></g><g class="cls-1"><path class="cls-2" d="M242.61,561.22a32.79,32.79,0,0,1,.4-11.85,31.35,31.35,0,0,1,1.89-5.84c.35-.82.74-1.92,2-1.86a2.62,2.62,0,0,1,1.67,1,8.13,8.13,0,0,1,1.28,2.46,27.59,27.59,0,0,1-1.1,21.83l.62-.17A10,10,0,0,1,246,555.67l-.71.05,1.48,6.58c.07.34.8.15.72-.2L246,555.53c-.07-.3-.63-.19-.71.05a10.44,10.44,0,0,0,3.47,11.61.46.46,0,0,0,.62-.17,28,28,0,0,0,1.74-20.31c-.65-2.17-1.85-6.2-4.9-5.53-1.29.28-1.78,1.57-2.23,2.67a33,33,0,0,0-1.65,5.13,33.34,33.34,0,0,0-.5,12.43c.05.34.78.16.73-.19Z"/></g><g class="cls-1"><path class="cls-2" d="M251.14,564.15a41.89,41.89,0,0,1,2.05-6.88c.79-1.69,2.22-3.59,4.34-3.14s3.2,2.65,3.92,4.38c.78,1.9,1.69,4.55.43,6.43a4.49,4.49,0,0,1-3.41,1.67c-1.44.17-2.9.18-4.34.25-.41,0-.56.55-.07.53,1.54-.08,3.11-.07,4.64-.29a6,6,0,0,0,3.18-1.26c2-1.76,1.36-4.65.56-6.83-.73-2-1.85-4.33-3.94-5.19a4.33,4.33,0,0,0-5.18,1.93c-1.69,2.44-2.17,5.64-2.91,8.45-.09.35.65.26.73-.05Z"/></g><g class="cls-1"><path class="cls-2" d="M263.19,550.5a1.08,1.08,0,0,1,.93-.3l-.12-.1a11.51,11.51,0,0,1-1.94,4.55c-.09.13.08.14.18.14a.77.77,0,0,0,.48-.18,11.59,11.59,0,0,0,2-4.63c0-.08-.06-.09-.12-.1a2.63,2.63,0,0,0-2.06.66c-.12.12.11.15.18.14a.72.72,0,0,0,.48-.18Z"/></g><g class="cls-1"><path class="cls-2" d="M263.33,489.25a48.71,48.71,0,0,1,48.29-29.09c.36,0,.74-.49.25-.53a49.59,49.59,0,0,0-49.23,29.53c-.17.38.56.39.69.09Z"/></g><g class="cls-1"><path class="cls-2" d="M314,457.17a4.4,4.4,0,0,1,4.47-4.09l-.25-.25c-.06,2.18-4,4.8-2,7.06.81.94,2.39,1.22,3.42,1.88a12.29,12.29,0,0,1,3.43,3.35l.36-.44a24.2,24.2,0,0,1-9.29-1.84c-1-.45-1.38-1.14-.8-2.1a3.59,3.59,0,0,1,2.18-1.3,12.15,12.15,0,0,0,2.75-1.3c4-2.62,7-8.84,12.47-8.31a4.55,4.55,0,0,1,3.83,6.08c-1,2.73-3.82,4.12-6.59,4.17-1.3,0-9.3-1.07-7.47-3.7a4.91,4.91,0,0,1,1.85-1.09,12.09,12.09,0,0,1,2-.79,5.1,5.1,0,0,1,4.34.52c.2.14.8.53.8.79s-.46.64-.71.84a7.16,7.16,0,0,1-2.16,1.2,8,8,0,0,1-4.32.17c-1.89-.39-4.14-1-5.62.63-.31.35.38.49.61.23,1.64-1.82,5.15,0,7.25-.08a8.36,8.36,0,0,0,5.75-2.78.24.24,0,0,0,0-.28c-1.32-2.05-3.93-2.37-6.11-1.77a13.47,13.47,0,0,0-3.75,1.68,1.67,1.67,0,0,0-.8,2.09,4.23,4.23,0,0,0,2.68,1.91,18.44,18.44,0,0,0,4.3.94,8.79,8.79,0,0,0,7-2.18,5.47,5.47,0,0,0,1.45-6.33,5.34,5.34,0,0,0-5.82-2.73c-5.77.95-7.95,7.16-13,9.25-1.24.51-2.8.7-3.57,1.93a1.75,1.75,0,0,0,.49,2.56,15.13,15.13,0,0,0,4.76,1.51,29.27,29.27,0,0,0,5.44.63c.19,0,.51-.22.36-.44a13.56,13.56,0,0,0-5.9-4.63c-2-.88-1.39-2.71-.37-4.15a5.92,5.92,0,0,0,1.52-3.23.27.27,0,0,0-.25-.25,5.2,5.2,0,0,0-5.44,4.68c0,.39.71.3.73,0Z"/></g><g class="cls-1"><path class="cls-2" d="M311.47,460.17l-6.23.62.31.14c.31-2.12-1.43-3.63-3-4.78-1.19-.89-2.4-1.76-3.61-2.65a20,20,0,0,0-3.21-2.29c-1.7-.76-3,1.14-3.88,2.3a27.47,27.47,0,0,0-3.67,6.94.07.07,0,0,0,0,.08c1.59,1.65,4.21.48,5.56-.91,1-1.06,1.65-2.44,2.62-3.55,1.94-2.19,4.46-1.33,6.74-.26.2.1.87-.2.58-.34-2.6-1.21-5.5-2-7.73.32-1,1-1.6,2.29-2.48,3.37a4.88,4.88,0,0,1-2.23,1.62,2.27,2.27,0,0,1-1.79,0c-.66-.33-.44-.77-.22-1.33a26.52,26.52,0,0,1,2.68-5.08,10.62,10.62,0,0,1,1.87-2.4c1.32-1,2.74.59,3.74,1.32,1.62,1.19,3.28,2.33,4.85,3.58,1.31,1,2.66,2.39,2.39,4.2,0,.16.22.15.31.14l6.24-.62c.34,0,.61-.43.1-.38Z"/></g><g class="cls-1"><path class="cls-2" d="M302.33,461.71c6.14,3,10.15,8.65,13.92,14.12l.66-.24a59.77,59.77,0,0,1-20.77-5.93c-1.31-.65-2.81-1.49-3.35-2.93a3.07,3.07,0,0,1,0-2.05c.41-1.15,1.48-1.32,2.58-.94a32.09,32.09,0,0,1,9,5.23l.68-.24a70.21,70.21,0,0,1-13.31-6.39c-.17-.1-.76.2-.68.25A69.59,69.59,0,0,0,304.4,469c.12,0,.81-.14.68-.24a36.19,36.19,0,0,0-5.5-3.61c-1.44-.76-3.16-1.83-4.81-1.94-2.6-.17-3.66,2.72-2.17,4.66,1.13,1.46,3,2.19,4.68,2.93a62.17,62.17,0,0,0,6,2.35,60.79,60.79,0,0,0,13,2.74c.07,0,.75-.1.66-.23-3.77-5.47-7.8-11.18-14-14.16-.19-.09-.75.21-.69.24Z"/></g><g class="cls-1"><path class="cls-2" d="M291.36,467.61c-2.52-1.15-5.2-2.32-8-2.09a12.08,12.08,0,0,0-6,2.65c-3.81,2.75-8.08,5.94-9.14,10.79,0,.12.13.14.21.14a2.91,2.91,0,0,0,3-1.87c.08-.22-.63-.14-.72.09a1.92,1.92,0,0,1-2,1.39l.22.15c.92-4.18,4.28-7.05,7.55-9.52,2-1.49,4.07-3.17,6.63-3.42s5.3.94,7.69,2c.2.09.87-.21.58-.34Z"/></g></svg>