<svg id="Lager_1" data-name="Lager 1" xmlns="http://www.w3.org/2000/svg" viewBox="0 0 595.28 841.89"><defs><style>.cls-1{opacity:0.48;}.cls-2{fill:#fff;}</style></defs><g class="cls-1"><path class="cls-2" d="M313,335.08c.67-2.5,4.31-1.35,4.6.82.37,2.79-4.19,6.5-5.48,2.79-.35-1-.51-2.46.28-3.29,1-1,3.33-.51,4.63-.56a9.07,9.07,0,0,0,5.83-1.87c2.62-2.37,2.32-6.55-1.51-7.29a9.06,9.06,0,0,0-5.57,1.13,19.11,19.11,0,0,1-8,2.37c-2.75.06-5.55-1.28-8.28-.72-1.73.36-3.4,1.66-3.42,3.54a.2.2,0,0,0,.08.17c5.67,2.63,12.74,5.48,18.42,1.28.33-.24,0-.44-.3-.38a22.06,22.06,0,0,0-8.46,3.78c-.19.14-.15.38.11.4a6.42,6.42,0,0,1,5.51,8.46c-.67,2-1.7,3.77-2.23,5.8a21.64,21.64,0,0,0-.67,6.56l.65-.23c-4.48-3-9.13-6.22-11.89-11a14.62,14.62,0,0,1-2.08-7.8c.06-1.35.31-2.68.48-4a32.36,32.36,0,0,0,0-4.06c0-.38.23-1.35.69-1.54a3.44,3.44,0,0,1,1.1,0q.74,0,1.47,0a27.14,27.14,0,0,0,3.93-.29,29.56,29.56,0,0,0,6.27-1.65,28.87,28.87,0,0,0,6.32-3.38c1.71-1.21,3.93-2.79,5-4.65,1.13-2-1.11-3.31-2.83-3.69a6.78,6.78,0,0,0-5.92,1.51l.58.18,1-2.94c.09-.27-.21-.31-.41-.27A25.91,25.91,0,0,0,297,324.6a24.52,24.52,0,0,0-2.41,4.15,11.67,11.67,0,0,0-1.43,4.95c.08,2,1,4,1.49,5.88q.82,3.24,1.46,6.51c.45,2.33.88,4.69,1.13,7.05.22,2.1.18,4.44-1.47,6l.51-.13c-4.24-1.69-6.76-6.07-6.9-10.53a17.07,17.07,0,0,1,1.57-7.4c.93-2.07,2.26-3.94,3.08-6.07a6.08,6.08,0,0,0,.07-5.14c-.49-.89-1.39-1.55-1.59-2.59-.27-1.47.83-2.83,1.88-3.71,1.48-1.24,3.38-1.82,4.83-3.11a5,5,0,0,0,1.3-1.69,9.22,9.22,0,0,0,.36-3.39,4.25,4.25,0,0,1,1.62-3.13c.83-.67,2.57-1.45,3.65-.91.43.21.24,0,.3.38a6,6,0,0,1-.5,1.35l-.66,1.81-1.65,4.51c-.14.38.58.35.69.07l3-8.12a.19.19,0,0,0-.13-.27,5.31,5.31,0,0,0-6.95,3.77c-.21,1.19.11,2.41-.29,3.58a5.43,5.43,0,0,1-2.45,2.67c-1.75,1.1-3.69,1.85-4.92,3.61a3.42,3.42,0,0,0,.16,4.49c1.7,2.19,1.25,4.48.14,6.86-1,2.17-2.37,4.14-3.18,6.4a16.48,16.48,0,0,0-1,6.6,11.85,11.85,0,0,0,7.18,10.42.51.51,0,0,0,.51-.14c2.27-2.11,1.74-5.48,1.34-8.24a110.18,110.18,0,0,0-2.58-12.59c-.5-1.91-1.51-4-1.13-6a18.42,18.42,0,0,1,2-5.09,25.25,25.25,0,0,1,6.56-7.75A24.52,24.52,0,0,1,313,314.78l-.41-.27-1,2.94c-.11.34.41.34.58.19a5.72,5.72,0,0,1,7.05-.47c2.51,1.89-2.09,5.12-3.58,6.23a27.94,27.94,0,0,1-13.46,5.4,26.5,26.5,0,0,1-3.45.19,11.93,11.93,0,0,0-2.67,0,1.42,1.42,0,0,0-1.16,1,3,3,0,0,0,.07,1.22,11.78,11.78,0,0,1,.12,2.59c-.15,2.37-.78,4.68-.57,7.07a15.52,15.52,0,0,0,2.11,6.33c2.77,4.82,7.48,8,12,11.1.16.11.66,0,.65-.23a21.59,21.59,0,0,1,.91-7.41c.72-2.32,2.37-4.55,2.4-7a6.93,6.93,0,0,0-6.39-6.81l.1.4a21.18,21.18,0,0,1,8.12-3.62l-.3-.38c-3.13,2.31-7.16,2.29-10.76,1.27a36.24,36.24,0,0,1-5.05-1.93c-.89-.4-1.79-.58-1.26-1.72a3.67,3.67,0,0,1,2.81-1.88c1.72-.25,3.45.37,5.13.62a16,16,0,0,0,5-.05,16.74,16.74,0,0,0,4.24-1.34c1.63-.75,3.24-1.77,5.06-2s3.8.36,4.47,2.14a4.23,4.23,0,0,1-1.19,4.23c-1.35,1.4-3.38,1.75-5.24,1.84-1.43.07-3.17-.28-4.54.24-2.1.79-2.17,4.12-.71,5.56s3.89.27,5-.95c1.5-1.62,1.93-4.66-.45-5.7-1.61-.7-3.88-.18-4.37,1.67-.09.32.65.23.73-.07Z"/></g><g class="cls-1"><path class="cls-2" d="M296.09,346.52a66.94,66.94,0,0,1-21-9.86c-1.56-1.1-3.25-2.81-5.28-2.9a3.52,3.52,0,0,0-3.41,2.41c-.76,2,.05,4,.95,5.76,1.2,2.38,2.49,4.71,3.74,7.06.39.75.75,1.75,1.56,2.15a3,3,0,0,0,2.32-.13,16.1,16.1,0,0,1,8-.94,15.29,15.29,0,0,1,7.36,3.31l.41-.47a11.77,11.77,0,0,0-11.47,7.78l.56-.2a10.26,10.26,0,0,1-7.29-11.67c.06-.28-.38-.24-.52-.19-2.73,1.12-2.69,4.64-1.38,6.85a11.33,11.33,0,0,0,4.25,3.57,17.1,17.1,0,0,1,5.29,4.14c2.56,3.35,3.33,7.77,4,11.84a14.37,14.37,0,0,1,0,6.36,5.84,5.84,0,0,1-4.34,3.95c-3,.88-7,.83-8.58,4l.68-.12c-4.74-4.62-8.59-10.77-8.81-17.56-.19-6.12,2.81-12.53,8.47-15.28l-.53-.19c.15,3.35,2,6.09,3,9.19.84,2.64.87,6.46-1.9,8l.49.06a30.83,30.83,0,0,1-3.49-19.94c0-.14-.13-.22-.24-.23-3.6-.52-7,3.15-5.9,6.7l.4-.36A22.89,22.89,0,0,1,242,349.72l-.09.33c2.1-1.32,4.81.31,7.1-.07,2.68-.46,2.76-3.61,5.12-4.56,2.77-1.12,5.84.24,8.28,1.54s4.83,2.61,7.65,2.52l-.12-.48a28.77,28.77,0,0,1-11.27,3.73l.13.48c3.28-1.23,6.6-2.37,9.85-3.68,2.36-1,2.72-2.86,1.47-5-1.6-2.78-3.8-5-4.67-8.22-.77-2.83-.31-6.2,2.08-8.13.11-.08.21-.29,0-.37-4.48-2.32-8.09-5.84-11.55-9.45-1.54-1.61-3.53-3.39-3.9-5.71s1.54-4.19,3.18-5.69a8.32,8.32,0,0,0,2.76-3.67,4.8,4.8,0,0,0-.28-3.79,2.53,2.53,0,0,0-3-.93A18.29,18.29,0,0,0,252,300a24.31,24.31,0,0,1-3.88,1.59,24,24,0,0,1-7.86,1.06c-2.41-.08-4.84-.68-7.24-.24-3.49.64-6.22,4.11-3.68,7.32,4.68,5.89,15.26,7.79,21.48,3.38a6.79,6.79,0,0,0,3.14-4.77c.16-2.39-1.89-3.81-2.44-5.95a2,2,0,0,1,.27-1.72,2.15,2.15,0,0,1,.49-.55c.23-.19,1.25-.67,1.45-.13s-.79,1.56-1,1.85a16.56,16.56,0,0,1-1.05,1.3,15.26,15.26,0,0,1-6.71,4.33l.43.21c.91-4.37,6.91-4.59,9.64-7.41,1.13-1.17,2.22-2.9,1.75-4.59-.58-2.1-3.06-2.41-4.57-3.57-3.52-2.69-4.15-7.94-2.83-11.92,1.66-5,5.68-8.78,9.29-12.43L273.17,253l-.52.14c3.05,1.34,3.57,5.19,3.32,8.14-.27,3.37-1.29,7,.46,10.18.85,1.54,2.24,2.7,3,4.28a7.22,7.22,0,0,1,.12,5.73c-1.31,3.58-4.17,6.33-6.89,8.87a105.8,105.8,0,0,1-11.07,9l.58.21a27,27,0,0,0,1.32-21.32l-.2.3a9.29,9.29,0,0,1,5.95-1.14l-.24-.23-2.94,10.41a33,33,0,0,0-1.3,4.82,2.31,2.31,0,0,0,1.08,2.41c1.75,1,4.09.25,5.89-.15a42.58,42.58,0,0,1,21,.74,7.76,7.76,0,0,1,3.94,2.14c1.3,1.58,1,4.11-1.25,4.51a24.18,24.18,0,0,1-5.1-.11c-1.78-.1-3.55-.2-5.33-.33a96.65,96.65,0,0,1-10.59-1.33c-4.07-.77-10.45-2-12.75,2.62l.71,0,.52-2a.21.21,0,0,0-.09-.18c-5.94-3.47-11.81-7.08-17.86-10.34-5.38-2.9-11.12-5.33-17.31-5.52-.16,0-.41,0-.47.22-1.51,4.36,4.89,6.4,7.82,7.53l17.32,6.64c.18.07.57,0,.58-.27a19.81,19.81,0,0,0-26.34-19.67c-.12,0-.44.23-.27.41a17.09,17.09,0,0,1,4,6.49.34.34,0,0,0,.43.15c1.07-.31,1.25-1.23,1.24-2.26a7.11,7.11,0,0,1,.15-2.56,5.18,5.18,0,0,1,1.9-2.41c1.92-1.39,4.42-1.51,6.67-1.9a26.44,26.44,0,0,0,5.4-1.53c2.29-.93,6.78-2.84,6.44-6-.18-1.63-1.87-2.62-2.6-4a9.89,9.89,0,0,1-.82-5.63,45.79,45.79,0,0,1,2.56-10.15,31.71,31.71,0,0,1,4.39-8.83,16,16,0,0,1,3.36-3.36,13.17,13.17,0,0,1,2.15-1.24c1.15-.53,3-1.21,3.91,0a16.71,16.71,0,0,1,1.47,2.65l1.71,3.27a31.07,31.07,0,0,1,2.91,6.31c2.14,7.94-7.88,10.27-11.23,15.76l.71,0,.9-14.18c0-.35-.52-.24-.67-.08-8.93,10.37-8.33,25.94-18.13,35.71l.58-.1c-3.39-1.89-7-3.87-11-3.94-2.39,0-4.73.68-7.12.27a30,30,0,0,1-6.32-2.25,102,102,0,0,0-12.9-4.38c-3.35-.89-6.79-1.77-10.28-1.54-3,.19-6,1.31-7.45,4.16-.14.26.24.32.41.28,11.7-2.66,24.41,2.2,32,11.34a30.38,30.38,0,0,1,5,8.6l.2-.3a19.22,19.22,0,0,1-20.57-3.44c-4.73-4.41-6.63-11.68-12.9-14.41-.25-.11-.83.28-.49.45l18.52,9.5.41-.46a72.38,72.38,0,0,1-22.19-7.3c-.2-.1-.73,0-.64.31,1.77,6.36,8.58,9.07,13.14,13.11,3.06,2.69,5.41,6.49,5.46,10.67a9.78,9.78,0,0,1-5.84,9.27l.49,0-9.65-10.42c-2.73-3-5.68-5.84-7.95-9.18-2.05-3-3.51-6.59-2.82-10.27.63-3.38,2.94-6.74,6.59-7.1l-.32-.3c-3.47,7.58,3.72,13.92,9.11,18l.49-.45c-4.29-1.06-5.91-5.58-6.64-9.48-.76-4.07-1.44-9.36.56-13.19,2.11-4.05,6.91-3.81,10.59-5.45a6.18,6.18,0,0,0,3.44-3.4c.79-2.15,0-4.49-.83-6.5a57.57,57.57,0,0,1-3.37-8.72,33.24,33.24,0,0,1-.87-9.84c0-.22-.27-.27-.43-.22-8.42,2.55-18,6-20.7,15.36-1.39,4.85-.91,10.33.17,15.2.46,2,1.31,4.23,3.28,5.24a4.14,4.14,0,0,0,4.52-.27c1.91-1.62,1.79-5.1,2.11-7.34l1.51-10.57c.05-.37-.69-.27-.74.05a44.37,44.37,0,0,1-8.18,19.82l.51-.14q-5.94-2.64-11.85-5.36c-3-1.37-6.52-3.78-9.88-2.45a.27.27,0,0,0-.17.37l2,3.89a29.28,29.28,0,0,1,2,3.9.49.49,0,0,1,.05.78.77.77,0,0,1-.32.5,6,6,0,0,1-.65.58c-.49.44-1,.87-1.49,1.29q-1.59,1.35-3.24,2.61a82.21,82.21,0,0,1-13.87,8.52l.52.19c.6-7.55,2.94-16.29,10.76-19.29a10.91,10.91,0,0,1,5.39-.69c.32.05,1.28.07,1.36.41s-.59.88-.74,1.08a11.65,11.65,0,0,1-1.88,1.9,12,12,0,0,1-10.32,2.33c-.31-.07-.86.38-.42.49a13,13,0,0,0,14.22-6c.07-.11,0-.24-.14-.28-4.75-1.51-9.84.5-13.19,4-4.08,4.27-5.32,10.44-5.77,16.12,0,.28.36.27.53.19a83.77,83.77,0,0,0,20.28-13.9.21.21,0,0,0,0-.27l-4.44-8.65-.17.38c2-.79,4,.13,5.8,1s3.41,1.58,5.13,2.36q5,2.31,10.06,4.54a.5.5,0,0,0,.52-.13,45,45,0,0,0,8.31-20.08l-.74.05c-.69,4.89-1.23,9.84-2.1,14.7-.24,1.35-.72,2.92-2.21,3.35a3.94,3.94,0,0,1-3.38-.89c-1.75-1.44-2.21-3.94-2.57-6.05-.73-4.36-1.1-9,.09-13.28a17.06,17.06,0,0,1,7.45-9.76c3.86-2.51,8.33-3.92,12.7-5.25l-.44-.21a33.94,33.94,0,0,0,3.26,16.53c1.18,2.49,2.86,5.57,1.86,8.39-.8,2.26-3,3.16-5.14,3.77-3.68,1-7.53,1.79-9.18,5.69s-1.05,8.7-.33,12.69,2.47,8.83,7,9.94c.22,0,.83-.19.49-.45-5.22-4-12.36-10.13-9-17.51.09-.21-.14-.32-.32-.31-5,.5-7.9,5.81-7.55,10.49.52,6.87,6.65,12.2,11,16.91l9.65,10.42a.42.42,0,0,0,.49.05,10.22,10.22,0,0,0,6.12-7.9c.63-3.85-.93-7.79-3.38-10.72-4.49-5.41-13.06-7.76-15.1-15l-.64.31a73.88,73.88,0,0,0,22.49,7.4c.2,0,.75-.3.41-.47l-18.52-9.51-.49.46c3.51,1.52,5.69,4.73,7.73,7.82s3.89,5.88,6.8,8a20.11,20.11,0,0,0,19.68,2c.1-.05.25-.18.2-.31-4.37-11.51-15.72-19.61-27.87-20.85a30.8,30.8,0,0,0-10,.61l.41.29c3.19-6.37,13.11-3.23,18.21-1.78a100.31,100.31,0,0,1,11.53,4,35.51,35.51,0,0,0,5.38,2,14.65,14.65,0,0,0,5.24.13,15.58,15.58,0,0,1,7.08.58,38,38,0,0,1,6.37,3,.49.49,0,0,0,.58-.11c9.82-9.78,9.21-25.34,18.14-35.7l-.67-.08-.91,14.17c0,.39.59.22.72,0,3-4.87,11-6.76,11.57-13.09a11.56,11.56,0,0,0-1.48-5.93c-1-2-2.11-4-3.17-6.06-.71-1.35-1.43-3.83-3.15-4.2-1.39-.31-3.08.53-4.28,1.16-5.8,3.09-8.49,9.81-10.29,15.76-1,3.28-2.12,6.8-1.91,10.28a8.13,8.13,0,0,0,1.73,4.74,7.27,7.27,0,0,1,1.65,2.18,3.17,3.17,0,0,1-1.21,3.19c-1.86,1.77-4.68,2.83-7.1,3.53s-4.81.76-7.14,1.44a7.5,7.5,0,0,0-4.35,3,4.46,4.46,0,0,0-.72,2.43c0,.75.42,2.65-.58,2.94l.42.15a17.45,17.45,0,0,0-4.09-6.62l-.27.4a19.52,19.52,0,0,1,18.24,3.15A19.73,19.73,0,0,1,252.12,299l.58-.27-15-5.76c-2.86-1.1-11.46-3.21-9.86-7.85l-.47.22c6.69.21,12.81,3.05,18.56,6.27,2.92,1.64,5.81,3.36,8.7,5l4.65,2.71c.68.4,1.47.76,2.11,1.23s.62.43.55,1.13a10.43,10.43,0,0,1-.32,1.22c-.09.36.61.23.72,0,2.58-5.15,10.9-2.23,15.16-1.62,3.52.51,7.08.79,10.63,1,1.7.1,3.4.19,5.1.26a6.85,6.85,0,0,0,3.39-.38c1.93-1,2-3.46.71-5-1.69-2.06-4.95-2.59-7.4-3.12a43.81,43.81,0,0,0-19.2.28c-1.32.31-3.31.78-4.52-.13-1.53-1.15-.2-3.84.21-5.3l3.35-11.84c0-.14-.14-.22-.24-.23a10.18,10.18,0,0,0-6.53,1.24c-.1.06-.25.17-.2.31a26.62,26.62,0,0,1-1.29,21c-.18.35.43.32.59.21a104.18,104.18,0,0,0,10.45-8.41c2.85-2.6,5.83-5.36,7.42-8.95a8.83,8.83,0,0,0,.83-4.77,9.59,9.59,0,0,0-2.45-4.61,9,9,0,0,1-2.18-6.09c0-2,.47-4,.58-6.07.17-3.08-.57-6.72-3.67-8.09a.51.51,0,0,0-.51.14l-13.15,13.34c-3.59,3.64-7.61,7.23-9.9,11.88-1.8,3.67-2.2,8.13-.19,11.81a8.78,8.78,0,0,0,4.17,3.77c1.27.61,2.57,1.33,2.62,2.91a4.9,4.9,0,0,1-1.37,3.16c-2.8,3.25-9.12,3.24-10.12,8.07-.05.22.29.26.43.22a16.14,16.14,0,0,0,8.7-6.59c.32-.5,1-1.12.59-1.7a1.27,1.27,0,0,0-1-.5,2.91,2.91,0,0,0-2.55,2c-.52,1.58.82,3.09,1.56,4.35a4.84,4.84,0,0,1-.82,6.24c-3.26,3.35-8.83,3.74-13.14,2.67a17.16,17.16,0,0,1-5.93-2.74c-1.79-1.3-4.24-3.43-3.25-5.93,1.12-2.8,4.47-3.11,7-2.9a38.53,38.53,0,0,0,7,.22,24.89,24.89,0,0,0,6.25-1.44,25.15,25.15,0,0,0,3.13-1.41c1.11-.6,2.63-1.87,3.89-1s1.11,3.21.6,4.52c-.67,1.7-2.35,2.78-3.6,4s-2.45,2.91-2.21,4.87c.29,2.32,2.16,4.11,3.69,5.71,3.58,3.74,7.3,7.45,12,9.85l0-.37c-4.26,3.43-2.69,9.28-.18,13.24,1.4,2.2,5.57,6.36,1.45,8-3.25,1.32-6.57,2.46-9.85,3.68-.34.13-.21.52.12.48a29.94,29.94,0,0,0,11.66-3.83c.29-.18.23-.49-.13-.48-5.68.18-10.32-6.35-16.23-4a5,5,0,0,0-2.33,1.9,13.51,13.51,0,0,1-1.13,1.82,3,3,0,0,1-2.57.83c-2.19-.13-4.41-1.05-6.44.22a.23.23,0,0,0-.09.32,23.54,23.54,0,0,0,22,10c.15,0,.46-.15.4-.36-.94-3,1.71-6.45,4.92-6l-.24-.23A31.13,31.13,0,0,0,272,373.7c.08.15.37.12.49.06,2.43-1.34,3.05-4.11,2.72-6.7-.48-3.86-3.25-7-3.42-10.95,0-.27-.34-.28-.53-.19-5.63,2.74-8.84,8.92-8.89,15.06-.06,7.14,3.91,13.68,8.89,18.52a.44.44,0,0,0,.67-.11c1.57-3.05,5.9-2.78,8.73-3.79,3.16-1.12,4.6-3.75,4.59-7a35,35,0,0,0-2.14-11.35,15.61,15.61,0,0,0-2.74-4.91,17.44,17.44,0,0,0-4.58-3.46c-2-1.16-4.16-2.4-5-4.68-.63-1.8-.52-4.28,1.5-5.1l-.53-.19a10.66,10.66,0,0,0,7.6,12.1c.17,0,.48,0,.55-.2a10.9,10.9,0,0,1,10.52-7.34c.22,0,.71-.22.41-.47a15.92,15.92,0,0,0-15.33-2.71,3,3,0,0,1-2,.26c-.92-.17-1-.29-1.36-1-.62-1.11-1.2-2.25-1.79-3.37a40.32,40.32,0,0,1-3.27-6.58c-.75-2.38.21-6.22,3.52-5.05a10.84,10.84,0,0,1,2.63,1.67c.94.69,1.9,1.36,2.88,2,1.82,1.2,3.71,2.32,5.65,3.34A68.39,68.39,0,0,0,295.67,347c.31.08.85-.37.42-.49Z"/></g><g class="cls-1"><path class="cls-2" d="M283.76,421.41a15.46,15.46,0,0,1-13.47-6.2c-2.12-2.87-4-7.39-7.91-8.15-2-.38-3.82.46-5.59,1.31a8.78,8.78,0,0,1-4.78,1.15,9.26,9.26,0,0,1-3.76-1.32c-4.5-2.67-6.55-7.54-9.38-11.69a17,17,0,0,0-5.51-5.4,28.49,28.49,0,0,0-8.61-2.69c-.14,0-.82.2-.52.35a23.35,23.35,0,0,0,21.88-.65c.12-.07.23-.26,0-.28a217,217,0,0,1-27-4.06l-.37.37q7.35.53,14.72.34c2.28-.06,4.57-.16,6.84-.34a15.54,15.54,0,0,0,5.3-1.19c6.14-2.86,6.68-10.85,9.75-16.11.16-.29-.46-.14-.56-.09a27.34,27.34,0,0,1-15.49,3.47c-1.77-.13-3.47-.59-5.23-.76a6.6,6.6,0,0,0-5.73,2.52c-1.83,2-4.95,7-8.17,4.23l-.49.33c6.05.11,13.95-.12,17.16-6.32,1.73-3.35.48-7-.51-10.4l-3.65-12.47c-.69-2.35-1.61-5.54-4.69-5.1a13.69,13.69,0,0,0-4.21,1.82c-1.8.94-3.59,1.89-5.36,2.88a83.36,83.36,0,0,0-9.55,6.08c-2.45,1.83-6,4.12-5.5,7.65s3.84,7,6.44,9.28a30.38,30.38,0,0,0,9.88,5.86c.17.07.59,0,.65-.21,1.18-4.09-.49-8.06-.75-12.14-.2-3.22.79-7.67,4.38-8.6l-.41-.07c1,3.73-2,6.81-3.84,9.72s-2.67,6.11-1.43,9.46c2.35,6.36,10.47,8,15.52,3.75.29-.24-.29-.24-.42-.18a15.23,15.23,0,0,1-12.32.26c-3.75-1.58-6.08-4.93-9.47-7-2.53-1.56-5.88-2.19-8.46-.39-1.57,1.1-2.78,2.49-4.82,1.65a11,11,0,0,1-3-2.17c-1.93-1.77-4-4-6.79-4-.09,0-.74.23-.43.35a193.33,193.33,0,0,1,22,10.24l.07-.26a10.5,10.5,0,0,1-8.94.91l-.59.33c1.69.48,3.44.86,5.08,1.45.72.25.77.19-.05.74l-.89.56a22.19,22.19,0,0,1-2.37,1.23,22.51,22.51,0,0,1-10.05,1.92l-.1.36a91.85,91.85,0,0,1,16.79-2.88l-.31-.13c-2.21,5.09-9.31,5-14,5.41L175.13,388l.31.13c4.17-10.18,16.45-15.93,26.93-12.45l.34-.35a23.8,23.8,0,0,1-19.77-5.39c-2.34-1.92-4.66-3.58-7.78-3.78-3.36-.2-6.65,1-9.76,2.12l.5.08c5.16-11.83,19.11-18.67,31.67-16.13a21,21,0,0,1,9.39,4.27c2.7,2.27,5,5.69,4.36,9.38-.58,3.21-3.18,5.48-4.44,8.38-1.37,3.14,0,5.89,2.43,8,2.64,2.28,8.06,5.25,6.37,9.56-.89,2.26-3.57,3.14-5.8,2.69s-4.31-2.15-6-3.82l-.56.32,7.18,1.92c.1,0,.7-.1.59-.28-2.17-3.55-7.61-3.84-10.35-.82a.11.11,0,0,0,0,.14,18.21,18.21,0,0,0,9,5.47v-.28c-3.9,2.17-8.29,4.6-12.91,4a8.72,8.72,0,0,1-7-5.82c-1.19-3.76,1.57-6.45,4.89-7.71,2.65-1,6.92-1.27,8,2l.41-.28c-3,.29-6.42,2.44-6.41,5.77,0,2.83,3.16,5.23,5.85,4.14a9.07,9.07,0,0,0,1.89-1.3c1.83-1.36,3.34-.42,4.85.69a14.38,14.38,0,0,0,4.28,2.45,12.52,12.52,0,0,0,8.46-.65,11.32,11.32,0,0,0,6.62-7.21c0-.06,0-.09-.07-.12L221.15,389c-.14-.07-.81.11-.62.31,2.46,2.59,5.1,5.38,5.82,9s-.78,7.16-4.38,8.28c-2.94.92-6.26.31-9.18-.39-2.49-.6-6.25-1.76-6.22-4.9l-.73.19c1.82,4.44-2.6,8.66-6.84,8.81-4.57.17-9.22-2.55-12.76-5.2-3-2.27-6.07-5.57-6.23-9.57s3.33-9,7.74-7.67l.34-.35c-3.6.54-7.11,2.58-8.65,6a8,8,0,0,0,2.56,9.73l.57-.32c-7.72-2-15.21-8.25-14.06-17,.5-3.83,2.88-7.4,6.78-8.39,3.46-.87,7.45.29,9.36,3.43.13.22.82,0,.72-.19-2.9-4.78-10.17-5-14.16-1.51-5.35,4.75-4.12,13.28.37,18.1a21.65,21.65,0,0,0,10.54,5.91c.11,0,.77-.18.56-.32a7.76,7.76,0,0,1-3-8.29c.95-3.78,4.55-6.26,8.26-6.82.09,0,.64-.26.35-.35a6.72,6.72,0,0,0-7.35,2.86,8.83,8.83,0,0,0-.11,10.08c2.13,3.48,5.74,5.91,9.27,7.79s7.8,3.34,11.68,1.84c3.38-1.31,6.25-5.12,4.75-8.79-.1-.24-.73,0-.73.19,0,3.39,4.2,4.54,6.84,5.16,3.11.72,6.58,1.23,9.68.17a7,7,0,0,0,4.89-6.82c0-4.48-3.15-7.93-6.05-11l-.63.31,6.1,3.31c.39.21,1.25.47,1.32,1a3.16,3.16,0,0,1-.35,1,9.45,9.45,0,0,1-1.25,2.12,11.72,11.72,0,0,1-8.32,4.4,10.38,10.38,0,0,1-4.75-.72c-1.59-.66-2.8-1.86-4.24-2.75a4.22,4.22,0,0,0-3.71-.63c-1.86.68-2.88,2.82-5.16,1.8a4.34,4.34,0,0,1-2.48-5,6.1,6.1,0,0,1,5.42-4.12c.08,0,.47-.11.41-.28-1.83-5.43-10.73-2.32-13.35.68-1.92,2.21-1.52,5.23,0,7.52a9.14,9.14,0,0,0,7.57,4c4.47.06,8.61-2.17,12.41-4.29.15-.08.2-.22,0-.27a18,18,0,0,1-5.25-2.3,17.74,17.74,0,0,1-2-1.55c-.6-.53-1.69-1.17-.94-2,1.14-1.18,3.29-1.3,4.78-1a5.63,5.63,0,0,1,3.59,2.55l.59-.29-7.18-1.92c-.12,0-.75.13-.56.32,2.47,2.5,5.74,4.82,9.43,3.8,3.22-.88,5-4,3.3-7.07-2-3.68-6.72-4.91-8.48-8.72s1.77-7.21,3.49-10.38c4-7.46-3.7-13.94-10.22-16a29.48,29.48,0,0,0-19.35.86,28.83,28.83,0,0,0-16.24,15c-.1.21.44.1.5.08,3.68-1.36,7.89-2.87,11.79-1.45,3.08,1.12,5.3,3.81,8,5.52a24,24,0,0,0,17.09,3.08c.09,0,.64-.25.35-.35-10.88-3.6-23.88,2.26-28.24,12.89-.06.15.26.14.31.14l22.61-2.09c4.29-.39,9.91-1.12,11.85-5.6.07-.16-.25-.14-.31-.14a93,93,0,0,0-17,2.92c-.23.06-.5.34-.11.35a24.07,24.07,0,0,0,15.15-4.69c.07-.05.12-.18,0-.21l-6-1.71c-.19-.06-.88.23-.59.33a11.84,11.84,0,0,0,10-1.05c.09-.06.21-.18.06-.26a193.33,193.33,0,0,0-22-10.24l-.44.36c4.88,0,7.44,8,12.57,6.2,2.09-.74,3.15-2.8,5.6-2.82a10.07,10.07,0,0,1,6.22,2.62c3.13,2.54,5.67,5.37,9.7,6.49a16.38,16.38,0,0,0,11.34-.95l-.42-.18a9.15,9.15,0,0,1-10.33.9,9.47,9.47,0,0,1-4.5-7.77c-.14-3.38,1.81-6,3.61-8.67,1.51-2.24,3-4.7,2.27-7.5,0-.14-.33-.08-.41-.06-3.24.84-4.71,4-5,7.13-.41,4.74,2.09,9.31.73,14l.65-.22A30.15,30.15,0,0,1,206.26,365a10.24,10.24,0,0,1-2.13-4.53c-.25-2,.75-3.46,2.12-4.74a53.93,53.93,0,0,1,8.18-6c2.81-1.75,5.71-3.33,8.63-4.87,1.42-.75,3-1.89,4.56-2.21,2.28-.47,3.31,1.51,3.91,3.29,1.09,3.3,2,6.7,2.94,10s2.29,6.53,2.53,9.86a8.9,8.9,0,0,1-5,8.5c-3.63,2-8,1.86-12,1.79-.09,0-.67.16-.48.32,2,1.67,4.75.52,6.47-1a29.19,29.19,0,0,0,2.81-3.27,9.08,9.08,0,0,1,1.9-1.76,5.81,5.81,0,0,1,4.35-.44,29.78,29.78,0,0,0,20.21-3.11l-.55-.09a56.92,56.92,0,0,0-3.46,8.12c-1.13,2.87-2.59,5.88-5.39,7.46-2,1.14-4.41,1.29-6.68,1.44s-4.58.23-6.87.27q-6.63.12-13.25-.37c-.17,0-.77.29-.37.38a218.94,218.94,0,0,0,27,4.06v-.28a22.16,22.16,0,0,1-20.85.5l-.52.36a28.28,28.28,0,0,1,8.29,2.55,16.68,16.68,0,0,1,5.6,5.45c2.78,4.07,4.79,8.76,9.1,11.51a9.44,9.44,0,0,0,5.87,1.61c2.58-.24,4.58-2.1,7.09-2.5,4.72-.77,7.18,5.16,9.46,8.2a15.87,15.87,0,0,0,13.76,6.18c.25,0,.77-.42.29-.38Z"/></g><g class="cls-1"><path class="cls-2" d="M322.28,297.75a22.89,22.89,0,0,1,14,18.94l.59-.26c-5.1-.08-11.28-.49-15-4.53-2.88-3.15-3.9-9-.21-11.93,0,0,.11-.09.06-.15-1.36-1.51-4.66,0-4.08,2.08,0,.09.24.07.3.05a15.54,15.54,0,0,0,7.48-3.5s0,0,0-.07a5.46,5.46,0,0,0-9.09.17c-3.17,5.36,2.53,11.39,1,17l.72-.16a32,32,0,0,1-3.23-10.73,11.29,11.29,0,0,0-.71-3.46c-.83-1.82-2.8-2.76-4.53-3.56a32.65,32.65,0,0,0-6.66-2.18c-9-2-18.47-1.37-27.06-5.05a36.22,36.22,0,0,1-12.63-9.1c-.13-.15-.81.11-.68.25,6,6.69,13.94,10.49,22.73,11.88,4.59.72,9.24,1,13.84,1.71a42.87,42.87,0,0,1,6.79,1.58c2.19.72,4.77,1.63,6.46,3.26,2,1.88,1.65,5.06,2.15,7.53a33.28,33.28,0,0,0,2.8,8.07c.09.18.68,0,.72-.16,1.48-5.33-3.07-10.27-1.57-15.6A4.44,4.44,0,0,1,323,297a3.34,3.34,0,0,1,1.18.92c.57.88-.43,1.42-1.07,1.83a13.65,13.65,0,0,1-5.07,1.95l.3.06c-.3-1,.26-1.61,1.19-1.91.27-.09,1.45-.45,1.29.32,0,.09-.42.38-.49.45a6.45,6.45,0,0,0-1.56,2.85,9.62,9.62,0,0,0,1.32,7.33c3.35,5.32,10.59,5.91,16.26,6,.13,0,.61-.05.59-.25a23,23,0,0,0-14.11-19.05c-.17-.07-.83.21-.59.3Z"/></g><g class="cls-1"><path class="cls-2" d="M270.16,288.29c15.3,3.25,29.77-5.5,42.1-13.43,2.94-1.89,5.95-3.84,8.17-6.59s3.1-6.29,5.38-9c3.77-4.48,9.59-6.48,14.88-8.52,5.56-2.16,11.47-4.53,15-9.61l-.69.07c-1.28,8.36-3.17,17.26-8.78,23.89a22.27,22.27,0,0,1-9.68,6.67,16.85,16.85,0,0,1-6.49.92,13.87,13.87,0,0,1-2.72-.42c-.41-.11-.81-.23-1.2-.37-.84-.29-.78-.41-.07-1l13-11h-.62a49.55,49.55,0,0,1-17.22,14.64c-.07,0-.24.17-.08.22,8,2.69,12.48,12.3,9.51,20.15-.07.17.64.09.72-.11a16.09,16.09,0,0,0-2.93-15.7,15.86,15.86,0,0,0-3.07-2.83c-.33-.23-3.35-1.67-3.35-1.78a17.28,17.28,0,0,1,2.33-1.29c.72-.43,1.44-.88,2.15-1.34a49.37,49.37,0,0,0,12.6-12c.18-.24-.52-.09-.61,0l-14,11.77c-.07.06-.12.13,0,.18,5.5,2.35,11.74,1.11,16.72-1.93,6-3.65,9.58-9.75,11.7-16.26a79.93,79.93,0,0,0,2.76-12.52c0-.24-.62,0-.69.07-6.3,9-18.93,9.1-27.18,15.54a17.56,17.56,0,0,0-4.82,5.81,41.23,41.23,0,0,1-2.79,5.15,19.48,19.48,0,0,1-3.89,3.91,96.26,96.26,0,0,1-9,5.95,117.46,117.46,0,0,1-10.33,5.79c-8.16,4-17.22,6.59-26.3,4.67-.19,0-.82.25-.59.3Z"/></g><g class="cls-1"><path class="cls-2" d="M330.83,295.53a1.49,1.49,0,0,1-1.8,1.22,5.45,5.45,0,0,1-2.26-1.23,23.52,23.52,0,0,0-4.2-2.64A6.12,6.12,0,0,0,319,292c-.83.14-1.71.59-1.62,1.55,0,.26.76.1.73-.19-.17-1.73,2.68-.67,3.38-.36a22.85,22.85,0,0,1,4.48,2.69c1,.74,2,1.6,3.33,1.52a2.31,2.31,0,0,0,2.29-1.75c0-.3-.7-.18-.73.08Z"/></g><g class="cls-1"><path class="cls-2" d="M315,292.28a10.4,10.4,0,0,1-9.37-10.3c0-1.46.38-4,2.47-3.15a42.94,42.94,0,0,1,4.66,2.65l9.13,5.25c.17.1.79,0,.65-.3-1.28-2.7-4.12-3.83-6.76-4.8s-6.15-2-7.49-4.91c-.15-.32-.86-.11-.73.19,1.25,2.71,4.09,3.85,6.72,4.82s6.16,2,7.53,4.89l.64-.3-8.7-5-4.28-2.47c-.93-.53-2-1.09-3.08-.54-1.77.93-1.64,3.95-1.35,5.6a11.15,11.15,0,0,0,3.15,5.89,10.26,10.26,0,0,0,6.55,3c.36,0,.74-.5.26-.53Z"/></g><g class="cls-1"><path class="cls-2" d="M306.37,278.4a27.82,27.82,0,0,1-5.15-4.34,17.31,17.31,0,0,1-3.9-5.59c-.83-2.4.84-5,1.79-7.09l3-6.87c.47-1.07.91-2.17,1.42-3.22.9-1.83,2.92-1.81,4.71-1.81,1.2,0,3-.13,4,.56s.92,1.75.93,2.73c0,4.74,1.89,9,2.49,13.69.33,2.62.23,5.53-1.22,7.84s-4,3.91-6.77,3.2c-.22-.05-.85.28-.45.38,4.14,1.07,8-2.27,9-6.13,1.52-5.94-1.9-11.67-2.26-17.53-.13-2.07.34-4.52-2.3-4.92a21.78,21.78,0,0,0-4-.2,8.2,8.2,0,0,0-3.19.48,3.57,3.57,0,0,0-1.58,1.8c-.72,1.49-1.34,3-2,4.55-1.32,3-2.77,5.95-4,9a5.15,5.15,0,0,0-.12,4.14,16.38,16.38,0,0,0,2.32,3.56,28.38,28.38,0,0,0,6.72,6.12c.18.12.86-.16.58-.34Z"/></g><g class="cls-1"><path class="cls-2" d="M307,277.87a64.2,64.2,0,0,0-2.5-16.46c-.08-.28-.62-.16-.7.06a14.44,14.44,0,0,0-.68,8.9c.08.32.81.13.73-.2a14,14,0,0,1,.64-8.63l-.71.07a63.94,63.94,0,0,1,2.49,16.33c0,.36.74.24.73-.07Z"/></g><g class="cls-1"><path class="cls-2" d="M289.4,427.3v-1s-.12,0-.13,0a.78.78,0,0,0-.26,0,.92.92,0,0,0-.25.09s-.09.05-.09.1v1s.12,0,.13,0a.78.78,0,0,0,.26,0,1.25,1.25,0,0,0,.25-.09s.09,0,.09-.1Z"/></g><g class="cls-1"><path class="cls-2" d="M354.58,491.84a7.06,7.06,0,0,1,8,6.64l.42-.26c-2,.24-4.17.42-5.71-1.07a2.91,2.91,0,0,1-1-2c-.05-1.15,1-2.56,2.34-1.93.12.06.79-.11.63-.28a2.69,2.69,0,0,1-.64-2.24c.27-1.62,1.84-2.21,3.36-1.82s3,1.36,4.68,1.4,5-1.32,3.27-3.58c-.92-1.17-2.63-1.44-4-1.57a16.68,16.68,0,0,0-5,.33c-3.23.69-6.68,2.36-8.67,5.09-1.68,2.32-1.9,6.25,1.09,7.69a6,6,0,0,0,2.13.4,4.45,4.45,0,0,1,2.64,1.32,4.66,4.66,0,0,0,3.87,1.5c4.76-.52,14-4.53,9.81-10.72a7.55,7.55,0,0,0-8.62-2.81c-3.44,1.09-5.95,4-7.45,7.18-.07.15.62.09.72-.11a13,13,0,0,1,5.93-6.45,7,7,0,0,1,8.5,2.11,5.21,5.21,0,0,1-.75,7.26,11.36,11.36,0,0,1-3.71,2.06c-1.51.56-3.6,1.39-5.21,1.15s-2.36-1.65-3.64-2.37-2.78-.23-4-1c-2.65-1.75-2.1-5.42-.36-7.56a14,14,0,0,1,9.31-4.65,12,12,0,0,1,5,.34c1.2.41,2.61,1.49,2,2.94-.74,1.75-3.31,1.16-4.64.63a8.89,8.89,0,0,0-4.15-1c-2.33.25-3.84,2.88-2.14,4.8l.64-.29a2.65,2.65,0,0,0-3.57,3c.85,3.08,4.72,2.91,7.19,2.61.11,0,.43-.1.42-.26a7.35,7.35,0,0,0-8.57-6.75c-.31.06-.63.41-.13.31Z"/></g><g class="cls-1"><path class="cls-2" d="M360.4,503.93c-4.77,4.32-11.21,8.43-18,7.36-5.58-.89-11-5.76-10.42-11.75l-.5.26,22.35,3.32c.17,0,.62-.14.47-.38A11.82,11.82,0,0,0,341,498.19l.42.17c.51-4.55,5.07-6.51,7.86-9.51,2.21-2.38,4.26-6.59,1.52-9.34a.42.42,0,0,0-.39-.06,36.66,36.66,0,0,0-15.42,10c-1.63,1.81-3.36,4.29-2.42,6.84a5.88,5.88,0,0,0,3.86,3.3c4.56,1.46,8.61-1.15,10.54-5.28a25.9,25.9,0,0,0,2-8.18c.34-3.15.42-6.75,2.68-9.23,2.51-2.77,6.79-3.1,10.18-2,3.87,1.23,7,4,10,6.65l.18-.33a25.7,25.7,0,0,1-18-.27l-.35.44a75.27,75.27,0,0,1,15.26,1.56q3.6.75,7.13,1.86c2.17.68,4.55,1.42,5.63,3.62,1.41,2.87.58,6.72,3.24,9,1.14,1,3.54,1.77,3.72,3.46.15,1.3-1.07,2.05-2.06,2.58-1.16.62-2.36,1.2-3.55,1.77a122.65,122.65,0,0,1-15.78,6.19l.42.17,3.4-15c.72-3.2,1.25-10.12,5.42-10.8l-.29-.25c-4.58,7.74-3.36,17.52-8.43,25-2.37,3.53-6.1,6.45-10.57,5.92-4.21-.51-8-3.75-12.33-3.2-3,.38-6.68,2.54-5.89,6,0,.06.09.1.14.12a58.51,58.51,0,0,0,26.45.86,56.73,56.73,0,0,0,12.57-4c2.9-1.35,6.39-3.41,7.09-6.82.61-2.95-1.4-6.47-4.65-6.27-.13,0-.39.11-.4.27-.33,3.76.44,7.51-.71,11.19a22.52,22.52,0,0,1-5.71,8.92,38.88,38.88,0,0,1-17.12,10,33.69,33.69,0,0,1-19.49-.15c-5.63-1.85-13.18-6.39-12.69-13.28.25-3.48,2.82-7.28,6.67-7,3.67.32,6.46,3.53,9.67,5,.14.07.77,0,.64-.28-2.71-6-9.94-7.83-15.5-10.2-2.85-1.22-5.85-2.67-7.78-5.19-3.16-4.13-1.74-9.27.61-13.42,1.38-2.42,3-4.69,4.55-7s3.09-4.69,4.7-7c2.73-3.89,6-7.94,10.29-10.16a13,13,0,0,1,3.13-1.16c.89-.19,3.12-.67,3.82,0,.5.5-.29,2.72-.46,3.42a39.23,39.23,0,0,1-1.2,4,41.33,41.33,0,0,1-8,13.54c-3.15,3.56-7.46,6.77-9,11.47-1.68,5.27,2.15,9.29,6,12.3a.5.5,0,0,0,.65-.23A104.92,104.92,0,0,1,346.87,473c2-3.27,4.13-7,7.34-9.3,5.59-3.91,10.93.88,14.93,4.61a40.82,40.82,0,0,0,6.14,5.08,13.5,13.5,0,0,0,3.24,1.52c.53.17,1.14.19,1.65.37.7.24.81.9.53,1.58-1,2.45-5,3.6-4.41,6.77.78,4.3,6.17,3.68,9.23,3l-.42-.11a12.9,12.9,0,0,0,7,8.14c.2.09.59,0,.65-.23a26.68,26.68,0,0,0-2.26-17.52,26.11,26.11,0,0,0-5.16-7.13c-.62-.61-1.81-2-2.7-2.22a8.14,8.14,0,0,0-2.37.41l-3.19.57.19.35a5,5,0,0,0,.76-6.63c-1.81-2.87-5.47-4.4-8.37-5.87-6.77-3.44-14.06-6.16-21.68-6.77-11.93-.95-25.72,4.53-29.95,16.59-2.61,7.46-.24,16.18-4.71,23a.14.14,0,0,0,.05.21c1.69.83,3.7,1.92,4.45,3.74.86,2.08-.85,3.7-1.45,5.56-1.08,3.34.47,7,2.82,9.43,2.77,2.83,6.78,4,10.55,4.82.45.1,2.52.24,2.71.6s-1.63,2.25-1.84,2.55a19,19,0,0,0-2.74,5.28c-2.36,7.67,4.47,13.82,11.51,14.9,7.72,1.19,16.19-1.5,23-4.93a52.77,52.77,0,0,0,19.35-16.52l-.68.13c4.45,3.68,4,10.6.75,14.93-4.21,5.65-12.22,6.53-18.71,5.89l.21.25a26,26,0,0,1,15-13.18,24.5,24.5,0,0,1,4.92-1.11c1.93-.23,3.87-.12,5.81-.25a11.43,11.43,0,0,0,7.77-3.48c2.42-2.54,3.86-5.87,5.17-9.08a.15.15,0,0,0-.06-.21c-3.69-2-7.45-3.84-11.09-5.89-1.86-1.05-2.83-2.63-2.08-4.73a9.87,9.87,0,0,1,3.09-4c4.19-3.61,9.43-6.12,12.94-10.48a11.4,11.4,0,0,0,2.66-6.54c.15-3.33-1.39-6.39-3.25-9.05a60.8,60.8,0,0,0-6.52-7.9,18.42,18.42,0,0,0-7.65-5c-4.78-1.39-11.69,1.09-12.13,6.68,0,.3.46.18.59.1a7.47,7.47,0,0,0,3.31-6.6,10.78,10.78,0,0,0-3.95-7.85,27.31,27.31,0,0,0-8.75-5c-2.95-1.09-6.44-1.62-9.35-.11-2.68,1.4-4.72,4.44-3.73,7.5l.4-.32c-3.27.23-5.26-3.42-7.41-5.3a9.93,9.93,0,0,0-8.53-2c-3.64.63-7,2.33-10.33,3.87-4,1.84-7.94,3.72-11.79,5.83-10.5,5.73-24.07,16.47-19,30.14,2.09,5.62,7.21,10.41,13.54,9.62l-.26-.31a23.71,23.71,0,0,0-7.54,23.68c1.92,8.39,7.68,16.83,15.59,20.56a21,21,0,0,0,14.7,1.11l-.21-.38c-3.59,1.43-8.69,3.87-9.06,8.3-.41,4.84,4.91,7.52,8.8,8.69,8.33,2.52,17.71.47,24.69-4.57a26.22,26.22,0,0,0,9.11-11.45c.14-.36-.58-.3-.68,0a27.84,27.84,0,0,1-30,16.29c-3.93-.71-9.27-2.48-10.85-6.57-2.06-5.34,4.28-8.69,8.28-10.29.4-.16.14-.48-.2-.38-18,5.14-33.49-16.34-29.5-32.83a22.61,22.61,0,0,1,7.46-11.95c.22-.18-.09-.33-.26-.31-5.88.74-10.65-3.76-12.72-8.9-2.32-5.77-1.08-11.76,2.32-16.82,3.77-5.59,9.51-9.57,15.31-12.81,3.6-2,7.3-3.81,11-5.55,3.37-1.56,6.76-3.35,10.38-4.24a11.16,11.16,0,0,1,6.55.09,11.29,11.29,0,0,1,4.1,3.13c1.75,1.88,3.56,4,6.38,3.84.12,0,.46-.13.4-.32-1.19-3.7,2.1-7.19,5.63-7.7,4.07-.57,8.31,1.52,11.69,3.57,2.92,1.77,5.78,4.26,6.7,7.67.82,3.06.09,6.72-2.73,8.48l.59.1c.36-4.49,5.16-6.87,9.26-6.5,5,.45,8.88,4.65,11.9,8.28,3.18,3.83,7.17,8.31,6.94,13.62-.18,4.19-3.07,7.36-6.18,9.85s-6.63,4.58-9.65,7.27c-1.46,1.3-2.95,3-3.13,5.07-.2,2.32,1.67,3.43,3.47,4.39l7.93,4.21c.4.21,1.93.76,2,1.29.06.33-.41,1-.55,1.33-.48,1.12-1,2.22-1.58,3.29a15.76,15.76,0,0,1-4.29,5.32c-2.61,1.93-5.66,1.88-8.76,2a26.77,26.77,0,0,0-23.32,14.88c-.08.16.06.24.2.25,6.64.65,14.66-.27,19.22-5.74,3.67-4.4,4.43-11.91-.32-15.84a.5.5,0,0,0-.67.13,52,52,0,0,1-23.05,18c-8.79,3.49-23.44,6.47-28.82-4-2.92-5.68.71-11.07,4.18-15.48.08-.1,0-.22-.12-.24-4.56-.82-9.69-1.69-13.16-5a11,11,0,0,1-3.18-5.55c-.51-2.37.21-4.1,1.26-6.18a4,4,0,0,0-.46-4.69,8.52,8.52,0,0,0-1.93-1.61c-.35-.23-.72-.44-1.09-.64-.72-.39-.46-.55-.11-1.19,2.07-3.73,2.31-8.09,2.59-12.25.29-4.39.69-8.77,2.8-12.71a23.89,23.89,0,0,1,8.22-8.67c7.9-5.09,17.48-5.63,26.44-3.44a69.72,69.72,0,0,1,15.84,6.27c2.21,1.17,4.68,2.33,6.31,4.3s2.16,5.12,0,6.84c-.22.18-.09.41.19.36l2.73-.49a7.44,7.44,0,0,1,2.53-.35c1.16.28,2.51,2,3.31,2.85a26.67,26.67,0,0,1,6.46,23.51l.65-.23a12.54,12.54,0,0,1-6.89-7.95c-.05-.17-.3-.14-.42-.11-2.45.53-5.43,1.11-7.38-.91-1.47-1.54-1.19-3.36.11-4.85,1-1.1,4.5-3.39,3.2-5.25-.27-.4-.41-.33-.9-.4a10.44,10.44,0,0,1-2.21-.59,16,16,0,0,1-3.54-2,81.37,81.37,0,0,1-6.47-5.7c-3.67-3.31-8.3-6.36-13.29-3.81-3.08,1.58-5.11,4.62-7,7.43a105.83,105.83,0,0,0-15.5,38.05l.65-.23c-2.71-2.13-5.64-4.7-6.17-8.3s1.48-6.56,3.64-9.07,4.66-4.7,6.74-7.28a41.7,41.7,0,0,0,5.41-8.65,42.44,42.44,0,0,0,3.45-11.33.16.16,0,0,0-.15-.17c-5.65-1-10.56,2.2-14.29,6.15a56.49,56.49,0,0,0-5.7,7.38c-2.21,3.3-4.46,6.58-6.62,9.91-3.13,4.84-6,11.23-1.78,16.34,2.7,3.28,7.06,4.78,10.89,6.3,4.6,1.83,9.94,3.87,12.11,8.7l.65-.29c-3.14-1.46-5.72-4.31-9.19-5a6.73,6.73,0,0,0-6.71,2.69,8.87,8.87,0,0,0-1,8.76c1.34,3.19,4.11,5.58,7.06,7.27,12.51,7.16,28.9,3.7,39.72-5a28.43,28.43,0,0,0,7.94-9.37,16.85,16.85,0,0,0,1.66-5.63c.27-2.71-.16-5.43.07-8.15l-.4.27c1.84-.12,3.2,1.35,3.77,3a5.45,5.45,0,0,1-.59,4.85c-2.21,3.47-6.89,5.07-10.58,6.35a57.38,57.38,0,0,1-25.64,2.74,55,55,0,0,1-6.62-1.21c-.49-.12-1-.15-1.23-.65a2.45,2.45,0,0,1,0-1.2,4.14,4.14,0,0,1,1.42-2.16c3.34-2.83,7.39-1.2,10.94.21,3.16,1.25,6.37,2.08,9.66.85a14.75,14.75,0,0,0,6.88-5.9c4.95-7.52,3.77-17.21,8.32-24.9.11-.19-.16-.27-.3-.25-3.94.65-4.84,5.16-5.58,8.43l-4.06,17.93c-.05.21.31.2.42.17a123.7,123.7,0,0,0,15.12-5.86c2-.94,9.5-3.52,6-6.8-1.43-1.34-3.35-1.92-4.23-3.81s-.82-3.95-1.38-5.87c-1.28-4.44-6.6-5.28-10.5-6.26a75.82,75.82,0,0,0-18.43-2.28c-.21,0-.77.29-.35.45a26.78,26.78,0,0,0,18.73.19c.09,0,.31-.21.19-.32-4.12-3.63-8.77-7.59-14.6-7.37a10,10,0,0,0-6.23,2.3c-2.12,1.85-2.81,4.61-3.14,7.3-.64,5.13-.81,12.61-6.13,15.38-3.8,2-10.64-.48-9.09-5.6a12.3,12.3,0,0,1,3.44-4.8,33.51,33.51,0,0,1,3.93-3.4,35.86,35.86,0,0,1,9.88-5.17l-.39-.06c3.25,3.25-.29,8.06-3,10.31s-6,4.54-6.45,8.31c0,.21.29.21.42.17A11.17,11.17,0,0,1,353.67,503l.47-.38-22.35-3.32c-.14,0-.48.08-.49.27-.61,6.31,5.14,11.33,11,12.16,7,1,13.7-3.17,18.68-7.68.32-.29-.39-.34-.59-.16Z"/></g><g class="cls-1"><path class="cls-2" d="M408.16,513.24a16.8,16.8,0,0,1,9.12-9c4.84-2.08,10.3-2,15.36-.78a44,44,0,0,1,13.54,5.88c1.08.69,2.12,1.43,3.13,2.21.35.26,1.16.71,1.27,1.16s-.39,1-.65,1.43a33.44,33.44,0,0,1-3.63,4.76A37,37,0,0,1,425,530.31a34.17,34.17,0,0,1-12.1-.23c-3.84-.79-9.66-3-8.55-8,.81-3.68,5.1-2.73,7.88-2.54a81.12,81.12,0,0,0,8.82.14,84.68,84.68,0,0,0,16.92-2.4c.44-.11.35-.44-.09-.35a54.1,54.1,0,0,1-14.35,1.24l.22.15a7.19,7.19,0,0,1,7.76-5.54.61.61,0,0,0,.56-.19,1.6,1.6,0,0,0-.8-2.26,3.21,3.21,0,0,0-2.93.41,30.45,30.45,0,0,0-3.85,3,53.78,53.78,0,0,1-4.57,3.37,16.48,16.48,0,0,1-5,2.24,13.87,13.87,0,0,1-6.08-.18c-3.11-.64-6.3-1.58-9.34-.16l.51.09a22.38,22.38,0,0,0,1.13-6.23c0-.24-.38-.13-.5-.09a4.81,4.81,0,0,0-3,4.85c0,3.2,2.33,6,3.09,9,.85,3.36.72,6.91.62,10.35s-.6,6.5-2.85,9.09a22.52,22.52,0,0,1-7.64,5.19c-1.62.77-3.47,1.86-5.29,1.8a4.71,4.71,0,0,1-3.88-3c-2.53-5.14-1.23-12,1.78-16.64a17.65,17.65,0,0,1,3-3.56c.93-.84,2.21-1.94,3.55-1.89a2.23,2.23,0,0,1,2.09,1.93c.76,3.32-1.48,7.29-3.66,9.6l.7,0,2.83-7.89,1.33-3.72a6.4,6.4,0,0,1,.86-2.08,5.08,5.08,0,0,1,1.95-.91c.47-.19,0-.41-.28-.28-1,.38-2.21.47-2.58,1.51-.53,1.47-1.06,2.94-1.58,4.41l-3.25,9.06c-.1.29.62,0,.7,0a13.17,13.17,0,0,0,3.81-8.8c-.05-3-2.63-3.71-5-2.45a16,16,0,0,0-6.15,6.91,19.34,19.34,0,0,0-2.1,8.73c0,2.9.55,6.7,3,8.63s5.93.2,8.45-1a25.17,25.17,0,0,0,7.53-4.91c2.56-2.65,3.27-5.94,3.39-9.52.15-4.35.32-8.91-1.37-13-.8-1.93-2-3.79-2.26-5.89s.4-4.47,2.49-5.19l-.5-.09a22.46,22.46,0,0,1-1.14,6.23c-.07.22.43.13.51.09,3.23-1.52,6.77,0,10.06.54a13.47,13.47,0,0,0,7.05-.73,26.64,26.64,0,0,0,6.61-4c1.16-.89,2.28-1.82,3.43-2.73a10.19,10.19,0,0,1,1.86-1.36c1.06-.49,1.91-.56,2.52.27a1.21,1.21,0,0,1,.09,1.38l.56-.19a8.16,8.16,0,0,0-8.94,6c0,.13.14.15.22.15a55.64,55.64,0,0,0,14.73-1.28l-.09-.35A82.43,82.43,0,0,1,413,519.18c-2.61-.17-6.21-1.09-8.32,1-1.78,1.79-1.35,4.87.18,6.67,1.94,2.27,5.13,3.1,7.95,3.65a34.54,34.54,0,0,0,8.67.53,38.41,38.41,0,0,0,16.16-4.76,35.8,35.8,0,0,0,13.9-13.64.11.11,0,0,0,0-.15c-9.87-8.2-26.15-14.73-37.95-6.63a16.51,16.51,0,0,0-6.11,7.46c-.09.22.63.14.72-.1Z"/></g><g class="cls-1"><path class="cls-2" d="M307.82,462.25c-5.3.68-11.47,1.36-16.1-1.91-4.11-2.91-5.62-8.14-9.44-11.33l-.41.28c4.05-.45,6.33-4.27,9.32-6.57a24.37,24.37,0,0,1,12.58-4.83,25.05,25.05,0,0,1,12.61,2.05c1.7.77,5.39,2.28,4.95,4.65s-3.64,4-5.68,4.77c-5.13,1.91-11,1.09-16.24.29L299,450c2.37,0,4.91-.69,7.24,0,1.84.53,3.83,2.44,3.17,4.52-.58,1.87-2.85,2.52-4.35,3.46a16.26,16.26,0,0,0-3.45,3.07c-2.22,2.51-4,5.55-6.81,7.48A9.34,9.34,0,0,1,282,465.7c-.5-.77-.76-1.68-1.27-2.45-1.21-1.78-3.37-.8-4.9-1.95-.17-.13-.81.15-.68.25a4,4,0,0,0,2.14.69,3.34,3.34,0,0,1,3.21,2.15,9.89,9.89,0,0,0,3.29,4.12,10.27,10.27,0,0,0,9.57,1.15c3.5-1.41,5.67-4.68,8-7.5a17.58,17.58,0,0,1,4.87-4.47c1.39-.78,3.17-1.47,3.87-3,.94-2.07-.85-4.07-2.66-4.84-2.51-1.06-5.43-.16-8.05-.19-.14,0-.76.26-.38.32,4.85.74,9.92,1.37,14.76.25a15.72,15.72,0,0,0,5.88-2.64c1.53-1.16,3.54-3.27,1.86-5.16-1.42-1.61-4-2.65-5.95-3.39a25.25,25.25,0,0,0-6.76-1.49,27.12,27.12,0,0,0-12.8,2,24.11,24.11,0,0,0-6.19,3.79c-2.37,2-4.43,5.23-7.75,5.6-.06,0-.55.16-.4.28,4.2,3.52,5.71,9.48,10.74,12.13,4.67,2.46,10.32,1.81,15.35,1.17.32,0,.64-.37.13-.31Z"/></g><g class="cls-1"><path class="cls-2" d="M267.51,463.73c2.5,1.56,5.57-.48,8,.88,2.06,1.14,2.39,5.77,5.63,4.51l-.51-.13a10,10,0,0,1-2.76,6.49c-1.31,1.35-3,2.31-4.28,3.64a7.25,7.25,0,0,0-2.05,4.31,5.52,5.52,0,0,1-3.33,4.47,12.1,12.1,0,0,1-5.59.77c-2.16-.15-4.49-.5-5.13-2.9s-.05-7.45-3.87-7.17c-.38,0-.59.48-.09.44,2-.14,2.71,2.37,2.86,3.9s.09,3.06.92,4.31c1.44,2.16,5.42,2.05,7.7,1.83s4.65-.93,6.08-2.76c1-1.28,1-2.72,1.4-4.24a8.12,8.12,0,0,1,3.24-4.16,18,18,0,0,0,3.69-3.44,10.33,10.33,0,0,0,1.93-5.57c0-.25-.37-.18-.51-.13-1.89.73-2.76-2.22-3.47-3.29a3.57,3.57,0,0,0-2.34-1.61c-2.3-.49-4.85.81-7-.52-.22-.14-.88.18-.57.37Z"/></g><g class="cls-1"><path class="cls-2" d="M328.8,384a2.52,2.52,0,0,1,4.2.53c.33.68.64,2.31-.18,2.77a4.8,4.8,0,0,1-2.95,0,1.88,1.88,0,0,1-1.54-1.54,35.1,35.1,0,0,1-.35-4.35c0-.15-.45,0-.5,0-4.06,1.8-5.08,8.39-1,10.8,3.93,2.31,9.77-1.16,9.63-5.68l-.59.26c2.94.3,4.6,3.58,4.16,6.3-.62,3.75-4.67,5.74-8.1,6a25.11,25.11,0,0,1-6.29-.5,20.06,20.06,0,0,0-5-.74c-2.39.21-3,2.25-1.75,4.13,1.49,2.26,4.17,3.29,6.63,4.13a19.48,19.48,0,0,0,8.14,1.19,9.67,9.67,0,0,0,5.91-2.54c2.23-2.17,2.85-5.36,2.82-8.36-.06-8.62-4.15-16.61-8-24.1l-.59.26a15,15,0,0,1,10.68,7.12c2.59,4,3.32,9,3.12,13.77-.1,2.35-.06,5.74-1.73,7.62a12.77,12.77,0,0,1-2.74,2c-1.11.71-2.22,1.41-3.35,2.1a53.53,53.53,0,0,1-14.14,6.62c-2.46.65-5.31,1.24-7.76.24s-3.26-3.26-3.88-5.52c-1.21-4.49-2.55-9.73-.6-14.2a17.24,17.24,0,0,1,5-5.92c2-1.72,4-3.42,6-5.12s4.16-3.51,6.22-5.28c1.4-1.21,2.9-2.57,3.47-4.4.93-2.95-2.54-6.68-5.16-4-1,1-.92,2.69-.89,4,0,1.82.3,4-1.14,5.4l.69-.07,1.28-12.39c.2-1.95.38-3.9.61-5.85s.62-3.85,2.39-4.79c3.05-1.62,7.14.74,9.73,2.26a59.56,59.56,0,0,1,8.33,6,58.87,58.87,0,0,1,7.19,7.28,40.51,40.51,0,0,1,5.77,8.57c1.42,3.05,1.92,6.68-.11,9.59a5,5,0,0,1-4.76,2.34,7.36,7.36,0,0,1-4.08-2.34c-3.67-3.72-6.89-13.17-13.76-10.48,0,0-.34.17-.21.24,8.57,4.54,16.73,12.68,18.68,22.49a17.11,17.11,0,0,1-2.61,13.36A11.33,11.33,0,0,1,343,417.48c-2.41-.8-3.87-2.41-5.41-4.32-1.18-1.46-2.46-2.79-4.46-2.57-.06,0-.48.11-.42.26,1,2.82,3.61,4.59,5.46,6.85,2.1,2.57,2.29,6.14-1,7.89s-7.65,1.28-11.3,1.15a81,81,0,0,1-14.08-1.47c-3.82-.82-9.56-2-10.69-6.47l-.23.2,17.5-5.72c.05,0,.21-.09.22-.16.44-3.09-4.76-2.32-6.4-2.14l-14.37,1.57c-2.42.27-5.34,1-7.66-.05-1.65-.74-3.07-2.81-2.1-4.59,1.09-2,4.59-2.6,6.57-3.14a56,56,0,0,1,7.35-1.49l.12-.32a49,49,0,0,0-12,4c-2.79,1.38-6.19,3.5-6,7.06.15,3.32,3.31,5.95,6.39,6.55,4,.78,8-.77,11.57-2.23.47-.19,0-.33-.26-.21-3.61,1.46-7.84,3.18-11.74,1.87-2.61-.88-5.11-3.29-5.23-6.18-.16-3.57,3.36-5.59,6.15-6.92a45.72,45.72,0,0,1,11-3.65c.29-.06.63-.39.12-.32a58.72,58.72,0,0,0-7.08,1.41,25.75,25.75,0,0,0-6,2.07,3.31,3.31,0,0,0-2,3.38,4.5,4.5,0,0,0,3.7,3.35,19.43,19.43,0,0,0,5.94-.19l7.93-.87,7.93-.88a9.33,9.33,0,0,1,3.61,0c.64.18,2.1.87,1.59,1.73-.32.53-1.45.66-2,.85l-2.13.7-4.25,1.39-8.75,2.86c-.06,0-.25.1-.23.2,1,4,5.74,5.34,9.24,6.21A73.76,73.76,0,0,0,325,427.05c3.7.15,7.65.53,11.22-.71,2.76-.95,5.11-3.32,4.09-6.45-1.21-3.74-5.48-5.54-6.86-9.24l-.42.26c2.56-.29,4.05,3,5.55,4.5a10,10,0,0,0,5.21,2.73,12.54,12.54,0,0,0,10.54-2.77,16,16,0,0,0,5.12-12.12c0-5.23-2.32-10.21-5.35-14.38A40.51,40.51,0,0,0,340.33,377l-.2.23c4.18-1.64,7.71,3.22,9.59,6.22,1.54,2.46,3.39,5.31,6.22,6.39a6.05,6.05,0,0,0,6.55-1.6c2.3-2.44,2.48-5.92,1.44-9-1.21-3.52-3.62-6.69-5.93-9.55a59.86,59.86,0,0,0-17.46-14.69c-2.38-1.31-5.26-2.45-8-1.83-3.84.86-4,4.66-4.34,7.92L326.56,377c0,.27.6,0,.69-.07,2.4-2.33.3-6,1.56-8.72,1.4-3,4.53.29,4.43,2.43-.12,2.5-2.41,4.3-4.16,5.79-4.09,3.48-8.25,6.9-12.29,10.44a16.48,16.48,0,0,0-4.38,5.3,13.74,13.74,0,0,0-1,6.77,41.72,41.72,0,0,0,1.41,7.34c.5,1.92,1.14,4,2.79,5.25,3.19,2.42,8.08,1.05,11.5-.05a60.27,60.27,0,0,0,13.06-6.43,36.33,36.33,0,0,0,5.61-3.71c1.75-1.62,1.87-4.12,2.07-6.36.48-5.38-.11-11.13-3.11-15.75a15.17,15.17,0,0,0-10.84-7.1c-.09,0-.68.09-.59.26,3.19,6.27,6.47,12.71,7.59,19.73.53,3.32.78,7.08-.69,10.2a8.29,8.29,0,0,1-7.61,4.61,21.65,21.65,0,0,1-8.7-1.92c-2.08-.87-5.5-2.6-5.39-5.33.1-2.48,3.86-1.32,5.38-1a34.55,34.55,0,0,0,5.73.73,13.27,13.27,0,0,0,7.11-1.69c2.24-1.34,4-3.65,3.71-6.37a5.26,5.26,0,0,0-4.46-4.95c-.15,0-.6.05-.59.26.13,4.49-5.94,7.93-9.29,4.37-2.5-2.65-1.82-7.95,1.64-9.48h-.5l.36,4.35c.05.7-.09.91.51,1.22a6.86,6.86,0,0,0,1.6.54c1.19.24,3.67.47,4.17-1,1.24-3.65-3.64-5.15-5.75-2.66-.16.2.54.12.66,0Z"/></g><g class="cls-1"><path class="cls-2" d="M301.64,469.67c-6.31,1.93-8.86,8.34-9.9,14.33a67.81,67.81,0,0,0-.8,11.12,51.93,51.93,0,0,0,1.22,12.18,26.5,26.5,0,0,0,5.78,11.56c.12.13.62-.08.7-.19a18.68,18.68,0,0,0-6.54-29c-.13-.06-.65,0-.7.19a133.14,133.14,0,0,1-4.86,14.66c-1,2.46-2,4.9-3.15,7.3-.92,2-1.79,4.34-3.41,5.85-2.66,2.47-5.91.1-7.37-2.33a12.16,12.16,0,0,1-1.56-6,18.8,18.8,0,0,1,4.66-12.12c3.57-4.27,8.4-7.22,13.09-10.1l-.6,0c-8.07,5.7-16.44,11.61-26.08,14.3-1.2.34-2.42.61-3.64.83-.53.1-1.59.48-2,.1a1.65,1.65,0,0,1-.31-1.31c.31-2.41,3.26-3.63,5.14-4.52q7.22-3.43,14.53-6.65,8.19-3.62,16.51-7l-.57.06c1.95,7.44-3.24,14.25-7.7,19.64l.72-.17,1.47-17.91c0-.08-.71,0-.72.19L284,502.7c0,.14.66-.09.72-.17,4.47-5.4,9.67-12.24,7.71-19.69,0-.14-.5,0-.57.06q-8.52,3.45-16.94,7.16-4.21,1.86-8.39,3.79c-2.61,1.2-5.3,2.32-7.82,3.69-1.38.75-3.26,2.16-3.36,3.89a1.43,1.43,0,0,0,.74,1.47,4.19,4.19,0,0,0,1.37-.19c.77-.12,1.54-.27,2.31-.44A52.94,52.94,0,0,0,273.48,497a148,148,0,0,0,15.38-9.91c.15-.11-.5,0-.6,0-8.24,5-18.25,11.67-17.93,22.6.11,3.89,2.5,9.8,7.32,9.26a5.66,5.66,0,0,0,4-2.54,41.11,41.11,0,0,0,3.66-7.33,135.52,135.52,0,0,0,6.86-19.41l-.7.19a18.63,18.63,0,0,1,6.51,28.89l.7-.19c-5-5.65-6.62-13.2-6.91-20.55-.26-6.72-.12-14.17,2.47-20.47,1.41-3.45,3.8-6.6,7.5-7.73.41-.13.37-.33-.05-.2Z"/></g><g class="cls-1"><path class="cls-2" d="M361.13,407.82c14.06-1.23,30.59-2.32,41.51,8.47a23.94,23.94,0,0,1,2.7,3.17c.53.74.88,1.15.35,2a9.23,9.23,0,0,1-1.6,1.93,14.3,14.3,0,0,1-8.16,3.35c-6.12.7-12.53-1.19-17.84-4.16a35.14,35.14,0,0,1-14.28-14.92l-.58.3a113,113,0,0,1,24.93,8.24c.2.1.89-.14.57-.36a22,22,0,0,0-15.2-3.68c-.36.05-.59.5-.09.44a21.28,21.28,0,0,1,14.72,3.6l.57-.36a113.05,113.05,0,0,0-25.06-8.3c-.13,0-.7.08-.59.31,5.65,11.38,18.38,20.12,31.37,19.44a18,18,0,0,0,8.22-2.27,11.12,11.12,0,0,0,2.94-2.48c.36-.43,1.2-1.34,1.25-1.92s-.58-1.06-.85-1.44c-4-5.6-10.27-9.15-16.78-10.94-9.11-2.51-18.73-1.66-28-.85-.37,0-.59.48-.09.44Z"/></g><g class="cls-1"><path class="cls-2" d="M359.69,411c9.45,3.26,17.41,12.58,17.67,22.83a10.62,10.62,0,0,1-2.51,7.72c-2,2.06-5.11,3.07-7.72,1.6-2.3-1.3-4-3.9-5.42-6.08A34.53,34.53,0,0,1,357,412l-.69.18a38.19,38.19,0,0,1,11.64,19.94c.07.31.6.09.7-.07,2.08-3.09,1.23-6.75-.33-9.88a30.47,30.47,0,0,0-3.19-5c-.83-1.06-1.94-2.27-3.42-2.22-3.11.1-2.94,4.23-3.31,6.39a19.27,19.27,0,0,1-5,9.9c-3,3.15-7.06,5.05-11.42,4.33l.23.21a49.68,49.68,0,0,1,15.61-23.67c.37-.31-.21-.51-.47-.29a50.3,50.3,0,0,0-15.87,24c0,.14.14.2.24.21,6,1,11.4-2.64,14.53-7.52a20.21,20.21,0,0,0,3.06-9,12.23,12.23,0,0,1,.34-2c.36-1.28,1.23-2.49,2.77-1.89s2.85,2.88,3.75,4.29c2.24,3.49,4.36,8.17,1.77,12l.7-.07a38.4,38.4,0,0,0-11.7-20,.46.46,0,0,0-.7.19,34.83,34.83,0,0,0,1.21,17.71,34.13,34.13,0,0,0,3.83,7.9c1.47,2.25,3.3,4.94,5.82,6.1,4.51,2.08,9.3-1.7,10.54-6,1.55-5.38-.57-11.58-3.46-16.15a27.17,27.17,0,0,0-14-11.15c-.29-.1-.85.32-.43.46Z"/></g><g class="cls-1"><path class="cls-2" d="M391.69,550.8a116.39,116.39,0,0,1-45.07,41.66,114,114,0,0,1-16.14,6.86c-.25.09-.47.49-.05.52a20.31,20.31,0,0,0,14.24-4.32c1.43-1.17,3-3.31,1.44-5a9.8,9.8,0,0,0-2.78-1.67c-1.42-.71-2.84-1.41-4.31-2-4.46-1.8-9.67-2.54-14,0-1.68,1-3.42,2.64-3.83,4.63-.47,2.31,1.83,4,3.56,5.11a14.73,14.73,0,0,0,14.31.64c.13-.07.28-.23.17-.38a10.37,10.37,0,0,0-10.38-4.05c-.24.05-.43.38-.14.5a25.12,25.12,0,0,0,23.59-2.45l-.59-.22c-1.58,3-1.89,6.42-3,9.59-1.07,3-3.49,6.25-7,6l.24.24A27.11,27.11,0,0,1,354.2,585.9l-.55-.28c-2.57,3.13-7.46-.08-10-1.67a77.08,77.08,0,0,1-9.61-7.16l-.21.47a21.33,21.33,0,0,1,23.82,8.4l.45-.43L347.8,583c-.29-.07-.72.33-.33.51a41.53,41.53,0,0,1,9.08,5.85c.25.21.88-.15.56-.43a42.32,42.32,0,0,0-9.22-5.91l-.34.51,10.34,2.27c.21,0,.62-.18.45-.43a22.05,22.05,0,0,0-24.62-8.58c-.2.06-.43.28-.21.47a69.21,69.21,0,0,0,12.18,8.7c2.55,1.38,6.39,2.57,8.57-.08.29-.35-.34-.41-.55-.28a27.71,27.71,0,0,0-12.51,21,.25.25,0,0,0,.24.24c3.11.17,5.54-1.92,7-4.5,2-3.58,2-7.93,3.93-11.59.19-.35-.43-.32-.59-.21a24.13,24.13,0,0,1-22.68,2.3l-.14.5a9.64,9.64,0,0,1,9.58,3.86l.17-.38a13.81,13.81,0,0,1-11.41.41,11.72,11.72,0,0,1-4.85-3.45c-1.56-2.06.25-4.5,1.93-5.83,3.49-2.74,8.29-2.59,12.3-1.29a41.46,41.46,0,0,1,6,2.6,9.26,9.26,0,0,1,2.77,1.65c1.15,1.27.28,2.8-.75,3.81-3.56,3.5-9.19,4.95-14.06,4.61l-.05.52a117.39,117.39,0,0,0,51.3-34.65,116.05,116.05,0,0,0,10.46-14.29c.22-.35-.52-.37-.69-.09Z"/></g><g class="cls-1"><path class="cls-2" d="M378.18,571.48A27.26,27.26,0,0,1,352.85,577a19.07,19.07,0,0,1-6.14-2.87c-2-1.55-3.62-4.42-2.21-6.91,1.22-2.13,4.13-2.69,6.34-3.13a44.48,44.48,0,0,1,7.89-.83,45.47,45.47,0,0,1,17.73,3.35l-.09-.33c-4.81,4.8-12.38,2.44-18.37,3-.29,0-.62.47-.16.5l13.86,1,.25-.51-6.11-.15c-.33,0-.74.49-.25.5l6.11.16c.32,0,.75-.47.25-.51l-13.86-1-.16.5c6.31-.54,14,1.79,19-3.26a.19.19,0,0,0-.09-.33,45.78,45.78,0,0,0-17.18-3.39,45.21,45.21,0,0,0-9,.87c-2.08.41-4.4.92-6,2.41a4.88,4.88,0,0,0-.79,6c1.15,2.22,3.49,3.51,5.71,4.46A27.52,27.52,0,0,0,364,578.33a27.83,27.83,0,0,0,14.64-6.54c.37-.33-.21-.54-.47-.31Z"/></g><g class="cls-1"><path class="cls-2" d="M382.38,427c3.93,3.25,9.14,4.48,13.41,7.19,4.7,3,8.89,6.73,13.17,10.26.22.18.87-.14.57-.39-4.28-3.53-8.48-7.28-13.17-10.26-4.28-2.71-9.48-3.94-13.41-7.18-.22-.18-.87.13-.57.38Z"/></g><g class="cls-1"><path class="cls-2" d="M418,443.64a24.55,24.55,0,0,1,.29,15.14,23.89,23.89,0,0,1-3.35,6.86,5.46,5.46,0,0,1-1.25,1.45c-1.12.74-2.06,0-2.71-.74a10.93,10.93,0,0,1-1.79-3.81,50.42,50.42,0,0,1-1.5-8.47l-1.15-9.22-1.16-9.22c-.09-.77-.77-4,1.08-2.8a10.68,10.68,0,0,1,2.29,3,26.81,26.81,0,0,1,4.27,17l.72-.15a74.89,74.89,0,0,0-2-13.47l-.7.24c7.26,7.75,15.15,16,25.92,18.47,1.87.42,4,.85,5.85.23a2.52,2.52,0,0,0,1.66-3.71c-1.95-4.49-6.1-8.11-10.15-10.66-5.23-3.29-11.14-5.23-17-7.14-.18-.06-.59,0-.66.22a2.26,2.26,0,0,1-2.85,1.66c-.12,0-.74,0-.65.26,1.13,2.95,4.83,3.31,7.45,4.15a32.17,32.17,0,0,1,10.53,5.78c.16.12.85,0,.68-.28-4.85-6.72-13.25-9.12-20.91-11l-.37.38c7.89.61,16.84.71,23.55-4.14,1-.73,3.29-2.21,2-3.64s-3.8-1.21-5.4-1.23c-4.9-.07-9.68,1.34-14.26,2.93-4.3,1.5-9.41,2.91-12.15,6.86-.09.13.08.2.19.19a35.45,35.45,0,0,0,13-3.27c.29-.13.26-.38-.09-.32a81.45,81.45,0,0,0-12.2,3.22c-.48.17,0,.38.28.27a78.79,78.79,0,0,1,11.82-3.12l-.09-.31a34,34,0,0,1-12.45,3.15l.19.19c2.18-3.14,5.86-4.46,9.31-5.71a57,57,0,0,1,13-3.54,19.62,19.62,0,0,1,6.62.17c1,.23,2.09.81,1.74,1.92s-1.52,1.74-2.36,2.33a23.29,23.29,0,0,1-10.35,3.63,59.37,59.37,0,0,1-12.07,0c-.18,0-.77.29-.37.38,7.59,1.84,15.88,4.23,20.68,10.89l.68-.28a32.78,32.78,0,0,0-9.42-5.42c-2.77-1-7.3-1.25-8.52-4.42l-.65.26a3.31,3.31,0,0,0,4.16-2.09l-.66.22c8.86,2.9,18.36,6.08,24.4,13.62,1.09,1.37,3.93,4.66,2.61,6.48s-5.34.74-7.19.26a36.28,36.28,0,0,1-13-6.75,105.61,105.61,0,0,1-11.85-11.42c-.13-.14-.76,0-.7.24a76.47,76.47,0,0,1,2,13.46c0,.22.7.06.72-.14a27.09,27.09,0,0,0-4.42-17.3c-.74-1.11-2.69-4.61-4.4-3-.66.62-.48,1.7-.38,2.49.23,1.94.48,3.88.72,5.82l1.4,11.16a71.13,71.13,0,0,0,1.68,10.47c.56,1.94,1.67,5.63,4.31,5.52,2.24-.1,3.66-3.09,4.55-4.76a24.85,24.85,0,0,0,1.53-19.62c-.09-.24-.81,0-.73.19Z"/></g><g class="cls-1"><path class="cls-2" d="M323.43,539a83.93,83.93,0,0,1-21.38,18.45c-.29.17.43.07.55,0a84.26,84.26,0,0,0,21.54-18.59s-.58,0-.71.14Z"/></g><g class="cls-1"><path class="cls-2" d="M301.72,560.87a42.83,42.83,0,0,1-34.86,19.93c-.31,0-.84.12-1-.12s0-.82.07-1.08a21.35,21.35,0,0,1,.61-2.63,22.16,22.16,0,0,1,2.06-4.74,21.67,21.67,0,0,1,8-7.88,58.73,58.73,0,0,1,11.52-4.72,37.51,37.51,0,0,1,6.53-1.52,23.93,23.93,0,0,1,3.16-.19c.26,0,1.63-.17,1.74.32.06.26-.59,1.1-.71,1.29-3.89,6.22-11.9,8.19-18.59,9.69l.37.14c4.05-4.8,10.73-5.58,16.17-8a24.94,24.94,0,0,0,6.77-4.84,6.79,6.79,0,0,1,2.38-1.58,3.69,3.69,0,0,1,3.74,1.09,9,9,0,0,1,2.4,4.35,11,11,0,0,1-2.67,10.18l.69-.11a19.7,19.7,0,0,1-2-6.67,43,43,0,0,1-.52-7,6.35,6.35,0,0,1,3.24-5.78,16.06,16.06,0,0,1,6.64-1.37l.21-.35a119.5,119.5,0,0,1-12.88,2q-3.56.33-7.13.45c-1.37,0-5.68.6-4.78-2,.71-2.09,3.86-2.76,5.71-3.29a35,35,0,0,1,6.57-1.21c1.56-.14,12.68-.66,10.93,2.85l.51-.23q-5.94.27-11.88.13c-.25,0-.78.35-.3.36q5.94.15,11.88-.13c.17,0,.43-.07.51-.24,1.5-3-5.51-3.17-6.84-3.22a36.83,36.83,0,0,0-12.12,1.59,13.18,13.18,0,0,0-4.39,1.88c-.82.65-1.83,1.79-1.25,2.9.67,1.26,2.54,1,3.7,1q3.38-.06,6.75-.32a120.47,120.47,0,0,0,14.89-2.12c.19,0,.68-.38.21-.36-3.78.21-8.83.78-10.41,4.86-.94,2.43-.43,5.39-.2,7.91a22.52,22.52,0,0,0,2.25,8.6c.11.22.57,0,.69-.11a11.11,11.11,0,0,0,2.91-9.49c-.47-2.93-2.58-6.9-6.06-6.66a6.41,6.41,0,0,0-3.67,1.81,31.57,31.57,0,0,1-4.29,3.63c-3,1.88-6.52,2.81-9.84,4s-6.78,2.74-9.16,5.57c-.18.2.3.16.37.14,7.5-1.67,16.56-4.08,20.08-11.7,0-.07-.08-.11-.13-.12A30,30,0,0,0,288,559.33a64.25,64.25,0,0,0-11.3,4.53A22.36,22.36,0,0,0,265,581c0,.11.13.12.22.13a44,44,0,0,0,37.15-20.31c.16-.25-.56-.16-.67,0Z"/></g></svg>